G04 #@! TF.FileFunction,Legend,Top*
%FSLAX46Y46*%
G04 Gerber Fmt 4.6, Leading zero omitted, Abs format (unit mm)*
G04 Created by KiCad (PCBNEW 4.0.7) date 04/01/18 13:37:29*
%MOMM*%
%LPD*%
G01*
G04 APERTURE LIST*
%ADD10C,0.100000*%
%ADD11C,0.120000*%
%ADD12C,0.150000*%
%ADD13C,0.300000*%
%ADD14O,1.960000X0.780000*%
%ADD15R,2.400000X2.400000*%
%ADD16C,2.400000*%
%ADD17R,3.100000X2.200000*%
%ADD18R,1.650000X1.900000*%
%ADD19R,1.600000X1.150000*%
%ADD20R,1.900000X1.650000*%
%ADD21R,2.000000X2.000000*%
%ADD22C,2.000000*%
%ADD23R,1.600000X1.300000*%
G04 APERTURE END LIST*
D10*
D11*
X126228095Y-114993000D02*
X128028095Y-114993000D01*
X128028095Y-111773000D02*
X125078095Y-111773000D01*
X133280000Y-110300000D02*
X133280000Y-112300000D01*
X130320000Y-112300000D02*
X130320000Y-110300000D01*
X124040000Y-114546000D02*
X124040000Y-113546000D01*
X122340000Y-113546000D02*
X122340000Y-114546000D01*
X131350000Y-114600000D02*
X132050000Y-114600000D01*
X132050000Y-115800000D02*
X131350000Y-115800000D01*
X126800000Y-110950000D02*
X127800000Y-110950000D01*
X127800000Y-109250000D02*
X126800000Y-109250000D01*
X131200000Y-116020000D02*
X132200000Y-116020000D01*
X132200000Y-117380000D02*
X131200000Y-117380000D01*
X127000000Y-116020000D02*
X128000000Y-116020000D01*
X128000000Y-117380000D02*
X127000000Y-117380000D01*
X136990000Y-112880000D02*
X138580000Y-112880000D01*
X138580000Y-112880000D02*
X138580000Y-118260000D01*
X138580000Y-118260000D02*
X135740000Y-118260000D01*
X135740000Y-118260000D02*
X135740000Y-114130000D01*
X136890000Y-112630000D02*
X135490000Y-112630000D01*
X135490000Y-112630000D02*
X135490000Y-114030000D01*
D12*
X126366190Y-110335381D02*
X126366190Y-111144905D01*
X126413809Y-111240143D01*
X126461428Y-111287762D01*
X126556666Y-111335381D01*
X126747143Y-111335381D01*
X126842381Y-111287762D01*
X126890000Y-111240143D01*
X126937619Y-111144905D01*
X126937619Y-110335381D01*
X127937619Y-111335381D02*
X127366190Y-111335381D01*
X127651904Y-111335381D02*
X127651904Y-110335381D01*
X127556666Y-110478238D01*
X127461428Y-110573476D01*
X127366190Y-110621095D01*
X129552381Y-111466666D02*
X129552381Y-111942857D01*
X128552381Y-111942857D01*
X129552381Y-110609523D02*
X129552381Y-111180952D01*
X129552381Y-110895238D02*
X128552381Y-110895238D01*
X128695238Y-110990476D01*
X128790476Y-111085714D01*
X128838095Y-111180952D01*
X125297143Y-114212666D02*
X125344762Y-114260285D01*
X125392381Y-114403142D01*
X125392381Y-114498380D01*
X125344762Y-114641238D01*
X125249524Y-114736476D01*
X125154286Y-114784095D01*
X124963810Y-114831714D01*
X124820952Y-114831714D01*
X124630476Y-114784095D01*
X124535238Y-114736476D01*
X124440000Y-114641238D01*
X124392381Y-114498380D01*
X124392381Y-114403142D01*
X124440000Y-114260285D01*
X124487619Y-114212666D01*
X125392381Y-113260285D02*
X125392381Y-113831714D01*
X125392381Y-113546000D02*
X124392381Y-113546000D01*
X124535238Y-113641238D01*
X124630476Y-113736476D01*
X124678095Y-113831714D01*
X131533334Y-114307143D02*
X131485715Y-114354762D01*
X131342858Y-114402381D01*
X131247620Y-114402381D01*
X131104762Y-114354762D01*
X131009524Y-114259524D01*
X130961905Y-114164286D01*
X130914286Y-113973810D01*
X130914286Y-113830952D01*
X130961905Y-113640476D01*
X131009524Y-113545238D01*
X131104762Y-113450000D01*
X131247620Y-113402381D01*
X131342858Y-113402381D01*
X131485715Y-113450000D01*
X131533334Y-113497619D01*
X131914286Y-113497619D02*
X131961905Y-113450000D01*
X132057143Y-113402381D01*
X132295239Y-113402381D01*
X132390477Y-113450000D01*
X132438096Y-113497619D01*
X132485715Y-113592857D01*
X132485715Y-113688095D01*
X132438096Y-113830952D01*
X131866667Y-114402381D01*
X132485715Y-114402381D01*
X127133334Y-112207143D02*
X127085715Y-112254762D01*
X126942858Y-112302381D01*
X126847620Y-112302381D01*
X126704762Y-112254762D01*
X126609524Y-112159524D01*
X126561905Y-112064286D01*
X126514286Y-111873810D01*
X126514286Y-111730952D01*
X126561905Y-111540476D01*
X126609524Y-111445238D01*
X126704762Y-111350000D01*
X126847620Y-111302381D01*
X126942858Y-111302381D01*
X127085715Y-111350000D01*
X127133334Y-111397619D01*
X127466667Y-111302381D02*
X128085715Y-111302381D01*
X127752381Y-111683333D01*
X127895239Y-111683333D01*
X127990477Y-111730952D01*
X128038096Y-111778571D01*
X128085715Y-111873810D01*
X128085715Y-112111905D01*
X128038096Y-112207143D01*
X127990477Y-112254762D01*
X127895239Y-112302381D01*
X127609524Y-112302381D01*
X127514286Y-112254762D01*
X127466667Y-112207143D01*
X131533334Y-118602381D02*
X131200000Y-118126190D01*
X130961905Y-118602381D02*
X130961905Y-117602381D01*
X131342858Y-117602381D01*
X131438096Y-117650000D01*
X131485715Y-117697619D01*
X131533334Y-117792857D01*
X131533334Y-117935714D01*
X131485715Y-118030952D01*
X131438096Y-118078571D01*
X131342858Y-118126190D01*
X130961905Y-118126190D01*
X132485715Y-118602381D02*
X131914286Y-118602381D01*
X132200000Y-118602381D02*
X132200000Y-117602381D01*
X132104762Y-117745238D01*
X132009524Y-117840476D01*
X131914286Y-117888095D01*
X127333334Y-118602381D02*
X127000000Y-118126190D01*
X126761905Y-118602381D02*
X126761905Y-117602381D01*
X127142858Y-117602381D01*
X127238096Y-117650000D01*
X127285715Y-117697619D01*
X127333334Y-117792857D01*
X127333334Y-117935714D01*
X127285715Y-118030952D01*
X127238096Y-118078571D01*
X127142858Y-118126190D01*
X126761905Y-118126190D01*
X127714286Y-117697619D02*
X127761905Y-117650000D01*
X127857143Y-117602381D01*
X128095239Y-117602381D01*
X128190477Y-117650000D01*
X128238096Y-117697619D01*
X128285715Y-117792857D01*
X128285715Y-117888095D01*
X128238096Y-118030952D01*
X127666667Y-118602381D01*
X128285715Y-118602381D01*
X134342381Y-115903333D02*
X135056667Y-115903333D01*
X135199524Y-115950953D01*
X135294762Y-116046191D01*
X135342381Y-116189048D01*
X135342381Y-116284286D01*
X134437619Y-115474762D02*
X134390000Y-115427143D01*
X134342381Y-115331905D01*
X134342381Y-115093809D01*
X134390000Y-114998571D01*
X134437619Y-114950952D01*
X134532857Y-114903333D01*
X134628095Y-114903333D01*
X134770952Y-114950952D01*
X135342381Y-115522381D01*
X135342381Y-114903333D01*
D13*
G36*
X149710000Y-121770000D02*
X106830000Y-121770000D01*
X106830000Y-99210000D01*
X149710000Y-99210000D01*
X149710000Y-121770000D01*
X149710000Y-121770000D01*
G37*
X149710000Y-121770000D02*
X106830000Y-121770000D01*
X106830000Y-99210000D01*
X149710000Y-99210000D01*
X149710000Y-121770000D01*
%LPC*%
D14*
X125778095Y-112403000D03*
X125778095Y-113053000D03*
X125778095Y-113713000D03*
X125778095Y-114363000D03*
X128478095Y-114363000D03*
X128478095Y-113713000D03*
X128478095Y-113053000D03*
X128478095Y-112403000D03*
D15*
X137160000Y-106680000D03*
D16*
X137160000Y-104140000D03*
D17*
X131800000Y-112900000D03*
X131800000Y-109700000D03*
D18*
X123190000Y-112796000D03*
X123190000Y-115296000D03*
D19*
X130750000Y-115200000D03*
X132650000Y-115200000D03*
D20*
X128550000Y-110100000D03*
X126050000Y-110100000D03*
D21*
X126238000Y-104267000D03*
D22*
X126238000Y-106767000D03*
D15*
X119380000Y-114300000D03*
D16*
X119380000Y-111760000D03*
X119380000Y-109220000D03*
X119380000Y-106680000D03*
D23*
X132800000Y-116700000D03*
X130600000Y-116700000D03*
X128600000Y-116700000D03*
X126400000Y-116700000D03*
D15*
X137160000Y-114300000D03*
D16*
X137160000Y-116840000D03*
M02*
