G04 #@! TF.FileFunction,Legend,Top*
%FSLAX46Y46*%
G04 Gerber Fmt 4.6, Leading zero omitted, Abs format (unit mm)*
G04 Created by KiCad (PCBNEW 4.0.7) date 04/01/18 11:43:11*
%MOMM*%
%LPD*%
G01*
G04 APERTURE LIST*
%ADD10C,0.100000*%
%ADD11C,0.300000*%
G04 APERTURE END LIST*
D10*
D11*
G36*
X149710000Y-121770000D02*
X106830000Y-121770000D01*
X106830000Y-99210000D01*
X149710000Y-99210000D01*
X149710000Y-121770000D01*
X149710000Y-121770000D01*
G37*
%LPC*%
X115316000Y-115316000D02*
X115824000Y-115316000D01*
X115316000Y-110744000D02*
X115316000Y-115316000D01*
X115824000Y-110744000D02*
X115316000Y-110744000D01*
X115316000Y-110236000D02*
X115824000Y-110236000D01*
X115316000Y-105664000D02*
X115316000Y-110236000D01*
X115824000Y-105664000D02*
X115316000Y-105664000D01*
X110871428Y-112280000D02*
X110728571Y-112208571D01*
X110514285Y-112208571D01*
X110300000Y-112280000D01*
X110157142Y-112422857D01*
X110085714Y-112565714D01*
X110014285Y-112851429D01*
X110014285Y-113065714D01*
X110085714Y-113351429D01*
X110157142Y-113494286D01*
X110300000Y-113637143D01*
X110514285Y-113708571D01*
X110657142Y-113708571D01*
X110871428Y-113637143D01*
X110942857Y-113565714D01*
X110942857Y-113065714D01*
X110657142Y-113065714D01*
X111585714Y-113708571D02*
X111585714Y-112208571D01*
X112442857Y-113708571D01*
X112442857Y-112208571D01*
X113157143Y-113708571D02*
X113157143Y-112208571D01*
X113514286Y-112208571D01*
X113728571Y-112280000D01*
X113871429Y-112422857D01*
X113942857Y-112565714D01*
X114014286Y-112851429D01*
X114014286Y-113065714D01*
X113942857Y-113351429D01*
X113871429Y-113494286D01*
X113728571Y-113637143D01*
X113514286Y-113708571D01*
X113157143Y-113708571D01*
X111300001Y-108628571D02*
X110442858Y-108628571D01*
X110871430Y-108628571D02*
X110871430Y-107128571D01*
X110728573Y-107342857D01*
X110585715Y-107485714D01*
X110442858Y-107557143D01*
X111871429Y-107271429D02*
X111942858Y-107200000D01*
X112085715Y-107128571D01*
X112442858Y-107128571D01*
X112585715Y-107200000D01*
X112657144Y-107271429D01*
X112728572Y-107414286D01*
X112728572Y-107557143D01*
X112657144Y-107771429D01*
X111800001Y-108628571D01*
X112728572Y-108628571D01*
X113157143Y-107128571D02*
X113657143Y-108628571D01*
X114157143Y-107128571D01*
X141184286Y-116018571D02*
X142112857Y-116018571D01*
X141612857Y-116590000D01*
X141827143Y-116590000D01*
X141970000Y-116661429D01*
X142041429Y-116732857D01*
X142112857Y-116875714D01*
X142112857Y-117232857D01*
X142041429Y-117375714D01*
X141970000Y-117447143D01*
X141827143Y-117518571D01*
X141398571Y-117518571D01*
X141255714Y-117447143D01*
X141184286Y-117375714D01*
X142755714Y-117375714D02*
X142827142Y-117447143D01*
X142755714Y-117518571D01*
X142684285Y-117447143D01*
X142755714Y-117375714D01*
X142755714Y-117518571D01*
X143327143Y-116018571D02*
X144255714Y-116018571D01*
X143755714Y-116590000D01*
X143970000Y-116590000D01*
X144112857Y-116661429D01*
X144184286Y-116732857D01*
X144255714Y-116875714D01*
X144255714Y-117232857D01*
X144184286Y-117375714D01*
X144112857Y-117447143D01*
X143970000Y-117518571D01*
X143541428Y-117518571D01*
X143398571Y-117447143D01*
X143327143Y-117375714D01*
X144684285Y-116018571D02*
X145184285Y-117518571D01*
X145684285Y-116018571D01*
X142112857Y-113550000D02*
X141970000Y-113478571D01*
X141755714Y-113478571D01*
X141541429Y-113550000D01*
X141398571Y-113692857D01*
X141327143Y-113835714D01*
X141255714Y-114121429D01*
X141255714Y-114335714D01*
X141327143Y-114621429D01*
X141398571Y-114764286D01*
X141541429Y-114907143D01*
X141755714Y-114978571D01*
X141898571Y-114978571D01*
X142112857Y-114907143D01*
X142184286Y-114835714D01*
X142184286Y-114335714D01*
X141898571Y-114335714D01*
X142827143Y-114978571D02*
X142827143Y-113478571D01*
X143684286Y-114978571D01*
X143684286Y-113478571D01*
X144398572Y-114978571D02*
X144398572Y-113478571D01*
X144755715Y-113478571D01*
X144970000Y-113550000D01*
X145112858Y-113692857D01*
X145184286Y-113835714D01*
X145255715Y-114121429D01*
X145255715Y-114335714D01*
X145184286Y-114621429D01*
X145112858Y-114764286D01*
X144970000Y-114907143D01*
X144755715Y-114978571D01*
X144398572Y-114978571D01*
X142112857Y-105930000D02*
X141970000Y-105858571D01*
X141755714Y-105858571D01*
X141541429Y-105930000D01*
X141398571Y-106072857D01*
X141327143Y-106215714D01*
X141255714Y-106501429D01*
X141255714Y-106715714D01*
X141327143Y-107001429D01*
X141398571Y-107144286D01*
X141541429Y-107287143D01*
X141755714Y-107358571D01*
X141898571Y-107358571D01*
X142112857Y-107287143D01*
X142184286Y-107215714D01*
X142184286Y-106715714D01*
X141898571Y-106715714D01*
X142827143Y-107358571D02*
X142827143Y-105858571D01*
X143684286Y-107358571D01*
X143684286Y-105858571D01*
X144398572Y-107358571D02*
X144398572Y-105858571D01*
X144755715Y-105858571D01*
X144970000Y-105930000D01*
X145112858Y-106072857D01*
X145184286Y-106215714D01*
X145255715Y-106501429D01*
X145255715Y-106715714D01*
X145184286Y-107001429D01*
X145112858Y-107144286D01*
X144970000Y-107287143D01*
X144755715Y-107358571D01*
X144398572Y-107358571D01*
X142112857Y-104818571D02*
X141255714Y-104818571D01*
X141684286Y-104818571D02*
X141684286Y-103318571D01*
X141541429Y-103532857D01*
X141398571Y-103675714D01*
X141255714Y-103747143D01*
X142684285Y-103461429D02*
X142755714Y-103390000D01*
X142898571Y-103318571D01*
X143255714Y-103318571D01*
X143398571Y-103390000D01*
X143470000Y-103461429D01*
X143541428Y-103604286D01*
X143541428Y-103747143D01*
X143470000Y-103961429D01*
X142612857Y-104818571D01*
X143541428Y-104818571D01*
X143969999Y-103318571D02*
X144469999Y-104818571D01*
X144969999Y-103318571D01*
M02*
