M48
;DRILL file {KiCad 4.0.7} date 03/18/18 17:41:11
;FORMAT={-:-/ absolute / inch / decimal}
FMAT,2
INCH,TZ
T1C0.037
T2C0.039
T3C0.039
T4C0.047
T5C0.098
T6C0.037
%
G90
G05
M72
T1
X3.75Y-0.55
X3.75Y-1.15
X3.75Y-1.45
X3.75Y-2.05
X3.75Y-2.35
X3.75Y-2.95
X3.75Y-3.25
X3.75Y-3.85
X3.95Y-0.55
X3.95Y-1.15
X3.95Y-1.45
X3.95Y-2.05
X3.95Y-2.35
X3.95Y-2.95
X3.95Y-3.25
X3.95Y-3.85
X4.55Y-0.25
X4.65Y-0.25
X4.75Y-0.25
X4.85Y-0.25
X4.85Y-0.65
X4.85Y-0.75
X4.85Y-0.95
X4.85Y-1.05
X4.85Y-1.55
X4.85Y-1.65
X4.85Y-1.85
X4.85Y-1.95
X4.85Y-2.45
X4.85Y-2.55
X4.85Y-2.75
X4.85Y-2.85
X4.85Y-3.35
X4.85Y-3.45
X4.85Y-3.65
X4.85Y-3.75
T2
X1.8Y-0.55
X1.8Y-0.65
X1.8Y-0.75
X1.8Y-0.85
X1.8Y-0.95
X1.8Y-1.05
X1.8Y-1.15
X1.8Y-1.25
X1.8Y-1.35
X1.8Y-1.45
X1.8Y-1.55
X1.8Y-1.65
X1.8Y-1.75
X1.8Y-1.85
X1.8Y-1.95
X1.8Y-2.05
X1.8Y-2.15
X1.8Y-2.25
X1.8Y-2.35
X1.8Y-2.45
X1.8Y-2.55
X1.8Y-2.65
X1.8Y-2.75
X1.8Y-2.85
X1.8Y-2.95
X1.8Y-3.05
X1.8Y-3.15
X1.8Y-3.25
X1.8Y-3.35
X1.8Y-3.45
X1.8Y-3.55
X1.8Y-3.65
X3.3Y-0.55
X3.3Y-0.65
X3.3Y-0.75
X3.3Y-0.85
X3.3Y-0.95
X3.3Y-1.05
X3.3Y-1.15
X3.3Y-1.25
X3.3Y-1.35
X3.3Y-1.45
X3.3Y-1.55
X3.3Y-1.65
X3.3Y-1.75
X3.3Y-1.85
X3.3Y-1.95
X3.3Y-2.05
X3.3Y-2.15
X3.3Y-2.25
X3.3Y-2.35
X3.3Y-2.45
X3.3Y-2.55
X3.3Y-2.65
X3.3Y-2.75
X3.3Y-2.85
X3.3Y-2.95
X3.3Y-3.05
X3.3Y-3.15
X3.3Y-3.25
X3.3Y-3.35
X3.3Y-3.45
X3.3Y-3.55
X3.3Y-3.65
T3
X1.8Y-3.75
X3.3Y-3.75
T4
X1.35Y-1.75
X1.35Y-1.85
X1.35Y-1.95
X1.35Y-2.05
X1.35Y-2.15
X1.35Y-2.25
X1.35Y-2.35
X1.35Y-2.45
X1.35Y-2.55
X1.35Y-2.65
X1.35Y-2.75
X1.35Y-2.85
X1.35Y-2.95
X1.35Y-3.05
X1.35Y-3.15
X1.35Y-3.25
T5
X0.1295Y-0.5138
X0.1295Y-3.4665
X1.35Y-0.5138
X1.35Y-3.4665
T6
X3.85Y-1.15
X3.85Y-1.45
X3.85Y-3.85
X4.85Y-0.85
X4.85Y-1.75
X4.85Y-2.65
X4.85Y-3.55
T0
M30
