G04 #@! TF.FileFunction,Copper,L1,Top,Signal*
%FSLAX46Y46*%
G04 Gerber Fmt 4.6, Leading zero omitted, Abs format (unit mm)*
G04 Created by KiCad (PCBNEW 4.0.7) date 03/13/18 20:16:42*
%MOMM*%
%LPD*%
G01*
G04 APERTURE LIST*
%ADD10C,0.100000*%
%ADD11R,2.000000X2.000000*%
%ADD12C,2.000000*%
%ADD13R,1.200000X0.900000*%
%ADD14O,2.200000X1.500000*%
%ADD15R,2.200000X1.500000*%
%ADD16R,2.600000X1.800000*%
%ADD17O,2.600000X1.800000*%
%ADD18C,3.000000*%
%ADD19R,2.000000X1.700000*%
%ADD20C,0.600000*%
%ADD21C,0.400000*%
G04 APERTURE END LIST*
D10*
D11*
X123190000Y-24130000D03*
D12*
X95250000Y-29210000D03*
D11*
X100330000Y-29210000D03*
X123190000Y-26670000D03*
D12*
X123190000Y-19050000D03*
X123190000Y-16510000D03*
X95250000Y-13970000D03*
X100330000Y-13970000D03*
D11*
X123190000Y-46990000D03*
D12*
X95250000Y-52070000D03*
D11*
X100330000Y-52070000D03*
X123190000Y-49530000D03*
D12*
X123190000Y-41910000D03*
X123190000Y-39370000D03*
X95250000Y-36830000D03*
X100330000Y-36830000D03*
D11*
X123190000Y-69850000D03*
D12*
X95250000Y-74930000D03*
D11*
X100330000Y-74930000D03*
X123190000Y-72390000D03*
D12*
X123190000Y-64770000D03*
X123190000Y-62230000D03*
X95250000Y-59690000D03*
X100330000Y-59690000D03*
D11*
X123190000Y-92710000D03*
D12*
X95250000Y-97790000D03*
D11*
X100330000Y-97790000D03*
X123190000Y-95250000D03*
D12*
X123190000Y-87630000D03*
X123190000Y-85090000D03*
X95250000Y-82550000D03*
X100330000Y-82550000D03*
D13*
X39835000Y-85090000D03*
X37635000Y-85090000D03*
X37635000Y-82550000D03*
X39835000Y-82550000D03*
D14*
X45720000Y-95250000D03*
X45720000Y-92710000D03*
X45720000Y-90170000D03*
X45720000Y-87630000D03*
X45720000Y-85090000D03*
X45720000Y-82550000D03*
X45720000Y-80010000D03*
X45720000Y-77470000D03*
X45720000Y-74930000D03*
X45720000Y-72390000D03*
X45720000Y-69850000D03*
X45720000Y-67310000D03*
X45720000Y-64770000D03*
X45720000Y-62230000D03*
X45720000Y-59690000D03*
X45720000Y-57150000D03*
X45720000Y-54610000D03*
X45720000Y-52070000D03*
X45720000Y-49530000D03*
X45720000Y-46990000D03*
X45720000Y-44450000D03*
X45720000Y-41910000D03*
X45720000Y-39370000D03*
X45720000Y-36830000D03*
X45720000Y-34290000D03*
X45720000Y-31750000D03*
X45720000Y-29210000D03*
X45720000Y-26670000D03*
X45720000Y-24130000D03*
X45720000Y-21590000D03*
X45720000Y-19050000D03*
X45720000Y-16510000D03*
X45720000Y-13970000D03*
D15*
X83820000Y-13970000D03*
D14*
X83820000Y-16510000D03*
X83820000Y-19050000D03*
X83820000Y-21590000D03*
X83820000Y-24130000D03*
X83820000Y-26670000D03*
X83820000Y-29210000D03*
X83820000Y-31750000D03*
X83820000Y-34290000D03*
X83820000Y-36830000D03*
X83820000Y-39370000D03*
X83820000Y-41910000D03*
X83820000Y-44450000D03*
X83820000Y-46990000D03*
X83820000Y-49530000D03*
X83820000Y-52070000D03*
X83820000Y-54610000D03*
X83820000Y-57150000D03*
X83820000Y-59690000D03*
X83820000Y-62230000D03*
X83820000Y-64770000D03*
X83820000Y-67310000D03*
X83820000Y-69850000D03*
X83820000Y-72390000D03*
X83820000Y-74930000D03*
X83820000Y-77470000D03*
X83820000Y-80010000D03*
X83820000Y-82550000D03*
X83820000Y-85090000D03*
X83820000Y-87630000D03*
X83820000Y-90170000D03*
X83820000Y-92710000D03*
X83820000Y-95250000D03*
D11*
X115570000Y-6350000D03*
D12*
X118110000Y-6350000D03*
X120650000Y-6350000D03*
X123190000Y-6350000D03*
D16*
X34290000Y-85090000D03*
D17*
X34290000Y-82550000D03*
X34290000Y-80010000D03*
X34290000Y-77470000D03*
X34290000Y-74930000D03*
X34290000Y-72390000D03*
X34290000Y-69850000D03*
X34290000Y-67310000D03*
X34290000Y-64770000D03*
X34290000Y-62230000D03*
X34290000Y-59690000D03*
X34290000Y-57150000D03*
X34290000Y-54610000D03*
X34290000Y-52070000D03*
X34290000Y-49530000D03*
X34290000Y-46990000D03*
D18*
X34290000Y-90589100D03*
X3289300Y-90589100D03*
X3289300Y-15590520D03*
X34290000Y-15590000D03*
D19*
X22800000Y-80000000D03*
X26800000Y-80000000D03*
X27200000Y-82600000D03*
X31200000Y-82600000D03*
D20*
X118110000Y-6350000D02*
X118110000Y-8490000D01*
X118110000Y-8490000D02*
X118000000Y-8600000D01*
X118110000Y-6350000D02*
X118110000Y-4510000D01*
X118110000Y-4510000D02*
X118100000Y-4500000D01*
X62230000Y-6350000D02*
X99060000Y-6350000D01*
X62230000Y-6350000D02*
X55880000Y-12700000D01*
X53340000Y-85090000D02*
X55880000Y-82550000D01*
X55880000Y-12700000D02*
X55880000Y-82550000D01*
X45720000Y-85090000D02*
X53340000Y-85090000D01*
X100330000Y-7620000D02*
X99060000Y-6350000D01*
X100330000Y-7620000D02*
X100330000Y-13970000D01*
X100330000Y-36830000D02*
X102235000Y-36830000D01*
X100330000Y-5080000D02*
X106680000Y-11430000D01*
X106680000Y-11430000D02*
X106680000Y-32385000D01*
X106680000Y-32385000D02*
X102235000Y-36830000D01*
X54610000Y-11430000D02*
X60960000Y-5080000D01*
X52070000Y-82550000D02*
X54610000Y-80010000D01*
X54610000Y-80010000D02*
X54610000Y-11430000D01*
X52070000Y-82550000D02*
X45720000Y-82550000D01*
X100330000Y-5080000D02*
X60960000Y-5080000D01*
X59690000Y-3810000D02*
X101600000Y-3810000D01*
X45720000Y-80010000D02*
X52070000Y-80010000D01*
X53340000Y-78740000D02*
X52070000Y-80010000D01*
X53340000Y-10160000D02*
X53340000Y-78740000D01*
X53340000Y-10160000D02*
X59690000Y-3810000D01*
X107950000Y-52070000D02*
X100330000Y-59690000D01*
X107950000Y-10160000D02*
X101600000Y-3810000D01*
X107950000Y-52070000D02*
X107950000Y-10160000D01*
X58420000Y-2540000D02*
X102870000Y-2540000D01*
X45720000Y-77470000D02*
X50800000Y-77470000D01*
X52070000Y-76200000D02*
X52070000Y-8890000D01*
X50800000Y-77470000D02*
X52070000Y-76200000D01*
X52070000Y-8890000D02*
X58420000Y-2540000D01*
X109220000Y-8890000D02*
X102870000Y-2540000D01*
X109220000Y-8890000D02*
X109220000Y-71755000D01*
X100330000Y-80645000D02*
X109220000Y-71755000D01*
X100330000Y-80645000D02*
X100330000Y-82550000D01*
X34290000Y-49530000D02*
X31750000Y-49530000D01*
X22800000Y-58480000D02*
X22800000Y-80000000D01*
X31750000Y-49530000D02*
X22800000Y-58480000D01*
X34290000Y-49530000D02*
X36195000Y-49530000D01*
X43815000Y-24130000D02*
X45720000Y-24130000D01*
X36830000Y-31115000D02*
X43815000Y-24130000D01*
X36830000Y-48895000D02*
X36830000Y-31115000D01*
X36195000Y-49530000D02*
X36830000Y-48895000D01*
X81280000Y-11430000D02*
X92710000Y-11430000D01*
X95250000Y-13970000D02*
X92710000Y-11430000D01*
X80010000Y-12700000D02*
X81280000Y-11430000D01*
X80010000Y-12700000D02*
X80010000Y-48260000D01*
X80010000Y-48260000D02*
X81280000Y-49530000D01*
X81280000Y-49530000D02*
X83820000Y-49530000D01*
X95250000Y-36830000D02*
X95250000Y-34925000D01*
X100965000Y-32385000D02*
X97790000Y-32385000D01*
X97790000Y-32385000D02*
X95250000Y-34925000D01*
X80010000Y-10160000D02*
X95250000Y-10160000D01*
D21*
X96901000Y-18161000D02*
X96901000Y-11811000D01*
D20*
X96901000Y-18161000D02*
X102870000Y-24130000D01*
X102870000Y-24130000D02*
X102870000Y-30480000D01*
X96901000Y-11811000D02*
X95250000Y-10160000D01*
X78740000Y-11430000D02*
X80010000Y-10160000D01*
X81280000Y-52070000D02*
X83820000Y-52070000D01*
X78740000Y-49530000D02*
X81280000Y-52070000D01*
X78740000Y-11430000D02*
X78740000Y-49530000D01*
X102870000Y-30480000D02*
X100965000Y-32385000D01*
X97790000Y-10160000D02*
X96520000Y-8890000D01*
X77470000Y-10160000D02*
X77470000Y-50800000D01*
X77470000Y-50800000D02*
X81280000Y-54610000D01*
X83820000Y-54610000D02*
X81280000Y-54610000D01*
X77470000Y-10160000D02*
X78740000Y-8890000D01*
D21*
X97790000Y-10160000D02*
X97790000Y-16510000D01*
D20*
X97790000Y-16510000D02*
X104140000Y-22860000D01*
X104140000Y-22860000D02*
X104140000Y-31115000D01*
X96520000Y-8890000D02*
X78740000Y-8890000D01*
X98425000Y-33655000D02*
X101600000Y-33655000D01*
X101600000Y-33655000D02*
X104140000Y-31115000D01*
X95885000Y-59690000D02*
X95250000Y-59690000D01*
X95885000Y-59690000D02*
X104140000Y-51435000D01*
X104140000Y-45720000D02*
X104140000Y-51435000D01*
X97155000Y-38735000D02*
X104140000Y-45720000D01*
X97155000Y-34925000D02*
X97155000Y-38735000D01*
X97155000Y-34925000D02*
X98425000Y-33655000D01*
X98425000Y-35560000D02*
X99060000Y-34925000D01*
D21*
X98679000Y-8509000D02*
X98679000Y-14859000D01*
D20*
X76200000Y-8890000D02*
X76200000Y-52070000D01*
X76200000Y-52070000D02*
X81280000Y-57150000D01*
X83820000Y-57150000D02*
X81280000Y-57150000D01*
X76200000Y-8890000D02*
X77470000Y-7620000D01*
X77470000Y-7620000D02*
X97790000Y-7620000D01*
X97790000Y-77470000D02*
X95250000Y-80010000D01*
X97790000Y-77470000D02*
X101600000Y-77470000D01*
X97790000Y-7620000D02*
X98679000Y-8509000D01*
X102870000Y-76200000D02*
X101600000Y-77470000D01*
X102870000Y-66040000D02*
X102870000Y-76200000D01*
X97790000Y-60960000D02*
X102870000Y-66040000D01*
X97790000Y-59690000D02*
X97790000Y-60960000D01*
X105410000Y-52070000D02*
X97790000Y-59690000D01*
X105410000Y-45085000D02*
X105410000Y-52070000D01*
X98425000Y-38100000D02*
X105410000Y-45085000D01*
X98425000Y-35560000D02*
X98425000Y-38100000D01*
X105410000Y-21590000D02*
X105410000Y-31750000D01*
X105410000Y-21590000D02*
X98679000Y-14859000D01*
X95250000Y-80010000D02*
X95250000Y-82550000D01*
X102235000Y-34925000D02*
X105410000Y-31750000D01*
X99060000Y-34925000D02*
X102235000Y-34925000D01*
X45720000Y-87630000D02*
X44450000Y-87630000D01*
X38100000Y-72390000D02*
X34290000Y-72390000D01*
X43815000Y-78105000D02*
X38100000Y-72390000D01*
X43815000Y-86995000D02*
X43815000Y-78105000D01*
X44450000Y-87630000D02*
X43815000Y-86995000D01*
X45720000Y-39370000D02*
X43815000Y-39370000D01*
X38100000Y-62230000D02*
X34290000Y-62230000D01*
X43180000Y-57150000D02*
X38100000Y-62230000D01*
X43180000Y-40005000D02*
X43180000Y-57150000D01*
X43815000Y-39370000D02*
X43180000Y-40005000D01*
X45720000Y-36830000D02*
X43815000Y-36830000D01*
X38100000Y-59690000D02*
X34290000Y-59690000D01*
X41910000Y-55880000D02*
X38100000Y-59690000D01*
X41910000Y-38735000D02*
X41910000Y-55880000D01*
X43815000Y-36830000D02*
X41910000Y-38735000D01*
X45720000Y-34290000D02*
X43815000Y-34290000D01*
X38100000Y-57150000D02*
X34290000Y-57150000D01*
X40640000Y-54610000D02*
X38100000Y-57150000D01*
X40640000Y-37465000D02*
X40640000Y-54610000D01*
X43815000Y-34290000D02*
X40640000Y-37465000D01*
X45720000Y-31750000D02*
X43815000Y-31750000D01*
X38100000Y-54610000D02*
X34290000Y-54610000D01*
X39370000Y-53340000D02*
X38100000Y-54610000D01*
X39370000Y-36195000D02*
X39370000Y-53340000D01*
X43815000Y-31750000D02*
X39370000Y-36195000D01*
X45720000Y-29210000D02*
X43815000Y-29210000D01*
X36830000Y-52070000D02*
X34290000Y-52070000D01*
X38100000Y-50800000D02*
X36830000Y-52070000D01*
X38100000Y-34925000D02*
X38100000Y-50800000D01*
X43815000Y-29210000D02*
X38100000Y-34925000D01*
X45720000Y-90170000D02*
X43815000Y-90170000D01*
X38100000Y-74930000D02*
X34290000Y-74930000D01*
X42545000Y-79375000D02*
X38100000Y-74930000D01*
X42545000Y-88900000D02*
X42545000Y-79375000D01*
X43815000Y-90170000D02*
X42545000Y-88900000D01*
X45720000Y-92710000D02*
X43815000Y-92710000D01*
X38100000Y-77470000D02*
X34290000Y-77470000D01*
X41275000Y-80645000D02*
X38100000Y-77470000D01*
X41275000Y-90170000D02*
X41275000Y-80645000D01*
X43815000Y-92710000D02*
X41275000Y-90170000D01*
X95250000Y-29210000D02*
X95250000Y-29845000D01*
X85725000Y-39370000D02*
X83820000Y-39370000D01*
X95250000Y-29845000D02*
X85725000Y-39370000D01*
X83820000Y-41910000D02*
X87630000Y-41910000D01*
X95250000Y-49530000D02*
X95250000Y-52070000D01*
X87630000Y-41910000D02*
X95250000Y-49530000D01*
X83820000Y-44450000D02*
X87630000Y-44450000D01*
X91440000Y-71120000D02*
X95250000Y-74930000D01*
X91440000Y-48260000D02*
X91440000Y-71120000D01*
X87630000Y-44450000D02*
X91440000Y-48260000D01*
X83820000Y-46990000D02*
X87630000Y-46990000D01*
X90170000Y-92710000D02*
X95250000Y-97790000D01*
X90170000Y-49530000D02*
X90170000Y-92710000D01*
X87630000Y-46990000D02*
X90170000Y-49530000D01*
X34290000Y-69850000D02*
X30480000Y-69850000D01*
X80010000Y-80010000D02*
X83820000Y-80010000D01*
X62230000Y-97790000D02*
X80010000Y-80010000D01*
X34290000Y-97790000D02*
X62230000Y-97790000D01*
D21*
X29600000Y-93100000D02*
X34290000Y-97790000D01*
X29600000Y-70730000D02*
X29600000Y-93100000D01*
X30480000Y-69850000D02*
X29600000Y-70730000D01*
D20*
X34290000Y-67310000D02*
X30480000Y-67310000D01*
X80010000Y-82550000D02*
X63500000Y-99060000D01*
X63500000Y-99060000D02*
X33020000Y-99060000D01*
D21*
X33020000Y-99060000D02*
X28800000Y-94840000D01*
X28800000Y-94840000D02*
X28800000Y-68990000D01*
D20*
X80010000Y-82550000D02*
X83820000Y-82550000D01*
D21*
X30480000Y-67310000D02*
X28800000Y-68990000D01*
D20*
X34290000Y-64770000D02*
X30480000Y-64770000D01*
X80010000Y-85090000D02*
X83820000Y-85090000D01*
X64770000Y-100330000D02*
X80010000Y-85090000D01*
X31750000Y-100330000D02*
X64770000Y-100330000D01*
X24800000Y-93380000D02*
X31750000Y-100330000D01*
X24800000Y-70450000D02*
X24800000Y-93380000D01*
X30480000Y-64770000D02*
X24800000Y-70450000D01*
X39835000Y-85090000D02*
X39835000Y-82550000D01*
X39835000Y-82550000D02*
X37295000Y-80010000D01*
X37295000Y-80010000D02*
X34290000Y-80010000D01*
X26800000Y-80000000D02*
X26800000Y-82200000D01*
X26800000Y-82200000D02*
X27200000Y-82600000D01*
X31200000Y-82600000D02*
X34240000Y-82600000D01*
X34240000Y-82600000D02*
X34290000Y-82550000D01*
X34290000Y-82550000D02*
X37635000Y-82550000D01*
D21*
G36*
X125925000Y-89560218D02*
X125780302Y-89589000D01*
X121869698Y-89589000D01*
X121468816Y-89509259D01*
X121145664Y-89293336D01*
X120929741Y-88970184D01*
X120878430Y-88712228D01*
X122178482Y-88712228D01*
X122272020Y-88978556D01*
X122857967Y-89227199D01*
X123494463Y-89232683D01*
X124084607Y-88994173D01*
X124107980Y-88978556D01*
X124201518Y-88712228D01*
X123190000Y-87700711D01*
X122178482Y-88712228D01*
X120878430Y-88712228D01*
X120850000Y-88569302D01*
X120850000Y-87934463D01*
X121587317Y-87934463D01*
X121825827Y-88524607D01*
X121841444Y-88547980D01*
X122107772Y-88641518D01*
X123119289Y-87630000D01*
X123260711Y-87630000D01*
X124272228Y-88641518D01*
X124538556Y-88547980D01*
X124787199Y-87962033D01*
X124792683Y-87325537D01*
X124554173Y-86735393D01*
X124538556Y-86712020D01*
X124272228Y-86618482D01*
X123260711Y-87630000D01*
X123119289Y-87630000D01*
X122107772Y-86618482D01*
X121841444Y-86712020D01*
X121592801Y-87297967D01*
X121587317Y-87934463D01*
X120850000Y-87934463D01*
X120850000Y-86172228D01*
X122178482Y-86172228D01*
X122244430Y-86360000D01*
X122178482Y-86547772D01*
X123190000Y-87559289D01*
X124201518Y-86547772D01*
X124135570Y-86360000D01*
X124201518Y-86172228D01*
X123190000Y-85160711D01*
X122178482Y-86172228D01*
X120850000Y-86172228D01*
X120850000Y-85394463D01*
X121587317Y-85394463D01*
X121825827Y-85984607D01*
X121841444Y-86007980D01*
X122107772Y-86101518D01*
X123119289Y-85090000D01*
X123260711Y-85090000D01*
X124272228Y-86101518D01*
X124538556Y-86007980D01*
X124787199Y-85422033D01*
X124792683Y-84785537D01*
X124554173Y-84195393D01*
X124538556Y-84172020D01*
X124272228Y-84078482D01*
X123260711Y-85090000D01*
X123119289Y-85090000D01*
X122107772Y-84078482D01*
X121841444Y-84172020D01*
X121592801Y-84757967D01*
X121587317Y-85394463D01*
X120850000Y-85394463D01*
X120850000Y-84007772D01*
X122178482Y-84007772D01*
X123190000Y-85019289D01*
X124201518Y-84007772D01*
X124107980Y-83741444D01*
X123522033Y-83492801D01*
X122885537Y-83487317D01*
X122295393Y-83725827D01*
X122272020Y-83741444D01*
X122178482Y-84007772D01*
X120850000Y-84007772D01*
X120850000Y-83769698D01*
X120929741Y-83368816D01*
X121145664Y-83045664D01*
X121468816Y-82829741D01*
X121869698Y-82750000D01*
X123514000Y-82750000D01*
X123553018Y-82746157D01*
X124012238Y-82654812D01*
X124084334Y-82624949D01*
X124473642Y-82364822D01*
X124528822Y-82309642D01*
X124788949Y-81920334D01*
X124818812Y-81848238D01*
X124910157Y-81389018D01*
X124914000Y-81350000D01*
X124914000Y-74101724D01*
X125129262Y-73786678D01*
X125209591Y-73390000D01*
X125209591Y-71390000D01*
X125156922Y-71110088D01*
X125209591Y-70850000D01*
X125209591Y-68850000D01*
X125139862Y-68479422D01*
X124920851Y-68139069D01*
X124914000Y-68134388D01*
X124914000Y-68129000D01*
X124910157Y-68089982D01*
X124818812Y-67630762D01*
X124788949Y-67558666D01*
X124528822Y-67169358D01*
X124473642Y-67114178D01*
X124084334Y-66854051D01*
X124012238Y-66824188D01*
X123553018Y-66732843D01*
X123514000Y-66729000D01*
X121869698Y-66729000D01*
X121468816Y-66649259D01*
X121145664Y-66433336D01*
X120929741Y-66110184D01*
X120878430Y-65852228D01*
X122178482Y-65852228D01*
X122272020Y-66118556D01*
X122857967Y-66367199D01*
X123494463Y-66372683D01*
X124084607Y-66134173D01*
X124107980Y-66118556D01*
X124201518Y-65852228D01*
X123190000Y-64840711D01*
X122178482Y-65852228D01*
X120878430Y-65852228D01*
X120850000Y-65709302D01*
X120850000Y-65074463D01*
X121587317Y-65074463D01*
X121825827Y-65664607D01*
X121841444Y-65687980D01*
X122107772Y-65781518D01*
X123119289Y-64770000D01*
X123260711Y-64770000D01*
X124272228Y-65781518D01*
X124538556Y-65687980D01*
X124787199Y-65102033D01*
X124792683Y-64465537D01*
X124554173Y-63875393D01*
X124538556Y-63852020D01*
X124272228Y-63758482D01*
X123260711Y-64770000D01*
X123119289Y-64770000D01*
X122107772Y-63758482D01*
X121841444Y-63852020D01*
X121592801Y-64437967D01*
X121587317Y-65074463D01*
X120850000Y-65074463D01*
X120850000Y-63312228D01*
X122178482Y-63312228D01*
X122244430Y-63500000D01*
X122178482Y-63687772D01*
X123190000Y-64699289D01*
X124201518Y-63687772D01*
X124135570Y-63500000D01*
X124201518Y-63312228D01*
X123190000Y-62300711D01*
X122178482Y-63312228D01*
X120850000Y-63312228D01*
X120850000Y-62534463D01*
X121587317Y-62534463D01*
X121825827Y-63124607D01*
X121841444Y-63147980D01*
X122107772Y-63241518D01*
X123119289Y-62230000D01*
X123260711Y-62230000D01*
X124272228Y-63241518D01*
X124538556Y-63147980D01*
X124787199Y-62562033D01*
X124792683Y-61925537D01*
X124554173Y-61335393D01*
X124538556Y-61312020D01*
X124272228Y-61218482D01*
X123260711Y-62230000D01*
X123119289Y-62230000D01*
X122107772Y-61218482D01*
X121841444Y-61312020D01*
X121592801Y-61897967D01*
X121587317Y-62534463D01*
X120850000Y-62534463D01*
X120850000Y-61147772D01*
X122178482Y-61147772D01*
X123190000Y-62159289D01*
X124201518Y-61147772D01*
X124107980Y-60881444D01*
X123522033Y-60632801D01*
X122885537Y-60627317D01*
X122295393Y-60865827D01*
X122272020Y-60881444D01*
X122178482Y-61147772D01*
X120850000Y-61147772D01*
X120850000Y-60909698D01*
X120929741Y-60508816D01*
X121145664Y-60185664D01*
X121468816Y-59969741D01*
X121869698Y-59890000D01*
X123514000Y-59890000D01*
X123553018Y-59886157D01*
X124012238Y-59794812D01*
X124084334Y-59764949D01*
X124473642Y-59504822D01*
X124528822Y-59449642D01*
X124788949Y-59060334D01*
X124818812Y-58988238D01*
X124910157Y-58529018D01*
X124914000Y-58490000D01*
X124914000Y-51241724D01*
X125129262Y-50926678D01*
X125209591Y-50530000D01*
X125209591Y-48530000D01*
X125156922Y-48250088D01*
X125209591Y-47990000D01*
X125209591Y-45990000D01*
X125139862Y-45619422D01*
X124920851Y-45279069D01*
X124914000Y-45274388D01*
X124914000Y-45269000D01*
X124910157Y-45229982D01*
X124818812Y-44770762D01*
X124788949Y-44698666D01*
X124528822Y-44309358D01*
X124473642Y-44254178D01*
X124084334Y-43994051D01*
X124012238Y-43964188D01*
X123553018Y-43872843D01*
X123514000Y-43869000D01*
X121869698Y-43869000D01*
X121468816Y-43789259D01*
X121145664Y-43573336D01*
X120929741Y-43250184D01*
X120878430Y-42992228D01*
X122178482Y-42992228D01*
X122272020Y-43258556D01*
X122857967Y-43507199D01*
X123494463Y-43512683D01*
X124084607Y-43274173D01*
X124107980Y-43258556D01*
X124201518Y-42992228D01*
X123190000Y-41980711D01*
X122178482Y-42992228D01*
X120878430Y-42992228D01*
X120850000Y-42849302D01*
X120850000Y-42214463D01*
X121587317Y-42214463D01*
X121825827Y-42804607D01*
X121841444Y-42827980D01*
X122107772Y-42921518D01*
X123119289Y-41910000D01*
X123260711Y-41910000D01*
X124272228Y-42921518D01*
X124538556Y-42827980D01*
X124787199Y-42242033D01*
X124792683Y-41605537D01*
X124554173Y-41015393D01*
X124538556Y-40992020D01*
X124272228Y-40898482D01*
X123260711Y-41910000D01*
X123119289Y-41910000D01*
X122107772Y-40898482D01*
X121841444Y-40992020D01*
X121592801Y-41577967D01*
X121587317Y-42214463D01*
X120850000Y-42214463D01*
X120850000Y-40452228D01*
X122178482Y-40452228D01*
X122244430Y-40640000D01*
X122178482Y-40827772D01*
X123190000Y-41839289D01*
X124201518Y-40827772D01*
X124135570Y-40640000D01*
X124201518Y-40452228D01*
X123190000Y-39440711D01*
X122178482Y-40452228D01*
X120850000Y-40452228D01*
X120850000Y-39674463D01*
X121587317Y-39674463D01*
X121825827Y-40264607D01*
X121841444Y-40287980D01*
X122107772Y-40381518D01*
X123119289Y-39370000D01*
X123260711Y-39370000D01*
X124272228Y-40381518D01*
X124538556Y-40287980D01*
X124787199Y-39702033D01*
X124792683Y-39065537D01*
X124554173Y-38475393D01*
X124538556Y-38452020D01*
X124272228Y-38358482D01*
X123260711Y-39370000D01*
X123119289Y-39370000D01*
X122107772Y-38358482D01*
X121841444Y-38452020D01*
X121592801Y-39037967D01*
X121587317Y-39674463D01*
X120850000Y-39674463D01*
X120850000Y-38287772D01*
X122178482Y-38287772D01*
X123190000Y-39299289D01*
X124201518Y-38287772D01*
X124107980Y-38021444D01*
X123522033Y-37772801D01*
X122885537Y-37767317D01*
X122295393Y-38005827D01*
X122272020Y-38021444D01*
X122178482Y-38287772D01*
X120850000Y-38287772D01*
X120850000Y-38049698D01*
X120929741Y-37648816D01*
X121145664Y-37325664D01*
X121468816Y-37109741D01*
X121869698Y-37030000D01*
X123514000Y-37030000D01*
X123553018Y-37026157D01*
X124012238Y-36934812D01*
X124084334Y-36904949D01*
X124473642Y-36644822D01*
X124528822Y-36589642D01*
X124788949Y-36200334D01*
X124818812Y-36128238D01*
X124910157Y-35669018D01*
X124914000Y-35630000D01*
X124914000Y-28381724D01*
X125129262Y-28066678D01*
X125209591Y-27670000D01*
X125209591Y-25670000D01*
X125156922Y-25390088D01*
X125209591Y-25130000D01*
X125209591Y-23130000D01*
X125139862Y-22759422D01*
X124920851Y-22419069D01*
X124914000Y-22414388D01*
X124914000Y-22409000D01*
X124910157Y-22369982D01*
X124818812Y-21910762D01*
X124788949Y-21838666D01*
X124528822Y-21449358D01*
X124473642Y-21394178D01*
X124084334Y-21134051D01*
X124012238Y-21104188D01*
X123553018Y-21012843D01*
X123514000Y-21009000D01*
X120415698Y-21009000D01*
X120279634Y-20981935D01*
X120180982Y-20916018D01*
X120115065Y-20817366D01*
X120088000Y-20681302D01*
X120088000Y-20132228D01*
X122178482Y-20132228D01*
X122272020Y-20398556D01*
X122857967Y-20647199D01*
X123494463Y-20652683D01*
X124084607Y-20414173D01*
X124107980Y-20398556D01*
X124201518Y-20132228D01*
X123190000Y-19120711D01*
X122178482Y-20132228D01*
X120088000Y-20132228D01*
X120088000Y-19354463D01*
X121587317Y-19354463D01*
X121825827Y-19944607D01*
X121841444Y-19967980D01*
X122107772Y-20061518D01*
X123119289Y-19050000D01*
X123260711Y-19050000D01*
X124272228Y-20061518D01*
X124538556Y-19967980D01*
X124787199Y-19382033D01*
X124792683Y-18745537D01*
X124554173Y-18155393D01*
X124538556Y-18132020D01*
X124272228Y-18038482D01*
X123260711Y-19050000D01*
X123119289Y-19050000D01*
X122107772Y-18038482D01*
X121841444Y-18132020D01*
X121592801Y-18717967D01*
X121587317Y-19354463D01*
X120088000Y-19354463D01*
X120088000Y-17592228D01*
X122178482Y-17592228D01*
X122244430Y-17780000D01*
X122178482Y-17967772D01*
X123190000Y-18979289D01*
X124201518Y-17967772D01*
X124135570Y-17780000D01*
X124201518Y-17592228D01*
X123190000Y-16580711D01*
X122178482Y-17592228D01*
X120088000Y-17592228D01*
X120088000Y-16814463D01*
X121587317Y-16814463D01*
X121825827Y-17404607D01*
X121841444Y-17427980D01*
X122107772Y-17521518D01*
X123119289Y-16510000D01*
X123260711Y-16510000D01*
X124272228Y-17521518D01*
X124538556Y-17427980D01*
X124787199Y-16842033D01*
X124792683Y-16205537D01*
X124554173Y-15615393D01*
X124538556Y-15592020D01*
X124272228Y-15498482D01*
X123260711Y-16510000D01*
X123119289Y-16510000D01*
X122107772Y-15498482D01*
X121841444Y-15592020D01*
X121592801Y-16177967D01*
X121587317Y-16814463D01*
X120088000Y-16814463D01*
X120088000Y-15427772D01*
X122178482Y-15427772D01*
X123190000Y-16439289D01*
X124201518Y-15427772D01*
X124107980Y-15161444D01*
X123522033Y-14912801D01*
X122885537Y-14907317D01*
X122295393Y-15145827D01*
X122272020Y-15161444D01*
X122178482Y-15427772D01*
X120088000Y-15427772D01*
X120088000Y-7849614D01*
X120317967Y-7947199D01*
X120954463Y-7952683D01*
X121544607Y-7714173D01*
X121567980Y-7698556D01*
X121661518Y-7432228D01*
X122178482Y-7432228D01*
X122272020Y-7698556D01*
X122857967Y-7947199D01*
X123494463Y-7952683D01*
X124084607Y-7714173D01*
X124107980Y-7698556D01*
X124201518Y-7432228D01*
X123190000Y-6420711D01*
X122178482Y-7432228D01*
X121661518Y-7432228D01*
X120650000Y-6420711D01*
X120635858Y-6434853D01*
X120565147Y-6364142D01*
X120579289Y-6350000D01*
X120720711Y-6350000D01*
X121732228Y-7361518D01*
X121920000Y-7295570D01*
X122107772Y-7361518D01*
X123119289Y-6350000D01*
X123260711Y-6350000D01*
X124272228Y-7361518D01*
X124538556Y-7267980D01*
X124787199Y-6682033D01*
X124792683Y-6045537D01*
X124554173Y-5455393D01*
X124538556Y-5432020D01*
X124272228Y-5338482D01*
X123260711Y-6350000D01*
X123119289Y-6350000D01*
X122107772Y-5338482D01*
X121920000Y-5404430D01*
X121732228Y-5338482D01*
X120720711Y-6350000D01*
X120579289Y-6350000D01*
X120565147Y-6335858D01*
X120635858Y-6265147D01*
X120650000Y-6279289D01*
X121661518Y-5267772D01*
X122178482Y-5267772D01*
X123190000Y-6279289D01*
X124201518Y-5267772D01*
X124107980Y-5001444D01*
X123522033Y-4752801D01*
X122885537Y-4747317D01*
X122295393Y-4985827D01*
X122272020Y-5001444D01*
X122178482Y-5267772D01*
X121661518Y-5267772D01*
X121567980Y-5001444D01*
X120982033Y-4752801D01*
X120345537Y-4747317D01*
X120088000Y-4851402D01*
X120088000Y-1215743D01*
X120110291Y-1075000D01*
X125925000Y-1075000D01*
X125925000Y-89560218D01*
X125925000Y-89560218D01*
G37*
X125925000Y-89560218D02*
X125780302Y-89589000D01*
X121869698Y-89589000D01*
X121468816Y-89509259D01*
X121145664Y-89293336D01*
X120929741Y-88970184D01*
X120878430Y-88712228D01*
X122178482Y-88712228D01*
X122272020Y-88978556D01*
X122857967Y-89227199D01*
X123494463Y-89232683D01*
X124084607Y-88994173D01*
X124107980Y-88978556D01*
X124201518Y-88712228D01*
X123190000Y-87700711D01*
X122178482Y-88712228D01*
X120878430Y-88712228D01*
X120850000Y-88569302D01*
X120850000Y-87934463D01*
X121587317Y-87934463D01*
X121825827Y-88524607D01*
X121841444Y-88547980D01*
X122107772Y-88641518D01*
X123119289Y-87630000D01*
X123260711Y-87630000D01*
X124272228Y-88641518D01*
X124538556Y-88547980D01*
X124787199Y-87962033D01*
X124792683Y-87325537D01*
X124554173Y-86735393D01*
X124538556Y-86712020D01*
X124272228Y-86618482D01*
X123260711Y-87630000D01*
X123119289Y-87630000D01*
X122107772Y-86618482D01*
X121841444Y-86712020D01*
X121592801Y-87297967D01*
X121587317Y-87934463D01*
X120850000Y-87934463D01*
X120850000Y-86172228D01*
X122178482Y-86172228D01*
X122244430Y-86360000D01*
X122178482Y-86547772D01*
X123190000Y-87559289D01*
X124201518Y-86547772D01*
X124135570Y-86360000D01*
X124201518Y-86172228D01*
X123190000Y-85160711D01*
X122178482Y-86172228D01*
X120850000Y-86172228D01*
X120850000Y-85394463D01*
X121587317Y-85394463D01*
X121825827Y-85984607D01*
X121841444Y-86007980D01*
X122107772Y-86101518D01*
X123119289Y-85090000D01*
X123260711Y-85090000D01*
X124272228Y-86101518D01*
X124538556Y-86007980D01*
X124787199Y-85422033D01*
X124792683Y-84785537D01*
X124554173Y-84195393D01*
X124538556Y-84172020D01*
X124272228Y-84078482D01*
X123260711Y-85090000D01*
X123119289Y-85090000D01*
X122107772Y-84078482D01*
X121841444Y-84172020D01*
X121592801Y-84757967D01*
X121587317Y-85394463D01*
X120850000Y-85394463D01*
X120850000Y-84007772D01*
X122178482Y-84007772D01*
X123190000Y-85019289D01*
X124201518Y-84007772D01*
X124107980Y-83741444D01*
X123522033Y-83492801D01*
X122885537Y-83487317D01*
X122295393Y-83725827D01*
X122272020Y-83741444D01*
X122178482Y-84007772D01*
X120850000Y-84007772D01*
X120850000Y-83769698D01*
X120929741Y-83368816D01*
X121145664Y-83045664D01*
X121468816Y-82829741D01*
X121869698Y-82750000D01*
X123514000Y-82750000D01*
X123553018Y-82746157D01*
X124012238Y-82654812D01*
X124084334Y-82624949D01*
X124473642Y-82364822D01*
X124528822Y-82309642D01*
X124788949Y-81920334D01*
X124818812Y-81848238D01*
X124910157Y-81389018D01*
X124914000Y-81350000D01*
X124914000Y-74101724D01*
X125129262Y-73786678D01*
X125209591Y-73390000D01*
X125209591Y-71390000D01*
X125156922Y-71110088D01*
X125209591Y-70850000D01*
X125209591Y-68850000D01*
X125139862Y-68479422D01*
X124920851Y-68139069D01*
X124914000Y-68134388D01*
X124914000Y-68129000D01*
X124910157Y-68089982D01*
X124818812Y-67630762D01*
X124788949Y-67558666D01*
X124528822Y-67169358D01*
X124473642Y-67114178D01*
X124084334Y-66854051D01*
X124012238Y-66824188D01*
X123553018Y-66732843D01*
X123514000Y-66729000D01*
X121869698Y-66729000D01*
X121468816Y-66649259D01*
X121145664Y-66433336D01*
X120929741Y-66110184D01*
X120878430Y-65852228D01*
X122178482Y-65852228D01*
X122272020Y-66118556D01*
X122857967Y-66367199D01*
X123494463Y-66372683D01*
X124084607Y-66134173D01*
X124107980Y-66118556D01*
X124201518Y-65852228D01*
X123190000Y-64840711D01*
X122178482Y-65852228D01*
X120878430Y-65852228D01*
X120850000Y-65709302D01*
X120850000Y-65074463D01*
X121587317Y-65074463D01*
X121825827Y-65664607D01*
X121841444Y-65687980D01*
X122107772Y-65781518D01*
X123119289Y-64770000D01*
X123260711Y-64770000D01*
X124272228Y-65781518D01*
X124538556Y-65687980D01*
X124787199Y-65102033D01*
X124792683Y-64465537D01*
X124554173Y-63875393D01*
X124538556Y-63852020D01*
X124272228Y-63758482D01*
X123260711Y-64770000D01*
X123119289Y-64770000D01*
X122107772Y-63758482D01*
X121841444Y-63852020D01*
X121592801Y-64437967D01*
X121587317Y-65074463D01*
X120850000Y-65074463D01*
X120850000Y-63312228D01*
X122178482Y-63312228D01*
X122244430Y-63500000D01*
X122178482Y-63687772D01*
X123190000Y-64699289D01*
X124201518Y-63687772D01*
X124135570Y-63500000D01*
X124201518Y-63312228D01*
X123190000Y-62300711D01*
X122178482Y-63312228D01*
X120850000Y-63312228D01*
X120850000Y-62534463D01*
X121587317Y-62534463D01*
X121825827Y-63124607D01*
X121841444Y-63147980D01*
X122107772Y-63241518D01*
X123119289Y-62230000D01*
X123260711Y-62230000D01*
X124272228Y-63241518D01*
X124538556Y-63147980D01*
X124787199Y-62562033D01*
X124792683Y-61925537D01*
X124554173Y-61335393D01*
X124538556Y-61312020D01*
X124272228Y-61218482D01*
X123260711Y-62230000D01*
X123119289Y-62230000D01*
X122107772Y-61218482D01*
X121841444Y-61312020D01*
X121592801Y-61897967D01*
X121587317Y-62534463D01*
X120850000Y-62534463D01*
X120850000Y-61147772D01*
X122178482Y-61147772D01*
X123190000Y-62159289D01*
X124201518Y-61147772D01*
X124107980Y-60881444D01*
X123522033Y-60632801D01*
X122885537Y-60627317D01*
X122295393Y-60865827D01*
X122272020Y-60881444D01*
X122178482Y-61147772D01*
X120850000Y-61147772D01*
X120850000Y-60909698D01*
X120929741Y-60508816D01*
X121145664Y-60185664D01*
X121468816Y-59969741D01*
X121869698Y-59890000D01*
X123514000Y-59890000D01*
X123553018Y-59886157D01*
X124012238Y-59794812D01*
X124084334Y-59764949D01*
X124473642Y-59504822D01*
X124528822Y-59449642D01*
X124788949Y-59060334D01*
X124818812Y-58988238D01*
X124910157Y-58529018D01*
X124914000Y-58490000D01*
X124914000Y-51241724D01*
X125129262Y-50926678D01*
X125209591Y-50530000D01*
X125209591Y-48530000D01*
X125156922Y-48250088D01*
X125209591Y-47990000D01*
X125209591Y-45990000D01*
X125139862Y-45619422D01*
X124920851Y-45279069D01*
X124914000Y-45274388D01*
X124914000Y-45269000D01*
X124910157Y-45229982D01*
X124818812Y-44770762D01*
X124788949Y-44698666D01*
X124528822Y-44309358D01*
X124473642Y-44254178D01*
X124084334Y-43994051D01*
X124012238Y-43964188D01*
X123553018Y-43872843D01*
X123514000Y-43869000D01*
X121869698Y-43869000D01*
X121468816Y-43789259D01*
X121145664Y-43573336D01*
X120929741Y-43250184D01*
X120878430Y-42992228D01*
X122178482Y-42992228D01*
X122272020Y-43258556D01*
X122857967Y-43507199D01*
X123494463Y-43512683D01*
X124084607Y-43274173D01*
X124107980Y-43258556D01*
X124201518Y-42992228D01*
X123190000Y-41980711D01*
X122178482Y-42992228D01*
X120878430Y-42992228D01*
X120850000Y-42849302D01*
X120850000Y-42214463D01*
X121587317Y-42214463D01*
X121825827Y-42804607D01*
X121841444Y-42827980D01*
X122107772Y-42921518D01*
X123119289Y-41910000D01*
X123260711Y-41910000D01*
X124272228Y-42921518D01*
X124538556Y-42827980D01*
X124787199Y-42242033D01*
X124792683Y-41605537D01*
X124554173Y-41015393D01*
X124538556Y-40992020D01*
X124272228Y-40898482D01*
X123260711Y-41910000D01*
X123119289Y-41910000D01*
X122107772Y-40898482D01*
X121841444Y-40992020D01*
X121592801Y-41577967D01*
X121587317Y-42214463D01*
X120850000Y-42214463D01*
X120850000Y-40452228D01*
X122178482Y-40452228D01*
X122244430Y-40640000D01*
X122178482Y-40827772D01*
X123190000Y-41839289D01*
X124201518Y-40827772D01*
X124135570Y-40640000D01*
X124201518Y-40452228D01*
X123190000Y-39440711D01*
X122178482Y-40452228D01*
X120850000Y-40452228D01*
X120850000Y-39674463D01*
X121587317Y-39674463D01*
X121825827Y-40264607D01*
X121841444Y-40287980D01*
X122107772Y-40381518D01*
X123119289Y-39370000D01*
X123260711Y-39370000D01*
X124272228Y-40381518D01*
X124538556Y-40287980D01*
X124787199Y-39702033D01*
X124792683Y-39065537D01*
X124554173Y-38475393D01*
X124538556Y-38452020D01*
X124272228Y-38358482D01*
X123260711Y-39370000D01*
X123119289Y-39370000D01*
X122107772Y-38358482D01*
X121841444Y-38452020D01*
X121592801Y-39037967D01*
X121587317Y-39674463D01*
X120850000Y-39674463D01*
X120850000Y-38287772D01*
X122178482Y-38287772D01*
X123190000Y-39299289D01*
X124201518Y-38287772D01*
X124107980Y-38021444D01*
X123522033Y-37772801D01*
X122885537Y-37767317D01*
X122295393Y-38005827D01*
X122272020Y-38021444D01*
X122178482Y-38287772D01*
X120850000Y-38287772D01*
X120850000Y-38049698D01*
X120929741Y-37648816D01*
X121145664Y-37325664D01*
X121468816Y-37109741D01*
X121869698Y-37030000D01*
X123514000Y-37030000D01*
X123553018Y-37026157D01*
X124012238Y-36934812D01*
X124084334Y-36904949D01*
X124473642Y-36644822D01*
X124528822Y-36589642D01*
X124788949Y-36200334D01*
X124818812Y-36128238D01*
X124910157Y-35669018D01*
X124914000Y-35630000D01*
X124914000Y-28381724D01*
X125129262Y-28066678D01*
X125209591Y-27670000D01*
X125209591Y-25670000D01*
X125156922Y-25390088D01*
X125209591Y-25130000D01*
X125209591Y-23130000D01*
X125139862Y-22759422D01*
X124920851Y-22419069D01*
X124914000Y-22414388D01*
X124914000Y-22409000D01*
X124910157Y-22369982D01*
X124818812Y-21910762D01*
X124788949Y-21838666D01*
X124528822Y-21449358D01*
X124473642Y-21394178D01*
X124084334Y-21134051D01*
X124012238Y-21104188D01*
X123553018Y-21012843D01*
X123514000Y-21009000D01*
X120415698Y-21009000D01*
X120279634Y-20981935D01*
X120180982Y-20916018D01*
X120115065Y-20817366D01*
X120088000Y-20681302D01*
X120088000Y-20132228D01*
X122178482Y-20132228D01*
X122272020Y-20398556D01*
X122857967Y-20647199D01*
X123494463Y-20652683D01*
X124084607Y-20414173D01*
X124107980Y-20398556D01*
X124201518Y-20132228D01*
X123190000Y-19120711D01*
X122178482Y-20132228D01*
X120088000Y-20132228D01*
X120088000Y-19354463D01*
X121587317Y-19354463D01*
X121825827Y-19944607D01*
X121841444Y-19967980D01*
X122107772Y-20061518D01*
X123119289Y-19050000D01*
X123260711Y-19050000D01*
X124272228Y-20061518D01*
X124538556Y-19967980D01*
X124787199Y-19382033D01*
X124792683Y-18745537D01*
X124554173Y-18155393D01*
X124538556Y-18132020D01*
X124272228Y-18038482D01*
X123260711Y-19050000D01*
X123119289Y-19050000D01*
X122107772Y-18038482D01*
X121841444Y-18132020D01*
X121592801Y-18717967D01*
X121587317Y-19354463D01*
X120088000Y-19354463D01*
X120088000Y-17592228D01*
X122178482Y-17592228D01*
X122244430Y-17780000D01*
X122178482Y-17967772D01*
X123190000Y-18979289D01*
X124201518Y-17967772D01*
X124135570Y-17780000D01*
X124201518Y-17592228D01*
X123190000Y-16580711D01*
X122178482Y-17592228D01*
X120088000Y-17592228D01*
X120088000Y-16814463D01*
X121587317Y-16814463D01*
X121825827Y-17404607D01*
X121841444Y-17427980D01*
X122107772Y-17521518D01*
X123119289Y-16510000D01*
X123260711Y-16510000D01*
X124272228Y-17521518D01*
X124538556Y-17427980D01*
X124787199Y-16842033D01*
X124792683Y-16205537D01*
X124554173Y-15615393D01*
X124538556Y-15592020D01*
X124272228Y-15498482D01*
X123260711Y-16510000D01*
X123119289Y-16510000D01*
X122107772Y-15498482D01*
X121841444Y-15592020D01*
X121592801Y-16177967D01*
X121587317Y-16814463D01*
X120088000Y-16814463D01*
X120088000Y-15427772D01*
X122178482Y-15427772D01*
X123190000Y-16439289D01*
X124201518Y-15427772D01*
X124107980Y-15161444D01*
X123522033Y-14912801D01*
X122885537Y-14907317D01*
X122295393Y-15145827D01*
X122272020Y-15161444D01*
X122178482Y-15427772D01*
X120088000Y-15427772D01*
X120088000Y-7849614D01*
X120317967Y-7947199D01*
X120954463Y-7952683D01*
X121544607Y-7714173D01*
X121567980Y-7698556D01*
X121661518Y-7432228D01*
X122178482Y-7432228D01*
X122272020Y-7698556D01*
X122857967Y-7947199D01*
X123494463Y-7952683D01*
X124084607Y-7714173D01*
X124107980Y-7698556D01*
X124201518Y-7432228D01*
X123190000Y-6420711D01*
X122178482Y-7432228D01*
X121661518Y-7432228D01*
X120650000Y-6420711D01*
X120635858Y-6434853D01*
X120565147Y-6364142D01*
X120579289Y-6350000D01*
X120720711Y-6350000D01*
X121732228Y-7361518D01*
X121920000Y-7295570D01*
X122107772Y-7361518D01*
X123119289Y-6350000D01*
X123260711Y-6350000D01*
X124272228Y-7361518D01*
X124538556Y-7267980D01*
X124787199Y-6682033D01*
X124792683Y-6045537D01*
X124554173Y-5455393D01*
X124538556Y-5432020D01*
X124272228Y-5338482D01*
X123260711Y-6350000D01*
X123119289Y-6350000D01*
X122107772Y-5338482D01*
X121920000Y-5404430D01*
X121732228Y-5338482D01*
X120720711Y-6350000D01*
X120579289Y-6350000D01*
X120565147Y-6335858D01*
X120635858Y-6265147D01*
X120650000Y-6279289D01*
X121661518Y-5267772D01*
X122178482Y-5267772D01*
X123190000Y-6279289D01*
X124201518Y-5267772D01*
X124107980Y-5001444D01*
X123522033Y-4752801D01*
X122885537Y-4747317D01*
X122295393Y-4985827D01*
X122272020Y-5001444D01*
X122178482Y-5267772D01*
X121661518Y-5267772D01*
X121567980Y-5001444D01*
X120982033Y-4752801D01*
X120345537Y-4747317D01*
X120088000Y-4851402D01*
X120088000Y-1215743D01*
X120110291Y-1075000D01*
X125925000Y-1075000D01*
X125925000Y-89560218D01*
G36*
X118888000Y-1200000D02*
X118888000Y-4887875D01*
X118453939Y-4703208D01*
X117797559Y-4696943D01*
X117188745Y-4942341D01*
X117162042Y-4960182D01*
X117140124Y-5027871D01*
X117121043Y-4981805D01*
X116938195Y-4798957D01*
X116699293Y-4700000D01*
X115782500Y-4700000D01*
X115620000Y-4862500D01*
X115620000Y-6300000D01*
X115640000Y-6300000D01*
X115640000Y-6400000D01*
X115620000Y-6400000D01*
X115620000Y-7837500D01*
X115782500Y-8000000D01*
X116699293Y-8000000D01*
X116938195Y-7901043D01*
X117121043Y-7718195D01*
X117140124Y-7672129D01*
X117162042Y-7739818D01*
X117766061Y-7996792D01*
X118422441Y-8003057D01*
X118888000Y-7815402D01*
X118888000Y-20701000D01*
X118907215Y-20896090D01*
X118945884Y-21090493D01*
X119095201Y-21450975D01*
X119205322Y-21615782D01*
X119481218Y-21891678D01*
X119646025Y-22001799D01*
X120006507Y-22151116D01*
X120200910Y-22189785D01*
X120396000Y-22209000D01*
X123415509Y-22209000D01*
X123583038Y-22242324D01*
X123641568Y-22281432D01*
X123680676Y-22339962D01*
X123708532Y-22480000D01*
X123402500Y-22480000D01*
X123240000Y-22642500D01*
X123240000Y-24080000D01*
X123260000Y-24080000D01*
X123260000Y-24180000D01*
X123240000Y-24180000D01*
X123240000Y-26620000D01*
X123260000Y-26620000D01*
X123260000Y-26720000D01*
X123240000Y-26720000D01*
X123240000Y-28157500D01*
X123402500Y-28320000D01*
X123714000Y-28320000D01*
X123714000Y-35531509D01*
X123680676Y-35699038D01*
X123641568Y-35757568D01*
X123583038Y-35796676D01*
X123415509Y-35830000D01*
X121850000Y-35830000D01*
X121654909Y-35849215D01*
X121195689Y-35940560D01*
X120835210Y-36089875D01*
X120445902Y-36350002D01*
X120170002Y-36625902D01*
X119909875Y-37015210D01*
X119760560Y-37375689D01*
X119669215Y-37834909D01*
X119650000Y-38030000D01*
X119650000Y-42869000D01*
X119669215Y-43064091D01*
X119760560Y-43523311D01*
X119909875Y-43883790D01*
X120170002Y-44273098D01*
X120445902Y-44548998D01*
X120835210Y-44809125D01*
X121195689Y-44958440D01*
X121654909Y-45049785D01*
X121850000Y-45069000D01*
X123415509Y-45069000D01*
X123583038Y-45102324D01*
X123641568Y-45141432D01*
X123680676Y-45199962D01*
X123708532Y-45340000D01*
X123402500Y-45340000D01*
X123240000Y-45502500D01*
X123240000Y-46940000D01*
X123260000Y-46940000D01*
X123260000Y-47040000D01*
X123240000Y-47040000D01*
X123240000Y-49480000D01*
X123260000Y-49480000D01*
X123260000Y-49580000D01*
X123240000Y-49580000D01*
X123240000Y-51017500D01*
X123402500Y-51180000D01*
X123714000Y-51180000D01*
X123714000Y-58391509D01*
X123680676Y-58559038D01*
X123641568Y-58617568D01*
X123583038Y-58656676D01*
X123415509Y-58690000D01*
X121850000Y-58690000D01*
X121654909Y-58709215D01*
X121195689Y-58800560D01*
X120835210Y-58949875D01*
X120445902Y-59210002D01*
X120170002Y-59485902D01*
X119909875Y-59875210D01*
X119760560Y-60235689D01*
X119669215Y-60694909D01*
X119650000Y-60890000D01*
X119650000Y-65729000D01*
X119669215Y-65924091D01*
X119760560Y-66383311D01*
X119909875Y-66743790D01*
X120170002Y-67133098D01*
X120445902Y-67408998D01*
X120835210Y-67669125D01*
X121195689Y-67818440D01*
X121654909Y-67909785D01*
X121850000Y-67929000D01*
X123415509Y-67929000D01*
X123583038Y-67962324D01*
X123641568Y-68001432D01*
X123680676Y-68059962D01*
X123708532Y-68200000D01*
X123402500Y-68200000D01*
X123240000Y-68362500D01*
X123240000Y-69800000D01*
X123260000Y-69800000D01*
X123260000Y-69900000D01*
X123240000Y-69900000D01*
X123240000Y-72340000D01*
X123260000Y-72340000D01*
X123260000Y-72440000D01*
X123240000Y-72440000D01*
X123240000Y-73877500D01*
X123402500Y-74040000D01*
X123714000Y-74040000D01*
X123714000Y-81251509D01*
X123680676Y-81419038D01*
X123641568Y-81477568D01*
X123583038Y-81516676D01*
X123415509Y-81550000D01*
X121850000Y-81550000D01*
X121654909Y-81569215D01*
X121195689Y-81660560D01*
X120835210Y-81809875D01*
X120445902Y-82070002D01*
X120170002Y-82345902D01*
X119909875Y-82735210D01*
X119760560Y-83095689D01*
X119669215Y-83554909D01*
X119650000Y-83750000D01*
X119650000Y-88589000D01*
X119669215Y-88784091D01*
X119760560Y-89243311D01*
X119909875Y-89603790D01*
X120170002Y-89993098D01*
X120445902Y-90268998D01*
X120835210Y-90529125D01*
X121195689Y-90678440D01*
X121654909Y-90769785D01*
X121850000Y-90789000D01*
X125800000Y-90789000D01*
X125925000Y-90776688D01*
X125925000Y-100525000D01*
X66413478Y-100525000D01*
X71420225Y-95518253D01*
X82095940Y-95518253D01*
X82157434Y-95739563D01*
X82444695Y-96204594D01*
X82888049Y-96524297D01*
X83420000Y-96650000D01*
X83770000Y-96650000D01*
X83770000Y-95300000D01*
X83870000Y-95300000D01*
X83870000Y-96650000D01*
X84220000Y-96650000D01*
X84751951Y-96524297D01*
X85195305Y-96204594D01*
X85482566Y-95739563D01*
X85544060Y-95518253D01*
X85406489Y-95300000D01*
X83870000Y-95300000D01*
X83770000Y-95300000D01*
X82233511Y-95300000D01*
X82095940Y-95518253D01*
X71420225Y-95518253D01*
X80548478Y-86390000D01*
X82195258Y-86390000D01*
X82191422Y-86392563D01*
X81812070Y-86960304D01*
X81678859Y-87630000D01*
X81812070Y-88299696D01*
X82191422Y-88867437D01*
X82240156Y-88900000D01*
X82191422Y-88932563D01*
X81812070Y-89500304D01*
X81678859Y-90170000D01*
X81812070Y-90839696D01*
X82191422Y-91407437D01*
X82240156Y-91440000D01*
X82191422Y-91472563D01*
X81812070Y-92040304D01*
X81678859Y-92710000D01*
X81812070Y-93379696D01*
X82191422Y-93947437D01*
X82573350Y-94202633D01*
X82444695Y-94295406D01*
X82157434Y-94760437D01*
X82095940Y-94981747D01*
X82233511Y-95200000D01*
X83770000Y-95200000D01*
X83770000Y-95180000D01*
X83870000Y-95180000D01*
X83870000Y-95200000D01*
X85406489Y-95200000D01*
X85544060Y-94981747D01*
X85482566Y-94760437D01*
X85195305Y-94295406D01*
X85066650Y-94202633D01*
X85448578Y-93947437D01*
X85827930Y-93379696D01*
X85961141Y-92710000D01*
X85827930Y-92040304D01*
X85448578Y-91472563D01*
X85399844Y-91440000D01*
X85448578Y-91407437D01*
X85827930Y-90839696D01*
X85961141Y-90170000D01*
X85827930Y-89500304D01*
X85448578Y-88932563D01*
X85399844Y-88900000D01*
X85448578Y-88867437D01*
X85827930Y-88299696D01*
X85961141Y-87630000D01*
X85827930Y-86960304D01*
X85448578Y-86392563D01*
X85399844Y-86360000D01*
X85448578Y-86327437D01*
X85827930Y-85759696D01*
X85961141Y-85090000D01*
X85827930Y-84420304D01*
X85448578Y-83852563D01*
X85399844Y-83820000D01*
X85448578Y-83787437D01*
X85827930Y-83219696D01*
X85961141Y-82550000D01*
X85827930Y-81880304D01*
X85448578Y-81312563D01*
X85399844Y-81280000D01*
X85448578Y-81247437D01*
X85827930Y-80679696D01*
X85961141Y-80010000D01*
X85827930Y-79340304D01*
X85448578Y-78772563D01*
X85399844Y-78740000D01*
X85448578Y-78707437D01*
X85827930Y-78139696D01*
X85961141Y-77470000D01*
X85827930Y-76800304D01*
X85448578Y-76232563D01*
X85399844Y-76200000D01*
X85448578Y-76167437D01*
X85827930Y-75599696D01*
X85961141Y-74930000D01*
X85827930Y-74260304D01*
X85448578Y-73692563D01*
X85399844Y-73660000D01*
X85448578Y-73627437D01*
X85827930Y-73059696D01*
X85961141Y-72390000D01*
X85827930Y-71720304D01*
X85448578Y-71152563D01*
X85399844Y-71120000D01*
X85448578Y-71087437D01*
X85827930Y-70519696D01*
X85961141Y-69850000D01*
X85827930Y-69180304D01*
X85448578Y-68612563D01*
X85399844Y-68580000D01*
X85448578Y-68547437D01*
X85827930Y-67979696D01*
X85961141Y-67310000D01*
X85827930Y-66640304D01*
X85448578Y-66072563D01*
X85399844Y-66040000D01*
X85448578Y-66007437D01*
X85827930Y-65439696D01*
X85961141Y-64770000D01*
X85827930Y-64100304D01*
X85448578Y-63532563D01*
X85399844Y-63500000D01*
X85448578Y-63467437D01*
X85827930Y-62899696D01*
X85961141Y-62230000D01*
X85827930Y-61560304D01*
X85448578Y-60992563D01*
X85399844Y-60960000D01*
X85448578Y-60927437D01*
X85827930Y-60359696D01*
X85961141Y-59690000D01*
X85827930Y-59020304D01*
X85448578Y-58452563D01*
X85399844Y-58420000D01*
X85448578Y-58387437D01*
X85827930Y-57819696D01*
X85961141Y-57150000D01*
X85827930Y-56480304D01*
X85448578Y-55912563D01*
X85399844Y-55880000D01*
X85448578Y-55847437D01*
X85827930Y-55279696D01*
X85961141Y-54610000D01*
X85827930Y-53940304D01*
X85448578Y-53372563D01*
X85399844Y-53340000D01*
X85448578Y-53307437D01*
X85827930Y-52739696D01*
X85961141Y-52070000D01*
X85827930Y-51400304D01*
X85448578Y-50832563D01*
X85399844Y-50800000D01*
X85448578Y-50767437D01*
X85827930Y-50199696D01*
X85961141Y-49530000D01*
X85827930Y-48860304D01*
X85448578Y-48292563D01*
X85444742Y-48290000D01*
X87091522Y-48290000D01*
X88870000Y-50068477D01*
X88870000Y-92710000D01*
X88968957Y-93207489D01*
X89250761Y-93629239D01*
X93250140Y-97628618D01*
X93249654Y-98186079D01*
X93553494Y-98921429D01*
X94115612Y-99484529D01*
X94850430Y-99789652D01*
X95646079Y-99790346D01*
X96381429Y-99486506D01*
X96944529Y-98924388D01*
X97249652Y-98189570D01*
X97249815Y-98002500D01*
X98680000Y-98002500D01*
X98680000Y-98919293D01*
X98778957Y-99158195D01*
X98961805Y-99341043D01*
X99200707Y-99440000D01*
X100117500Y-99440000D01*
X100280000Y-99277500D01*
X100280000Y-97840000D01*
X100380000Y-97840000D01*
X100380000Y-99277500D01*
X100542500Y-99440000D01*
X101459293Y-99440000D01*
X101698195Y-99341043D01*
X101881043Y-99158195D01*
X101980000Y-98919293D01*
X101980000Y-98002500D01*
X101817500Y-97840000D01*
X100380000Y-97840000D01*
X100280000Y-97840000D01*
X98842500Y-97840000D01*
X98680000Y-98002500D01*
X97249815Y-98002500D01*
X97250346Y-97393921D01*
X96947389Y-96660707D01*
X98680000Y-96660707D01*
X98680000Y-97577500D01*
X98842500Y-97740000D01*
X100280000Y-97740000D01*
X100280000Y-96302500D01*
X100380000Y-96302500D01*
X100380000Y-97740000D01*
X101817500Y-97740000D01*
X101980000Y-97577500D01*
X101980000Y-96660707D01*
X101881043Y-96421805D01*
X101698195Y-96238957D01*
X101459293Y-96140000D01*
X100542500Y-96140000D01*
X100380000Y-96302500D01*
X100280000Y-96302500D01*
X100117500Y-96140000D01*
X99200707Y-96140000D01*
X98961805Y-96238957D01*
X98778957Y-96421805D01*
X98680000Y-96660707D01*
X96947389Y-96660707D01*
X96946506Y-96658571D01*
X96384388Y-96095471D01*
X95649570Y-95790348D01*
X95088336Y-95789858D01*
X94760978Y-95462500D01*
X121540000Y-95462500D01*
X121540000Y-96379293D01*
X121638957Y-96618195D01*
X121821805Y-96801043D01*
X122060707Y-96900000D01*
X122977500Y-96900000D01*
X123140000Y-96737500D01*
X123140000Y-95300000D01*
X123240000Y-95300000D01*
X123240000Y-96737500D01*
X123402500Y-96900000D01*
X124319293Y-96900000D01*
X124558195Y-96801043D01*
X124741043Y-96618195D01*
X124840000Y-96379293D01*
X124840000Y-95462500D01*
X124677500Y-95300000D01*
X123240000Y-95300000D01*
X123140000Y-95300000D01*
X121702500Y-95300000D01*
X121540000Y-95462500D01*
X94760978Y-95462500D01*
X92220978Y-92922500D01*
X121540000Y-92922500D01*
X121540000Y-93839293D01*
X121598283Y-93980000D01*
X121540000Y-94120707D01*
X121540000Y-95037500D01*
X121702500Y-95200000D01*
X123140000Y-95200000D01*
X123140000Y-92760000D01*
X123240000Y-92760000D01*
X123240000Y-95200000D01*
X124677500Y-95200000D01*
X124840000Y-95037500D01*
X124840000Y-94120707D01*
X124781717Y-93980000D01*
X124840000Y-93839293D01*
X124840000Y-92922500D01*
X124677500Y-92760000D01*
X123240000Y-92760000D01*
X123140000Y-92760000D01*
X121702500Y-92760000D01*
X121540000Y-92922500D01*
X92220978Y-92922500D01*
X91470000Y-92171522D01*
X91470000Y-91580707D01*
X121540000Y-91580707D01*
X121540000Y-92497500D01*
X121702500Y-92660000D01*
X123140000Y-92660000D01*
X123140000Y-91222500D01*
X123240000Y-91222500D01*
X123240000Y-92660000D01*
X124677500Y-92660000D01*
X124840000Y-92497500D01*
X124840000Y-91580707D01*
X124741043Y-91341805D01*
X124558195Y-91158957D01*
X124319293Y-91060000D01*
X123402500Y-91060000D01*
X123240000Y-91222500D01*
X123140000Y-91222500D01*
X122977500Y-91060000D01*
X122060707Y-91060000D01*
X121821805Y-91158957D01*
X121638957Y-91341805D01*
X121540000Y-91580707D01*
X91470000Y-91580707D01*
X91470000Y-72988478D01*
X93250140Y-74768618D01*
X93249654Y-75326079D01*
X93553494Y-76061429D01*
X94115612Y-76624529D01*
X94850430Y-76929652D01*
X95646079Y-76930346D01*
X96381429Y-76626506D01*
X96944529Y-76064388D01*
X97249652Y-75329570D01*
X97250346Y-74533921D01*
X96947389Y-73800707D01*
X98680000Y-73800707D01*
X98680000Y-74717500D01*
X98842500Y-74880000D01*
X100280000Y-74880000D01*
X100280000Y-73442500D01*
X100117500Y-73280000D01*
X99200707Y-73280000D01*
X98961805Y-73378957D01*
X98778957Y-73561805D01*
X98680000Y-73800707D01*
X96947389Y-73800707D01*
X96946506Y-73798571D01*
X96384388Y-73235471D01*
X95649570Y-72930348D01*
X95088336Y-72929858D01*
X92740000Y-70581522D01*
X92740000Y-48858478D01*
X93950000Y-50068478D01*
X93950000Y-50541771D01*
X93555471Y-50935612D01*
X93250348Y-51670430D01*
X93249654Y-52466079D01*
X93553494Y-53201429D01*
X94115612Y-53764529D01*
X94850430Y-54069652D01*
X95646079Y-54070346D01*
X96381429Y-53766506D01*
X96944529Y-53204388D01*
X97249652Y-52469570D01*
X97250346Y-51673921D01*
X96947389Y-50940707D01*
X98680000Y-50940707D01*
X98680000Y-51857500D01*
X98842500Y-52020000D01*
X100280000Y-52020000D01*
X100280000Y-50582500D01*
X100117500Y-50420000D01*
X99200707Y-50420000D01*
X98961805Y-50518957D01*
X98778957Y-50701805D01*
X98680000Y-50940707D01*
X96947389Y-50940707D01*
X96946506Y-50938571D01*
X96550000Y-50541372D01*
X96550000Y-49530000D01*
X96451043Y-49032512D01*
X96451043Y-49032511D01*
X96169239Y-48610761D01*
X88549239Y-40990761D01*
X88127489Y-40708957D01*
X87630000Y-40610000D01*
X86026639Y-40610000D01*
X86222489Y-40571043D01*
X86644239Y-40289239D01*
X95777387Y-31156091D01*
X96381429Y-30906506D01*
X96944529Y-30344388D01*
X97249652Y-29609570D01*
X97249815Y-29422500D01*
X98680000Y-29422500D01*
X98680000Y-30339293D01*
X98778957Y-30578195D01*
X98961805Y-30761043D01*
X99200707Y-30860000D01*
X100117500Y-30860000D01*
X100280000Y-30697500D01*
X100280000Y-29260000D01*
X98842500Y-29260000D01*
X98680000Y-29422500D01*
X97249815Y-29422500D01*
X97250346Y-28813921D01*
X96947389Y-28080707D01*
X98680000Y-28080707D01*
X98680000Y-28997500D01*
X98842500Y-29160000D01*
X100280000Y-29160000D01*
X100280000Y-27722500D01*
X100117500Y-27560000D01*
X99200707Y-27560000D01*
X98961805Y-27658957D01*
X98778957Y-27841805D01*
X98680000Y-28080707D01*
X96947389Y-28080707D01*
X96946506Y-28078571D01*
X96384388Y-27515471D01*
X95649570Y-27210348D01*
X94853921Y-27209654D01*
X94118571Y-27513494D01*
X93555471Y-28075612D01*
X93250348Y-28810430D01*
X93249654Y-29606079D01*
X93366837Y-29889685D01*
X85845585Y-37410937D01*
X85961141Y-36830000D01*
X85827930Y-36160304D01*
X85448578Y-35592563D01*
X85066650Y-35337367D01*
X85195305Y-35244594D01*
X85482566Y-34779563D01*
X85544060Y-34558253D01*
X85406489Y-34340000D01*
X83870000Y-34340000D01*
X83870000Y-34360000D01*
X83770000Y-34360000D01*
X83770000Y-34340000D01*
X82233511Y-34340000D01*
X82095940Y-34558253D01*
X82157434Y-34779563D01*
X82444695Y-35244594D01*
X82573350Y-35337367D01*
X82191422Y-35592563D01*
X81812070Y-36160304D01*
X81678859Y-36830000D01*
X81812070Y-37499696D01*
X82191422Y-38067437D01*
X82240156Y-38100000D01*
X82191422Y-38132563D01*
X81812070Y-38700304D01*
X81678859Y-39370000D01*
X81812070Y-40039696D01*
X82191422Y-40607437D01*
X82240156Y-40640000D01*
X82191422Y-40672563D01*
X81812070Y-41240304D01*
X81678859Y-41910000D01*
X81812070Y-42579696D01*
X82191422Y-43147437D01*
X82240156Y-43180000D01*
X82191422Y-43212563D01*
X81812070Y-43780304D01*
X81678859Y-44450000D01*
X81812070Y-45119696D01*
X82191422Y-45687437D01*
X82240156Y-45720000D01*
X82191422Y-45752563D01*
X81812070Y-46320304D01*
X81678859Y-46990000D01*
X81812070Y-47659696D01*
X82191422Y-48227437D01*
X82195258Y-48230000D01*
X81818478Y-48230000D01*
X81310000Y-47721522D01*
X81310000Y-19050000D01*
X81678859Y-19050000D01*
X81812070Y-19719696D01*
X82191422Y-20287437D01*
X82240156Y-20320000D01*
X82191422Y-20352563D01*
X81812070Y-20920304D01*
X81678859Y-21590000D01*
X81812070Y-22259696D01*
X82191422Y-22827437D01*
X82240156Y-22860000D01*
X82191422Y-22892563D01*
X81812070Y-23460304D01*
X81678859Y-24130000D01*
X81812070Y-24799696D01*
X82191422Y-25367437D01*
X82240156Y-25400000D01*
X82191422Y-25432563D01*
X81812070Y-26000304D01*
X81678859Y-26670000D01*
X81812070Y-27339696D01*
X82191422Y-27907437D01*
X82240156Y-27940000D01*
X82191422Y-27972563D01*
X81812070Y-28540304D01*
X81678859Y-29210000D01*
X81812070Y-29879696D01*
X82191422Y-30447437D01*
X82240156Y-30480000D01*
X82191422Y-30512563D01*
X81812070Y-31080304D01*
X81678859Y-31750000D01*
X81812070Y-32419696D01*
X82191422Y-32987437D01*
X82573350Y-33242633D01*
X82444695Y-33335406D01*
X82157434Y-33800437D01*
X82095940Y-34021747D01*
X82233511Y-34240000D01*
X83770000Y-34240000D01*
X83770000Y-34220000D01*
X83870000Y-34220000D01*
X83870000Y-34240000D01*
X85406489Y-34240000D01*
X85544060Y-34021747D01*
X85482566Y-33800437D01*
X85195305Y-33335406D01*
X85066650Y-33242633D01*
X85448578Y-32987437D01*
X85827930Y-32419696D01*
X85961141Y-31750000D01*
X85827930Y-31080304D01*
X85448578Y-30512563D01*
X85399844Y-30480000D01*
X85448578Y-30447437D01*
X85827930Y-29879696D01*
X85961141Y-29210000D01*
X85827930Y-28540304D01*
X85448578Y-27972563D01*
X85399844Y-27940000D01*
X85448578Y-27907437D01*
X85827930Y-27339696D01*
X85961141Y-26670000D01*
X85827930Y-26000304D01*
X85448578Y-25432563D01*
X85399844Y-25400000D01*
X85448578Y-25367437D01*
X85827930Y-24799696D01*
X85961141Y-24130000D01*
X85827930Y-23460304D01*
X85448578Y-22892563D01*
X85399844Y-22860000D01*
X85448578Y-22827437D01*
X85827930Y-22259696D01*
X85961141Y-21590000D01*
X85827930Y-20920304D01*
X85448578Y-20352563D01*
X85399844Y-20320000D01*
X85448578Y-20287437D01*
X85827930Y-19719696D01*
X85961141Y-19050000D01*
X85827930Y-18380304D01*
X85448578Y-17812563D01*
X85066650Y-17557367D01*
X85195305Y-17464594D01*
X85482566Y-16999563D01*
X85544060Y-16778253D01*
X85406489Y-16560000D01*
X83870000Y-16560000D01*
X83870000Y-16580000D01*
X83770000Y-16580000D01*
X83770000Y-16560000D01*
X82233511Y-16560000D01*
X82095940Y-16778253D01*
X82157434Y-16999563D01*
X82444695Y-17464594D01*
X82573350Y-17557367D01*
X82191422Y-17812563D01*
X81812070Y-18380304D01*
X81678859Y-19050000D01*
X81310000Y-19050000D01*
X81310000Y-13238478D01*
X81818478Y-12730000D01*
X81844502Y-12730000D01*
X81780738Y-12823322D01*
X81700409Y-13220000D01*
X81700409Y-14720000D01*
X81770138Y-15090578D01*
X81989149Y-15430931D01*
X82323322Y-15659262D01*
X82374179Y-15669561D01*
X82157434Y-16020437D01*
X82095940Y-16241747D01*
X82233511Y-16460000D01*
X83770000Y-16460000D01*
X83770000Y-16440000D01*
X83870000Y-16440000D01*
X83870000Y-16460000D01*
X85406489Y-16460000D01*
X85544060Y-16241747D01*
X85482566Y-16020437D01*
X85268566Y-15674004D01*
X85290578Y-15669862D01*
X85630931Y-15450851D01*
X85859262Y-15116678D01*
X85939591Y-14720000D01*
X85939591Y-13220000D01*
X85869862Y-12849422D01*
X85793016Y-12730000D01*
X92171522Y-12730000D01*
X93250140Y-13808618D01*
X93249654Y-14366079D01*
X93553494Y-15101429D01*
X94115612Y-15664529D01*
X94850430Y-15969652D01*
X95646079Y-15970346D01*
X95701000Y-15947653D01*
X95701000Y-17661950D01*
X95699957Y-17663511D01*
X95601000Y-18161000D01*
X95699957Y-18658489D01*
X95981761Y-19080239D01*
X101570000Y-24668478D01*
X101570000Y-27605857D01*
X101459293Y-27560000D01*
X100542500Y-27560000D01*
X100380000Y-27722500D01*
X100380000Y-29160000D01*
X100400000Y-29160000D01*
X100400000Y-29260000D01*
X100380000Y-29260000D01*
X100380000Y-30697500D01*
X100542500Y-30860000D01*
X100651522Y-30860000D01*
X100426522Y-31085000D01*
X97790000Y-31085000D01*
X97292512Y-31183957D01*
X96870761Y-31465761D01*
X96870759Y-31465764D01*
X94330761Y-34005761D01*
X94048957Y-34427511D01*
X94048957Y-34427512D01*
X93950000Y-34925000D01*
X93950000Y-35301771D01*
X93555471Y-35695612D01*
X93250348Y-36430430D01*
X93249654Y-37226079D01*
X93553494Y-37961429D01*
X94115612Y-38524529D01*
X94850430Y-38829652D01*
X95646079Y-38830346D01*
X95856658Y-38743337D01*
X95953957Y-39232489D01*
X96235761Y-39654239D01*
X102840000Y-46258478D01*
X102840000Y-50896522D01*
X101980000Y-51756522D01*
X101980000Y-50940707D01*
X101881043Y-50701805D01*
X101698195Y-50518957D01*
X101459293Y-50420000D01*
X100542500Y-50420000D01*
X100380000Y-50582500D01*
X100380000Y-52020000D01*
X100400000Y-52020000D01*
X100400000Y-52120000D01*
X100380000Y-52120000D01*
X100380000Y-52140000D01*
X100280000Y-52140000D01*
X100280000Y-52120000D01*
X98842500Y-52120000D01*
X98680000Y-52282500D01*
X98680000Y-53199293D01*
X98778957Y-53438195D01*
X98961805Y-53621043D01*
X99200707Y-53720000D01*
X100016522Y-53720000D01*
X95929809Y-57806713D01*
X95649570Y-57690348D01*
X94853921Y-57689654D01*
X94118571Y-57993494D01*
X93555471Y-58555612D01*
X93250348Y-59290430D01*
X93249654Y-60086079D01*
X93553494Y-60821429D01*
X94115612Y-61384529D01*
X94850430Y-61689652D01*
X95646079Y-61690346D01*
X96381429Y-61386506D01*
X96542796Y-61225421D01*
X96588957Y-61457489D01*
X96870761Y-61879239D01*
X101570000Y-66578478D01*
X101570000Y-73325857D01*
X101459293Y-73280000D01*
X100542500Y-73280000D01*
X100380000Y-73442500D01*
X100380000Y-74880000D01*
X100400000Y-74880000D01*
X100400000Y-74980000D01*
X100380000Y-74980000D01*
X100380000Y-75000000D01*
X100280000Y-75000000D01*
X100280000Y-74980000D01*
X98842500Y-74980000D01*
X98680000Y-75142500D01*
X98680000Y-76059293D01*
X98725857Y-76170000D01*
X97790000Y-76170000D01*
X97292512Y-76268957D01*
X96870761Y-76550761D01*
X96870759Y-76550764D01*
X94330761Y-79090761D01*
X94048957Y-79512511D01*
X94048957Y-79512512D01*
X93950000Y-80010000D01*
X93950000Y-81021771D01*
X93555471Y-81415612D01*
X93250348Y-82150430D01*
X93249654Y-82946079D01*
X93553494Y-83681429D01*
X94115612Y-84244529D01*
X94850430Y-84549652D01*
X95646079Y-84550346D01*
X96381429Y-84246506D01*
X96944529Y-83684388D01*
X97249652Y-82949570D01*
X97250346Y-82153921D01*
X96946506Y-81418571D01*
X96550000Y-81021372D01*
X96550000Y-80548478D01*
X98328477Y-78770000D01*
X100366522Y-78770000D01*
X99410761Y-79725761D01*
X99128957Y-80147511D01*
X99128957Y-80147512D01*
X99030000Y-80645000D01*
X99030000Y-81021771D01*
X98635471Y-81415612D01*
X98330348Y-82150430D01*
X98329654Y-82946079D01*
X98633494Y-83681429D01*
X99195612Y-84244529D01*
X99930430Y-84549652D01*
X100726079Y-84550346D01*
X101461429Y-84246506D01*
X102024529Y-83684388D01*
X102329652Y-82949570D01*
X102330346Y-82153921D01*
X102026506Y-81418571D01*
X101710982Y-81102496D01*
X110139239Y-72674239D01*
X110187173Y-72602500D01*
X121540000Y-72602500D01*
X121540000Y-73519293D01*
X121638957Y-73758195D01*
X121821805Y-73941043D01*
X122060707Y-74040000D01*
X122977500Y-74040000D01*
X123140000Y-73877500D01*
X123140000Y-72440000D01*
X121702500Y-72440000D01*
X121540000Y-72602500D01*
X110187173Y-72602500D01*
X110421043Y-72252488D01*
X110520001Y-71755000D01*
X110520000Y-71754995D01*
X110520000Y-70062500D01*
X121540000Y-70062500D01*
X121540000Y-70979293D01*
X121598283Y-71120000D01*
X121540000Y-71260707D01*
X121540000Y-72177500D01*
X121702500Y-72340000D01*
X123140000Y-72340000D01*
X123140000Y-69900000D01*
X121702500Y-69900000D01*
X121540000Y-70062500D01*
X110520000Y-70062500D01*
X110520000Y-68720707D01*
X121540000Y-68720707D01*
X121540000Y-69637500D01*
X121702500Y-69800000D01*
X123140000Y-69800000D01*
X123140000Y-68362500D01*
X122977500Y-68200000D01*
X122060707Y-68200000D01*
X121821805Y-68298957D01*
X121638957Y-68481805D01*
X121540000Y-68720707D01*
X110520000Y-68720707D01*
X110520000Y-49742500D01*
X121540000Y-49742500D01*
X121540000Y-50659293D01*
X121638957Y-50898195D01*
X121821805Y-51081043D01*
X122060707Y-51180000D01*
X122977500Y-51180000D01*
X123140000Y-51017500D01*
X123140000Y-49580000D01*
X121702500Y-49580000D01*
X121540000Y-49742500D01*
X110520000Y-49742500D01*
X110520000Y-47202500D01*
X121540000Y-47202500D01*
X121540000Y-48119293D01*
X121598283Y-48260000D01*
X121540000Y-48400707D01*
X121540000Y-49317500D01*
X121702500Y-49480000D01*
X123140000Y-49480000D01*
X123140000Y-47040000D01*
X121702500Y-47040000D01*
X121540000Y-47202500D01*
X110520000Y-47202500D01*
X110520000Y-45860707D01*
X121540000Y-45860707D01*
X121540000Y-46777500D01*
X121702500Y-46940000D01*
X123140000Y-46940000D01*
X123140000Y-45502500D01*
X122977500Y-45340000D01*
X122060707Y-45340000D01*
X121821805Y-45438957D01*
X121638957Y-45621805D01*
X121540000Y-45860707D01*
X110520000Y-45860707D01*
X110520000Y-26882500D01*
X121540000Y-26882500D01*
X121540000Y-27799293D01*
X121638957Y-28038195D01*
X121821805Y-28221043D01*
X122060707Y-28320000D01*
X122977500Y-28320000D01*
X123140000Y-28157500D01*
X123140000Y-26720000D01*
X121702500Y-26720000D01*
X121540000Y-26882500D01*
X110520000Y-26882500D01*
X110520000Y-24342500D01*
X121540000Y-24342500D01*
X121540000Y-25259293D01*
X121598283Y-25400000D01*
X121540000Y-25540707D01*
X121540000Y-26457500D01*
X121702500Y-26620000D01*
X123140000Y-26620000D01*
X123140000Y-24180000D01*
X121702500Y-24180000D01*
X121540000Y-24342500D01*
X110520000Y-24342500D01*
X110520000Y-23000707D01*
X121540000Y-23000707D01*
X121540000Y-23917500D01*
X121702500Y-24080000D01*
X123140000Y-24080000D01*
X123140000Y-22642500D01*
X122977500Y-22480000D01*
X122060707Y-22480000D01*
X121821805Y-22578957D01*
X121638957Y-22761805D01*
X121540000Y-23000707D01*
X110520000Y-23000707D01*
X110520000Y-8890000D01*
X110421043Y-8392512D01*
X110421043Y-8392511D01*
X110139239Y-7970761D01*
X108730978Y-6562500D01*
X113920000Y-6562500D01*
X113920000Y-7479293D01*
X114018957Y-7718195D01*
X114201805Y-7901043D01*
X114440707Y-8000000D01*
X115357500Y-8000000D01*
X115520000Y-7837500D01*
X115520000Y-6400000D01*
X114082500Y-6400000D01*
X113920000Y-6562500D01*
X108730978Y-6562500D01*
X107389185Y-5220707D01*
X113920000Y-5220707D01*
X113920000Y-6137500D01*
X114082500Y-6300000D01*
X115520000Y-6300000D01*
X115520000Y-4862500D01*
X115357500Y-4700000D01*
X114440707Y-4700000D01*
X114201805Y-4798957D01*
X114018957Y-4981805D01*
X113920000Y-5220707D01*
X107389185Y-5220707D01*
X103789239Y-1620761D01*
X103367489Y-1338957D01*
X102870000Y-1240000D01*
X58420000Y-1240000D01*
X57922511Y-1338957D01*
X57500761Y-1620761D01*
X51150761Y-7970761D01*
X50868957Y-8392511D01*
X50868957Y-8392512D01*
X50770000Y-8890000D01*
X50770000Y-75661522D01*
X50261522Y-76170000D01*
X47344742Y-76170000D01*
X47348578Y-76167437D01*
X47727930Y-75599696D01*
X47861141Y-74930000D01*
X47727930Y-74260304D01*
X47348578Y-73692563D01*
X47299844Y-73660000D01*
X47348578Y-73627437D01*
X47727930Y-73059696D01*
X47861141Y-72390000D01*
X47727930Y-71720304D01*
X47348578Y-71152563D01*
X47299844Y-71120000D01*
X47348578Y-71087437D01*
X47727930Y-70519696D01*
X47861141Y-69850000D01*
X47727930Y-69180304D01*
X47348578Y-68612563D01*
X47299844Y-68580000D01*
X47348578Y-68547437D01*
X47727930Y-67979696D01*
X47861141Y-67310000D01*
X47727930Y-66640304D01*
X47348578Y-66072563D01*
X47299844Y-66040000D01*
X47348578Y-66007437D01*
X47727930Y-65439696D01*
X47861141Y-64770000D01*
X47727930Y-64100304D01*
X47348578Y-63532563D01*
X47299844Y-63500000D01*
X47348578Y-63467437D01*
X47727930Y-62899696D01*
X47861141Y-62230000D01*
X47727930Y-61560304D01*
X47348578Y-60992563D01*
X47299844Y-60960000D01*
X47348578Y-60927437D01*
X47727930Y-60359696D01*
X47861141Y-59690000D01*
X47727930Y-59020304D01*
X47348578Y-58452563D01*
X47299844Y-58420000D01*
X47348578Y-58387437D01*
X47727930Y-57819696D01*
X47861141Y-57150000D01*
X47727930Y-56480304D01*
X47348578Y-55912563D01*
X47299844Y-55880000D01*
X47348578Y-55847437D01*
X47727930Y-55279696D01*
X47861141Y-54610000D01*
X47727930Y-53940304D01*
X47348578Y-53372563D01*
X47299844Y-53340000D01*
X47348578Y-53307437D01*
X47727930Y-52739696D01*
X47861141Y-52070000D01*
X47727930Y-51400304D01*
X47348578Y-50832563D01*
X47299844Y-50800000D01*
X47348578Y-50767437D01*
X47727930Y-50199696D01*
X47861141Y-49530000D01*
X47727930Y-48860304D01*
X47348578Y-48292563D01*
X47299844Y-48260000D01*
X47348578Y-48227437D01*
X47727930Y-47659696D01*
X47861141Y-46990000D01*
X47727930Y-46320304D01*
X47348578Y-45752563D01*
X47299844Y-45720000D01*
X47348578Y-45687437D01*
X47727930Y-45119696D01*
X47861141Y-44450000D01*
X47727930Y-43780304D01*
X47348578Y-43212563D01*
X47299844Y-43180000D01*
X47348578Y-43147437D01*
X47727930Y-42579696D01*
X47861141Y-41910000D01*
X47727930Y-41240304D01*
X47348578Y-40672563D01*
X47299844Y-40640000D01*
X47348578Y-40607437D01*
X47727930Y-40039696D01*
X47861141Y-39370000D01*
X47727930Y-38700304D01*
X47348578Y-38132563D01*
X47299844Y-38100000D01*
X47348578Y-38067437D01*
X47727930Y-37499696D01*
X47861141Y-36830000D01*
X47727930Y-36160304D01*
X47348578Y-35592563D01*
X47299844Y-35560000D01*
X47348578Y-35527437D01*
X47727930Y-34959696D01*
X47861141Y-34290000D01*
X47727930Y-33620304D01*
X47348578Y-33052563D01*
X47299844Y-33020000D01*
X47348578Y-32987437D01*
X47727930Y-32419696D01*
X47861141Y-31750000D01*
X47727930Y-31080304D01*
X47348578Y-30512563D01*
X47299844Y-30480000D01*
X47348578Y-30447437D01*
X47727930Y-29879696D01*
X47861141Y-29210000D01*
X47727930Y-28540304D01*
X47348578Y-27972563D01*
X47299844Y-27940000D01*
X47348578Y-27907437D01*
X47727930Y-27339696D01*
X47861141Y-26670000D01*
X47727930Y-26000304D01*
X47348578Y-25432563D01*
X47299844Y-25400000D01*
X47348578Y-25367437D01*
X47727930Y-24799696D01*
X47861141Y-24130000D01*
X47727930Y-23460304D01*
X47348578Y-22892563D01*
X47299844Y-22860000D01*
X47348578Y-22827437D01*
X47727930Y-22259696D01*
X47861141Y-21590000D01*
X47727930Y-20920304D01*
X47348578Y-20352563D01*
X47299844Y-20320000D01*
X47348578Y-20287437D01*
X47727930Y-19719696D01*
X47861141Y-19050000D01*
X47727930Y-18380304D01*
X47348578Y-17812563D01*
X46966650Y-17557367D01*
X47095305Y-17464594D01*
X47382566Y-16999563D01*
X47444060Y-16778253D01*
X47306489Y-16560000D01*
X45770000Y-16560000D01*
X45770000Y-16580000D01*
X45670000Y-16580000D01*
X45670000Y-16560000D01*
X44133511Y-16560000D01*
X43995940Y-16778253D01*
X44057434Y-16999563D01*
X44344695Y-17464594D01*
X44473350Y-17557367D01*
X44091422Y-17812563D01*
X43712070Y-18380304D01*
X43578859Y-19050000D01*
X43712070Y-19719696D01*
X44091422Y-20287437D01*
X44140156Y-20320000D01*
X44091422Y-20352563D01*
X43712070Y-20920304D01*
X43578859Y-21590000D01*
X43712070Y-22259696D01*
X44091422Y-22827437D01*
X44095258Y-22830000D01*
X43815000Y-22830000D01*
X43317512Y-22928957D01*
X42895761Y-23210761D01*
X35910761Y-30195761D01*
X35628957Y-30617511D01*
X35628957Y-30617512D01*
X35530000Y-31115000D01*
X35530000Y-45720757D01*
X35329353Y-45577121D01*
X34740000Y-45440000D01*
X34340000Y-45440000D01*
X34340000Y-46940000D01*
X34360000Y-46940000D01*
X34360000Y-47040000D01*
X34340000Y-47040000D01*
X34340000Y-47060000D01*
X34240000Y-47060000D01*
X34240000Y-47040000D01*
X32503401Y-47040000D01*
X32367702Y-47281732D01*
X32438852Y-47536965D01*
X32742796Y-48025226D01*
X32501437Y-48186497D01*
X32472369Y-48230000D01*
X31750000Y-48230000D01*
X31252511Y-48328957D01*
X30830761Y-48610761D01*
X21880761Y-57560761D01*
X21598957Y-57982511D01*
X21525651Y-58351043D01*
X21500000Y-58480000D01*
X21500000Y-78186858D01*
X21429422Y-78200138D01*
X21089069Y-78419149D01*
X20860738Y-78753322D01*
X20780409Y-79150000D01*
X20780409Y-80850000D01*
X20850138Y-81220578D01*
X21069149Y-81560931D01*
X21403322Y-81789262D01*
X21800000Y-81869591D01*
X23500000Y-81869591D01*
X23500000Y-93380000D01*
X23598957Y-93877489D01*
X23880761Y-94299239D01*
X30106522Y-100525000D01*
X1075000Y-100525000D01*
X1075000Y-91776694D01*
X1168667Y-92003386D01*
X1871315Y-92707261D01*
X2789838Y-93088665D01*
X3784399Y-93089533D01*
X4703586Y-92709733D01*
X5407461Y-92007085D01*
X5788865Y-91088562D01*
X5789733Y-90094001D01*
X5409933Y-89174814D01*
X4707285Y-88470939D01*
X3788762Y-88089535D01*
X2794201Y-88088667D01*
X1875014Y-88468467D01*
X1171139Y-89171115D01*
X1075000Y-89402643D01*
X1075000Y-46698268D01*
X32367702Y-46698268D01*
X32503401Y-46940000D01*
X34240000Y-46940000D01*
X34240000Y-45440000D01*
X33840000Y-45440000D01*
X33250647Y-45577121D01*
X32758629Y-45929340D01*
X32438852Y-46443035D01*
X32367702Y-46698268D01*
X1075000Y-46698268D01*
X1075000Y-16778114D01*
X1168667Y-17004806D01*
X1871315Y-17708681D01*
X2789838Y-18090085D01*
X3784399Y-18090953D01*
X4703586Y-17711153D01*
X5407461Y-17008505D01*
X5788865Y-16089982D01*
X5788869Y-16085099D01*
X31789567Y-16085099D01*
X32169367Y-17004286D01*
X32872015Y-17708161D01*
X33790538Y-18089565D01*
X34785099Y-18090433D01*
X35704286Y-17710633D01*
X36408161Y-17007985D01*
X36789565Y-16089462D01*
X36790433Y-15094901D01*
X36410633Y-14175714D01*
X36205278Y-13970000D01*
X43578859Y-13970000D01*
X43712070Y-14639696D01*
X44091422Y-15207437D01*
X44473350Y-15462633D01*
X44344695Y-15555406D01*
X44057434Y-16020437D01*
X43995940Y-16241747D01*
X44133511Y-16460000D01*
X45670000Y-16460000D01*
X45670000Y-16440000D01*
X45770000Y-16440000D01*
X45770000Y-16460000D01*
X47306489Y-16460000D01*
X47444060Y-16241747D01*
X47382566Y-16020437D01*
X47095305Y-15555406D01*
X46966650Y-15462633D01*
X47348578Y-15207437D01*
X47727930Y-14639696D01*
X47861141Y-13970000D01*
X47727930Y-13300304D01*
X47348578Y-12732563D01*
X46780837Y-12353211D01*
X46111141Y-12220000D01*
X45328859Y-12220000D01*
X44659163Y-12353211D01*
X44091422Y-12732563D01*
X43712070Y-13300304D01*
X43578859Y-13970000D01*
X36205278Y-13970000D01*
X35707985Y-13471839D01*
X34789462Y-13090435D01*
X33794901Y-13089567D01*
X32875714Y-13469367D01*
X32171839Y-14172015D01*
X31790435Y-15090538D01*
X31789567Y-16085099D01*
X5788869Y-16085099D01*
X5789733Y-15095421D01*
X5409933Y-14176234D01*
X4707285Y-13472359D01*
X3788762Y-13090955D01*
X2794201Y-13090087D01*
X1875014Y-13469887D01*
X1171139Y-14172535D01*
X1075000Y-14404063D01*
X1075000Y-1075000D01*
X118897838Y-1075000D01*
X118888000Y-1200000D01*
X118888000Y-1200000D01*
G37*
X118888000Y-1200000D02*
X118888000Y-4887875D01*
X118453939Y-4703208D01*
X117797559Y-4696943D01*
X117188745Y-4942341D01*
X117162042Y-4960182D01*
X117140124Y-5027871D01*
X117121043Y-4981805D01*
X116938195Y-4798957D01*
X116699293Y-4700000D01*
X115782500Y-4700000D01*
X115620000Y-4862500D01*
X115620000Y-6300000D01*
X115640000Y-6300000D01*
X115640000Y-6400000D01*
X115620000Y-6400000D01*
X115620000Y-7837500D01*
X115782500Y-8000000D01*
X116699293Y-8000000D01*
X116938195Y-7901043D01*
X117121043Y-7718195D01*
X117140124Y-7672129D01*
X117162042Y-7739818D01*
X117766061Y-7996792D01*
X118422441Y-8003057D01*
X118888000Y-7815402D01*
X118888000Y-20701000D01*
X118907215Y-20896090D01*
X118945884Y-21090493D01*
X119095201Y-21450975D01*
X119205322Y-21615782D01*
X119481218Y-21891678D01*
X119646025Y-22001799D01*
X120006507Y-22151116D01*
X120200910Y-22189785D01*
X120396000Y-22209000D01*
X123415509Y-22209000D01*
X123583038Y-22242324D01*
X123641568Y-22281432D01*
X123680676Y-22339962D01*
X123708532Y-22480000D01*
X123402500Y-22480000D01*
X123240000Y-22642500D01*
X123240000Y-24080000D01*
X123260000Y-24080000D01*
X123260000Y-24180000D01*
X123240000Y-24180000D01*
X123240000Y-26620000D01*
X123260000Y-26620000D01*
X123260000Y-26720000D01*
X123240000Y-26720000D01*
X123240000Y-28157500D01*
X123402500Y-28320000D01*
X123714000Y-28320000D01*
X123714000Y-35531509D01*
X123680676Y-35699038D01*
X123641568Y-35757568D01*
X123583038Y-35796676D01*
X123415509Y-35830000D01*
X121850000Y-35830000D01*
X121654909Y-35849215D01*
X121195689Y-35940560D01*
X120835210Y-36089875D01*
X120445902Y-36350002D01*
X120170002Y-36625902D01*
X119909875Y-37015210D01*
X119760560Y-37375689D01*
X119669215Y-37834909D01*
X119650000Y-38030000D01*
X119650000Y-42869000D01*
X119669215Y-43064091D01*
X119760560Y-43523311D01*
X119909875Y-43883790D01*
X120170002Y-44273098D01*
X120445902Y-44548998D01*
X120835210Y-44809125D01*
X121195689Y-44958440D01*
X121654909Y-45049785D01*
X121850000Y-45069000D01*
X123415509Y-45069000D01*
X123583038Y-45102324D01*
X123641568Y-45141432D01*
X123680676Y-45199962D01*
X123708532Y-45340000D01*
X123402500Y-45340000D01*
X123240000Y-45502500D01*
X123240000Y-46940000D01*
X123260000Y-46940000D01*
X123260000Y-47040000D01*
X123240000Y-47040000D01*
X123240000Y-49480000D01*
X123260000Y-49480000D01*
X123260000Y-49580000D01*
X123240000Y-49580000D01*
X123240000Y-51017500D01*
X123402500Y-51180000D01*
X123714000Y-51180000D01*
X123714000Y-58391509D01*
X123680676Y-58559038D01*
X123641568Y-58617568D01*
X123583038Y-58656676D01*
X123415509Y-58690000D01*
X121850000Y-58690000D01*
X121654909Y-58709215D01*
X121195689Y-58800560D01*
X120835210Y-58949875D01*
X120445902Y-59210002D01*
X120170002Y-59485902D01*
X119909875Y-59875210D01*
X119760560Y-60235689D01*
X119669215Y-60694909D01*
X119650000Y-60890000D01*
X119650000Y-65729000D01*
X119669215Y-65924091D01*
X119760560Y-66383311D01*
X119909875Y-66743790D01*
X120170002Y-67133098D01*
X120445902Y-67408998D01*
X120835210Y-67669125D01*
X121195689Y-67818440D01*
X121654909Y-67909785D01*
X121850000Y-67929000D01*
X123415509Y-67929000D01*
X123583038Y-67962324D01*
X123641568Y-68001432D01*
X123680676Y-68059962D01*
X123708532Y-68200000D01*
X123402500Y-68200000D01*
X123240000Y-68362500D01*
X123240000Y-69800000D01*
X123260000Y-69800000D01*
X123260000Y-69900000D01*
X123240000Y-69900000D01*
X123240000Y-72340000D01*
X123260000Y-72340000D01*
X123260000Y-72440000D01*
X123240000Y-72440000D01*
X123240000Y-73877500D01*
X123402500Y-74040000D01*
X123714000Y-74040000D01*
X123714000Y-81251509D01*
X123680676Y-81419038D01*
X123641568Y-81477568D01*
X123583038Y-81516676D01*
X123415509Y-81550000D01*
X121850000Y-81550000D01*
X121654909Y-81569215D01*
X121195689Y-81660560D01*
X120835210Y-81809875D01*
X120445902Y-82070002D01*
X120170002Y-82345902D01*
X119909875Y-82735210D01*
X119760560Y-83095689D01*
X119669215Y-83554909D01*
X119650000Y-83750000D01*
X119650000Y-88589000D01*
X119669215Y-88784091D01*
X119760560Y-89243311D01*
X119909875Y-89603790D01*
X120170002Y-89993098D01*
X120445902Y-90268998D01*
X120835210Y-90529125D01*
X121195689Y-90678440D01*
X121654909Y-90769785D01*
X121850000Y-90789000D01*
X125800000Y-90789000D01*
X125925000Y-90776688D01*
X125925000Y-100525000D01*
X66413478Y-100525000D01*
X71420225Y-95518253D01*
X82095940Y-95518253D01*
X82157434Y-95739563D01*
X82444695Y-96204594D01*
X82888049Y-96524297D01*
X83420000Y-96650000D01*
X83770000Y-96650000D01*
X83770000Y-95300000D01*
X83870000Y-95300000D01*
X83870000Y-96650000D01*
X84220000Y-96650000D01*
X84751951Y-96524297D01*
X85195305Y-96204594D01*
X85482566Y-95739563D01*
X85544060Y-95518253D01*
X85406489Y-95300000D01*
X83870000Y-95300000D01*
X83770000Y-95300000D01*
X82233511Y-95300000D01*
X82095940Y-95518253D01*
X71420225Y-95518253D01*
X80548478Y-86390000D01*
X82195258Y-86390000D01*
X82191422Y-86392563D01*
X81812070Y-86960304D01*
X81678859Y-87630000D01*
X81812070Y-88299696D01*
X82191422Y-88867437D01*
X82240156Y-88900000D01*
X82191422Y-88932563D01*
X81812070Y-89500304D01*
X81678859Y-90170000D01*
X81812070Y-90839696D01*
X82191422Y-91407437D01*
X82240156Y-91440000D01*
X82191422Y-91472563D01*
X81812070Y-92040304D01*
X81678859Y-92710000D01*
X81812070Y-93379696D01*
X82191422Y-93947437D01*
X82573350Y-94202633D01*
X82444695Y-94295406D01*
X82157434Y-94760437D01*
X82095940Y-94981747D01*
X82233511Y-95200000D01*
X83770000Y-95200000D01*
X83770000Y-95180000D01*
X83870000Y-95180000D01*
X83870000Y-95200000D01*
X85406489Y-95200000D01*
X85544060Y-94981747D01*
X85482566Y-94760437D01*
X85195305Y-94295406D01*
X85066650Y-94202633D01*
X85448578Y-93947437D01*
X85827930Y-93379696D01*
X85961141Y-92710000D01*
X85827930Y-92040304D01*
X85448578Y-91472563D01*
X85399844Y-91440000D01*
X85448578Y-91407437D01*
X85827930Y-90839696D01*
X85961141Y-90170000D01*
X85827930Y-89500304D01*
X85448578Y-88932563D01*
X85399844Y-88900000D01*
X85448578Y-88867437D01*
X85827930Y-88299696D01*
X85961141Y-87630000D01*
X85827930Y-86960304D01*
X85448578Y-86392563D01*
X85399844Y-86360000D01*
X85448578Y-86327437D01*
X85827930Y-85759696D01*
X85961141Y-85090000D01*
X85827930Y-84420304D01*
X85448578Y-83852563D01*
X85399844Y-83820000D01*
X85448578Y-83787437D01*
X85827930Y-83219696D01*
X85961141Y-82550000D01*
X85827930Y-81880304D01*
X85448578Y-81312563D01*
X85399844Y-81280000D01*
X85448578Y-81247437D01*
X85827930Y-80679696D01*
X85961141Y-80010000D01*
X85827930Y-79340304D01*
X85448578Y-78772563D01*
X85399844Y-78740000D01*
X85448578Y-78707437D01*
X85827930Y-78139696D01*
X85961141Y-77470000D01*
X85827930Y-76800304D01*
X85448578Y-76232563D01*
X85399844Y-76200000D01*
X85448578Y-76167437D01*
X85827930Y-75599696D01*
X85961141Y-74930000D01*
X85827930Y-74260304D01*
X85448578Y-73692563D01*
X85399844Y-73660000D01*
X85448578Y-73627437D01*
X85827930Y-73059696D01*
X85961141Y-72390000D01*
X85827930Y-71720304D01*
X85448578Y-71152563D01*
X85399844Y-71120000D01*
X85448578Y-71087437D01*
X85827930Y-70519696D01*
X85961141Y-69850000D01*
X85827930Y-69180304D01*
X85448578Y-68612563D01*
X85399844Y-68580000D01*
X85448578Y-68547437D01*
X85827930Y-67979696D01*
X85961141Y-67310000D01*
X85827930Y-66640304D01*
X85448578Y-66072563D01*
X85399844Y-66040000D01*
X85448578Y-66007437D01*
X85827930Y-65439696D01*
X85961141Y-64770000D01*
X85827930Y-64100304D01*
X85448578Y-63532563D01*
X85399844Y-63500000D01*
X85448578Y-63467437D01*
X85827930Y-62899696D01*
X85961141Y-62230000D01*
X85827930Y-61560304D01*
X85448578Y-60992563D01*
X85399844Y-60960000D01*
X85448578Y-60927437D01*
X85827930Y-60359696D01*
X85961141Y-59690000D01*
X85827930Y-59020304D01*
X85448578Y-58452563D01*
X85399844Y-58420000D01*
X85448578Y-58387437D01*
X85827930Y-57819696D01*
X85961141Y-57150000D01*
X85827930Y-56480304D01*
X85448578Y-55912563D01*
X85399844Y-55880000D01*
X85448578Y-55847437D01*
X85827930Y-55279696D01*
X85961141Y-54610000D01*
X85827930Y-53940304D01*
X85448578Y-53372563D01*
X85399844Y-53340000D01*
X85448578Y-53307437D01*
X85827930Y-52739696D01*
X85961141Y-52070000D01*
X85827930Y-51400304D01*
X85448578Y-50832563D01*
X85399844Y-50800000D01*
X85448578Y-50767437D01*
X85827930Y-50199696D01*
X85961141Y-49530000D01*
X85827930Y-48860304D01*
X85448578Y-48292563D01*
X85444742Y-48290000D01*
X87091522Y-48290000D01*
X88870000Y-50068477D01*
X88870000Y-92710000D01*
X88968957Y-93207489D01*
X89250761Y-93629239D01*
X93250140Y-97628618D01*
X93249654Y-98186079D01*
X93553494Y-98921429D01*
X94115612Y-99484529D01*
X94850430Y-99789652D01*
X95646079Y-99790346D01*
X96381429Y-99486506D01*
X96944529Y-98924388D01*
X97249652Y-98189570D01*
X97249815Y-98002500D01*
X98680000Y-98002500D01*
X98680000Y-98919293D01*
X98778957Y-99158195D01*
X98961805Y-99341043D01*
X99200707Y-99440000D01*
X100117500Y-99440000D01*
X100280000Y-99277500D01*
X100280000Y-97840000D01*
X100380000Y-97840000D01*
X100380000Y-99277500D01*
X100542500Y-99440000D01*
X101459293Y-99440000D01*
X101698195Y-99341043D01*
X101881043Y-99158195D01*
X101980000Y-98919293D01*
X101980000Y-98002500D01*
X101817500Y-97840000D01*
X100380000Y-97840000D01*
X100280000Y-97840000D01*
X98842500Y-97840000D01*
X98680000Y-98002500D01*
X97249815Y-98002500D01*
X97250346Y-97393921D01*
X96947389Y-96660707D01*
X98680000Y-96660707D01*
X98680000Y-97577500D01*
X98842500Y-97740000D01*
X100280000Y-97740000D01*
X100280000Y-96302500D01*
X100380000Y-96302500D01*
X100380000Y-97740000D01*
X101817500Y-97740000D01*
X101980000Y-97577500D01*
X101980000Y-96660707D01*
X101881043Y-96421805D01*
X101698195Y-96238957D01*
X101459293Y-96140000D01*
X100542500Y-96140000D01*
X100380000Y-96302500D01*
X100280000Y-96302500D01*
X100117500Y-96140000D01*
X99200707Y-96140000D01*
X98961805Y-96238957D01*
X98778957Y-96421805D01*
X98680000Y-96660707D01*
X96947389Y-96660707D01*
X96946506Y-96658571D01*
X96384388Y-96095471D01*
X95649570Y-95790348D01*
X95088336Y-95789858D01*
X94760978Y-95462500D01*
X121540000Y-95462500D01*
X121540000Y-96379293D01*
X121638957Y-96618195D01*
X121821805Y-96801043D01*
X122060707Y-96900000D01*
X122977500Y-96900000D01*
X123140000Y-96737500D01*
X123140000Y-95300000D01*
X123240000Y-95300000D01*
X123240000Y-96737500D01*
X123402500Y-96900000D01*
X124319293Y-96900000D01*
X124558195Y-96801043D01*
X124741043Y-96618195D01*
X124840000Y-96379293D01*
X124840000Y-95462500D01*
X124677500Y-95300000D01*
X123240000Y-95300000D01*
X123140000Y-95300000D01*
X121702500Y-95300000D01*
X121540000Y-95462500D01*
X94760978Y-95462500D01*
X92220978Y-92922500D01*
X121540000Y-92922500D01*
X121540000Y-93839293D01*
X121598283Y-93980000D01*
X121540000Y-94120707D01*
X121540000Y-95037500D01*
X121702500Y-95200000D01*
X123140000Y-95200000D01*
X123140000Y-92760000D01*
X123240000Y-92760000D01*
X123240000Y-95200000D01*
X124677500Y-95200000D01*
X124840000Y-95037500D01*
X124840000Y-94120707D01*
X124781717Y-93980000D01*
X124840000Y-93839293D01*
X124840000Y-92922500D01*
X124677500Y-92760000D01*
X123240000Y-92760000D01*
X123140000Y-92760000D01*
X121702500Y-92760000D01*
X121540000Y-92922500D01*
X92220978Y-92922500D01*
X91470000Y-92171522D01*
X91470000Y-91580707D01*
X121540000Y-91580707D01*
X121540000Y-92497500D01*
X121702500Y-92660000D01*
X123140000Y-92660000D01*
X123140000Y-91222500D01*
X123240000Y-91222500D01*
X123240000Y-92660000D01*
X124677500Y-92660000D01*
X124840000Y-92497500D01*
X124840000Y-91580707D01*
X124741043Y-91341805D01*
X124558195Y-91158957D01*
X124319293Y-91060000D01*
X123402500Y-91060000D01*
X123240000Y-91222500D01*
X123140000Y-91222500D01*
X122977500Y-91060000D01*
X122060707Y-91060000D01*
X121821805Y-91158957D01*
X121638957Y-91341805D01*
X121540000Y-91580707D01*
X91470000Y-91580707D01*
X91470000Y-72988478D01*
X93250140Y-74768618D01*
X93249654Y-75326079D01*
X93553494Y-76061429D01*
X94115612Y-76624529D01*
X94850430Y-76929652D01*
X95646079Y-76930346D01*
X96381429Y-76626506D01*
X96944529Y-76064388D01*
X97249652Y-75329570D01*
X97250346Y-74533921D01*
X96947389Y-73800707D01*
X98680000Y-73800707D01*
X98680000Y-74717500D01*
X98842500Y-74880000D01*
X100280000Y-74880000D01*
X100280000Y-73442500D01*
X100117500Y-73280000D01*
X99200707Y-73280000D01*
X98961805Y-73378957D01*
X98778957Y-73561805D01*
X98680000Y-73800707D01*
X96947389Y-73800707D01*
X96946506Y-73798571D01*
X96384388Y-73235471D01*
X95649570Y-72930348D01*
X95088336Y-72929858D01*
X92740000Y-70581522D01*
X92740000Y-48858478D01*
X93950000Y-50068478D01*
X93950000Y-50541771D01*
X93555471Y-50935612D01*
X93250348Y-51670430D01*
X93249654Y-52466079D01*
X93553494Y-53201429D01*
X94115612Y-53764529D01*
X94850430Y-54069652D01*
X95646079Y-54070346D01*
X96381429Y-53766506D01*
X96944529Y-53204388D01*
X97249652Y-52469570D01*
X97250346Y-51673921D01*
X96947389Y-50940707D01*
X98680000Y-50940707D01*
X98680000Y-51857500D01*
X98842500Y-52020000D01*
X100280000Y-52020000D01*
X100280000Y-50582500D01*
X100117500Y-50420000D01*
X99200707Y-50420000D01*
X98961805Y-50518957D01*
X98778957Y-50701805D01*
X98680000Y-50940707D01*
X96947389Y-50940707D01*
X96946506Y-50938571D01*
X96550000Y-50541372D01*
X96550000Y-49530000D01*
X96451043Y-49032512D01*
X96451043Y-49032511D01*
X96169239Y-48610761D01*
X88549239Y-40990761D01*
X88127489Y-40708957D01*
X87630000Y-40610000D01*
X86026639Y-40610000D01*
X86222489Y-40571043D01*
X86644239Y-40289239D01*
X95777387Y-31156091D01*
X96381429Y-30906506D01*
X96944529Y-30344388D01*
X97249652Y-29609570D01*
X97249815Y-29422500D01*
X98680000Y-29422500D01*
X98680000Y-30339293D01*
X98778957Y-30578195D01*
X98961805Y-30761043D01*
X99200707Y-30860000D01*
X100117500Y-30860000D01*
X100280000Y-30697500D01*
X100280000Y-29260000D01*
X98842500Y-29260000D01*
X98680000Y-29422500D01*
X97249815Y-29422500D01*
X97250346Y-28813921D01*
X96947389Y-28080707D01*
X98680000Y-28080707D01*
X98680000Y-28997500D01*
X98842500Y-29160000D01*
X100280000Y-29160000D01*
X100280000Y-27722500D01*
X100117500Y-27560000D01*
X99200707Y-27560000D01*
X98961805Y-27658957D01*
X98778957Y-27841805D01*
X98680000Y-28080707D01*
X96947389Y-28080707D01*
X96946506Y-28078571D01*
X96384388Y-27515471D01*
X95649570Y-27210348D01*
X94853921Y-27209654D01*
X94118571Y-27513494D01*
X93555471Y-28075612D01*
X93250348Y-28810430D01*
X93249654Y-29606079D01*
X93366837Y-29889685D01*
X85845585Y-37410937D01*
X85961141Y-36830000D01*
X85827930Y-36160304D01*
X85448578Y-35592563D01*
X85066650Y-35337367D01*
X85195305Y-35244594D01*
X85482566Y-34779563D01*
X85544060Y-34558253D01*
X85406489Y-34340000D01*
X83870000Y-34340000D01*
X83870000Y-34360000D01*
X83770000Y-34360000D01*
X83770000Y-34340000D01*
X82233511Y-34340000D01*
X82095940Y-34558253D01*
X82157434Y-34779563D01*
X82444695Y-35244594D01*
X82573350Y-35337367D01*
X82191422Y-35592563D01*
X81812070Y-36160304D01*
X81678859Y-36830000D01*
X81812070Y-37499696D01*
X82191422Y-38067437D01*
X82240156Y-38100000D01*
X82191422Y-38132563D01*
X81812070Y-38700304D01*
X81678859Y-39370000D01*
X81812070Y-40039696D01*
X82191422Y-40607437D01*
X82240156Y-40640000D01*
X82191422Y-40672563D01*
X81812070Y-41240304D01*
X81678859Y-41910000D01*
X81812070Y-42579696D01*
X82191422Y-43147437D01*
X82240156Y-43180000D01*
X82191422Y-43212563D01*
X81812070Y-43780304D01*
X81678859Y-44450000D01*
X81812070Y-45119696D01*
X82191422Y-45687437D01*
X82240156Y-45720000D01*
X82191422Y-45752563D01*
X81812070Y-46320304D01*
X81678859Y-46990000D01*
X81812070Y-47659696D01*
X82191422Y-48227437D01*
X82195258Y-48230000D01*
X81818478Y-48230000D01*
X81310000Y-47721522D01*
X81310000Y-19050000D01*
X81678859Y-19050000D01*
X81812070Y-19719696D01*
X82191422Y-20287437D01*
X82240156Y-20320000D01*
X82191422Y-20352563D01*
X81812070Y-20920304D01*
X81678859Y-21590000D01*
X81812070Y-22259696D01*
X82191422Y-22827437D01*
X82240156Y-22860000D01*
X82191422Y-22892563D01*
X81812070Y-23460304D01*
X81678859Y-24130000D01*
X81812070Y-24799696D01*
X82191422Y-25367437D01*
X82240156Y-25400000D01*
X82191422Y-25432563D01*
X81812070Y-26000304D01*
X81678859Y-26670000D01*
X81812070Y-27339696D01*
X82191422Y-27907437D01*
X82240156Y-27940000D01*
X82191422Y-27972563D01*
X81812070Y-28540304D01*
X81678859Y-29210000D01*
X81812070Y-29879696D01*
X82191422Y-30447437D01*
X82240156Y-30480000D01*
X82191422Y-30512563D01*
X81812070Y-31080304D01*
X81678859Y-31750000D01*
X81812070Y-32419696D01*
X82191422Y-32987437D01*
X82573350Y-33242633D01*
X82444695Y-33335406D01*
X82157434Y-33800437D01*
X82095940Y-34021747D01*
X82233511Y-34240000D01*
X83770000Y-34240000D01*
X83770000Y-34220000D01*
X83870000Y-34220000D01*
X83870000Y-34240000D01*
X85406489Y-34240000D01*
X85544060Y-34021747D01*
X85482566Y-33800437D01*
X85195305Y-33335406D01*
X85066650Y-33242633D01*
X85448578Y-32987437D01*
X85827930Y-32419696D01*
X85961141Y-31750000D01*
X85827930Y-31080304D01*
X85448578Y-30512563D01*
X85399844Y-30480000D01*
X85448578Y-30447437D01*
X85827930Y-29879696D01*
X85961141Y-29210000D01*
X85827930Y-28540304D01*
X85448578Y-27972563D01*
X85399844Y-27940000D01*
X85448578Y-27907437D01*
X85827930Y-27339696D01*
X85961141Y-26670000D01*
X85827930Y-26000304D01*
X85448578Y-25432563D01*
X85399844Y-25400000D01*
X85448578Y-25367437D01*
X85827930Y-24799696D01*
X85961141Y-24130000D01*
X85827930Y-23460304D01*
X85448578Y-22892563D01*
X85399844Y-22860000D01*
X85448578Y-22827437D01*
X85827930Y-22259696D01*
X85961141Y-21590000D01*
X85827930Y-20920304D01*
X85448578Y-20352563D01*
X85399844Y-20320000D01*
X85448578Y-20287437D01*
X85827930Y-19719696D01*
X85961141Y-19050000D01*
X85827930Y-18380304D01*
X85448578Y-17812563D01*
X85066650Y-17557367D01*
X85195305Y-17464594D01*
X85482566Y-16999563D01*
X85544060Y-16778253D01*
X85406489Y-16560000D01*
X83870000Y-16560000D01*
X83870000Y-16580000D01*
X83770000Y-16580000D01*
X83770000Y-16560000D01*
X82233511Y-16560000D01*
X82095940Y-16778253D01*
X82157434Y-16999563D01*
X82444695Y-17464594D01*
X82573350Y-17557367D01*
X82191422Y-17812563D01*
X81812070Y-18380304D01*
X81678859Y-19050000D01*
X81310000Y-19050000D01*
X81310000Y-13238478D01*
X81818478Y-12730000D01*
X81844502Y-12730000D01*
X81780738Y-12823322D01*
X81700409Y-13220000D01*
X81700409Y-14720000D01*
X81770138Y-15090578D01*
X81989149Y-15430931D01*
X82323322Y-15659262D01*
X82374179Y-15669561D01*
X82157434Y-16020437D01*
X82095940Y-16241747D01*
X82233511Y-16460000D01*
X83770000Y-16460000D01*
X83770000Y-16440000D01*
X83870000Y-16440000D01*
X83870000Y-16460000D01*
X85406489Y-16460000D01*
X85544060Y-16241747D01*
X85482566Y-16020437D01*
X85268566Y-15674004D01*
X85290578Y-15669862D01*
X85630931Y-15450851D01*
X85859262Y-15116678D01*
X85939591Y-14720000D01*
X85939591Y-13220000D01*
X85869862Y-12849422D01*
X85793016Y-12730000D01*
X92171522Y-12730000D01*
X93250140Y-13808618D01*
X93249654Y-14366079D01*
X93553494Y-15101429D01*
X94115612Y-15664529D01*
X94850430Y-15969652D01*
X95646079Y-15970346D01*
X95701000Y-15947653D01*
X95701000Y-17661950D01*
X95699957Y-17663511D01*
X95601000Y-18161000D01*
X95699957Y-18658489D01*
X95981761Y-19080239D01*
X101570000Y-24668478D01*
X101570000Y-27605857D01*
X101459293Y-27560000D01*
X100542500Y-27560000D01*
X100380000Y-27722500D01*
X100380000Y-29160000D01*
X100400000Y-29160000D01*
X100400000Y-29260000D01*
X100380000Y-29260000D01*
X100380000Y-30697500D01*
X100542500Y-30860000D01*
X100651522Y-30860000D01*
X100426522Y-31085000D01*
X97790000Y-31085000D01*
X97292512Y-31183957D01*
X96870761Y-31465761D01*
X96870759Y-31465764D01*
X94330761Y-34005761D01*
X94048957Y-34427511D01*
X94048957Y-34427512D01*
X93950000Y-34925000D01*
X93950000Y-35301771D01*
X93555471Y-35695612D01*
X93250348Y-36430430D01*
X93249654Y-37226079D01*
X93553494Y-37961429D01*
X94115612Y-38524529D01*
X94850430Y-38829652D01*
X95646079Y-38830346D01*
X95856658Y-38743337D01*
X95953957Y-39232489D01*
X96235761Y-39654239D01*
X102840000Y-46258478D01*
X102840000Y-50896522D01*
X101980000Y-51756522D01*
X101980000Y-50940707D01*
X101881043Y-50701805D01*
X101698195Y-50518957D01*
X101459293Y-50420000D01*
X100542500Y-50420000D01*
X100380000Y-50582500D01*
X100380000Y-52020000D01*
X100400000Y-52020000D01*
X100400000Y-52120000D01*
X100380000Y-52120000D01*
X100380000Y-52140000D01*
X100280000Y-52140000D01*
X100280000Y-52120000D01*
X98842500Y-52120000D01*
X98680000Y-52282500D01*
X98680000Y-53199293D01*
X98778957Y-53438195D01*
X98961805Y-53621043D01*
X99200707Y-53720000D01*
X100016522Y-53720000D01*
X95929809Y-57806713D01*
X95649570Y-57690348D01*
X94853921Y-57689654D01*
X94118571Y-57993494D01*
X93555471Y-58555612D01*
X93250348Y-59290430D01*
X93249654Y-60086079D01*
X93553494Y-60821429D01*
X94115612Y-61384529D01*
X94850430Y-61689652D01*
X95646079Y-61690346D01*
X96381429Y-61386506D01*
X96542796Y-61225421D01*
X96588957Y-61457489D01*
X96870761Y-61879239D01*
X101570000Y-66578478D01*
X101570000Y-73325857D01*
X101459293Y-73280000D01*
X100542500Y-73280000D01*
X100380000Y-73442500D01*
X100380000Y-74880000D01*
X100400000Y-74880000D01*
X100400000Y-74980000D01*
X100380000Y-74980000D01*
X100380000Y-75000000D01*
X100280000Y-75000000D01*
X100280000Y-74980000D01*
X98842500Y-74980000D01*
X98680000Y-75142500D01*
X98680000Y-76059293D01*
X98725857Y-76170000D01*
X97790000Y-76170000D01*
X97292512Y-76268957D01*
X96870761Y-76550761D01*
X96870759Y-76550764D01*
X94330761Y-79090761D01*
X94048957Y-79512511D01*
X94048957Y-79512512D01*
X93950000Y-80010000D01*
X93950000Y-81021771D01*
X93555471Y-81415612D01*
X93250348Y-82150430D01*
X93249654Y-82946079D01*
X93553494Y-83681429D01*
X94115612Y-84244529D01*
X94850430Y-84549652D01*
X95646079Y-84550346D01*
X96381429Y-84246506D01*
X96944529Y-83684388D01*
X97249652Y-82949570D01*
X97250346Y-82153921D01*
X96946506Y-81418571D01*
X96550000Y-81021372D01*
X96550000Y-80548478D01*
X98328477Y-78770000D01*
X100366522Y-78770000D01*
X99410761Y-79725761D01*
X99128957Y-80147511D01*
X99128957Y-80147512D01*
X99030000Y-80645000D01*
X99030000Y-81021771D01*
X98635471Y-81415612D01*
X98330348Y-82150430D01*
X98329654Y-82946079D01*
X98633494Y-83681429D01*
X99195612Y-84244529D01*
X99930430Y-84549652D01*
X100726079Y-84550346D01*
X101461429Y-84246506D01*
X102024529Y-83684388D01*
X102329652Y-82949570D01*
X102330346Y-82153921D01*
X102026506Y-81418571D01*
X101710982Y-81102496D01*
X110139239Y-72674239D01*
X110187173Y-72602500D01*
X121540000Y-72602500D01*
X121540000Y-73519293D01*
X121638957Y-73758195D01*
X121821805Y-73941043D01*
X122060707Y-74040000D01*
X122977500Y-74040000D01*
X123140000Y-73877500D01*
X123140000Y-72440000D01*
X121702500Y-72440000D01*
X121540000Y-72602500D01*
X110187173Y-72602500D01*
X110421043Y-72252488D01*
X110520001Y-71755000D01*
X110520000Y-71754995D01*
X110520000Y-70062500D01*
X121540000Y-70062500D01*
X121540000Y-70979293D01*
X121598283Y-71120000D01*
X121540000Y-71260707D01*
X121540000Y-72177500D01*
X121702500Y-72340000D01*
X123140000Y-72340000D01*
X123140000Y-69900000D01*
X121702500Y-69900000D01*
X121540000Y-70062500D01*
X110520000Y-70062500D01*
X110520000Y-68720707D01*
X121540000Y-68720707D01*
X121540000Y-69637500D01*
X121702500Y-69800000D01*
X123140000Y-69800000D01*
X123140000Y-68362500D01*
X122977500Y-68200000D01*
X122060707Y-68200000D01*
X121821805Y-68298957D01*
X121638957Y-68481805D01*
X121540000Y-68720707D01*
X110520000Y-68720707D01*
X110520000Y-49742500D01*
X121540000Y-49742500D01*
X121540000Y-50659293D01*
X121638957Y-50898195D01*
X121821805Y-51081043D01*
X122060707Y-51180000D01*
X122977500Y-51180000D01*
X123140000Y-51017500D01*
X123140000Y-49580000D01*
X121702500Y-49580000D01*
X121540000Y-49742500D01*
X110520000Y-49742500D01*
X110520000Y-47202500D01*
X121540000Y-47202500D01*
X121540000Y-48119293D01*
X121598283Y-48260000D01*
X121540000Y-48400707D01*
X121540000Y-49317500D01*
X121702500Y-49480000D01*
X123140000Y-49480000D01*
X123140000Y-47040000D01*
X121702500Y-47040000D01*
X121540000Y-47202500D01*
X110520000Y-47202500D01*
X110520000Y-45860707D01*
X121540000Y-45860707D01*
X121540000Y-46777500D01*
X121702500Y-46940000D01*
X123140000Y-46940000D01*
X123140000Y-45502500D01*
X122977500Y-45340000D01*
X122060707Y-45340000D01*
X121821805Y-45438957D01*
X121638957Y-45621805D01*
X121540000Y-45860707D01*
X110520000Y-45860707D01*
X110520000Y-26882500D01*
X121540000Y-26882500D01*
X121540000Y-27799293D01*
X121638957Y-28038195D01*
X121821805Y-28221043D01*
X122060707Y-28320000D01*
X122977500Y-28320000D01*
X123140000Y-28157500D01*
X123140000Y-26720000D01*
X121702500Y-26720000D01*
X121540000Y-26882500D01*
X110520000Y-26882500D01*
X110520000Y-24342500D01*
X121540000Y-24342500D01*
X121540000Y-25259293D01*
X121598283Y-25400000D01*
X121540000Y-25540707D01*
X121540000Y-26457500D01*
X121702500Y-26620000D01*
X123140000Y-26620000D01*
X123140000Y-24180000D01*
X121702500Y-24180000D01*
X121540000Y-24342500D01*
X110520000Y-24342500D01*
X110520000Y-23000707D01*
X121540000Y-23000707D01*
X121540000Y-23917500D01*
X121702500Y-24080000D01*
X123140000Y-24080000D01*
X123140000Y-22642500D01*
X122977500Y-22480000D01*
X122060707Y-22480000D01*
X121821805Y-22578957D01*
X121638957Y-22761805D01*
X121540000Y-23000707D01*
X110520000Y-23000707D01*
X110520000Y-8890000D01*
X110421043Y-8392512D01*
X110421043Y-8392511D01*
X110139239Y-7970761D01*
X108730978Y-6562500D01*
X113920000Y-6562500D01*
X113920000Y-7479293D01*
X114018957Y-7718195D01*
X114201805Y-7901043D01*
X114440707Y-8000000D01*
X115357500Y-8000000D01*
X115520000Y-7837500D01*
X115520000Y-6400000D01*
X114082500Y-6400000D01*
X113920000Y-6562500D01*
X108730978Y-6562500D01*
X107389185Y-5220707D01*
X113920000Y-5220707D01*
X113920000Y-6137500D01*
X114082500Y-6300000D01*
X115520000Y-6300000D01*
X115520000Y-4862500D01*
X115357500Y-4700000D01*
X114440707Y-4700000D01*
X114201805Y-4798957D01*
X114018957Y-4981805D01*
X113920000Y-5220707D01*
X107389185Y-5220707D01*
X103789239Y-1620761D01*
X103367489Y-1338957D01*
X102870000Y-1240000D01*
X58420000Y-1240000D01*
X57922511Y-1338957D01*
X57500761Y-1620761D01*
X51150761Y-7970761D01*
X50868957Y-8392511D01*
X50868957Y-8392512D01*
X50770000Y-8890000D01*
X50770000Y-75661522D01*
X50261522Y-76170000D01*
X47344742Y-76170000D01*
X47348578Y-76167437D01*
X47727930Y-75599696D01*
X47861141Y-74930000D01*
X47727930Y-74260304D01*
X47348578Y-73692563D01*
X47299844Y-73660000D01*
X47348578Y-73627437D01*
X47727930Y-73059696D01*
X47861141Y-72390000D01*
X47727930Y-71720304D01*
X47348578Y-71152563D01*
X47299844Y-71120000D01*
X47348578Y-71087437D01*
X47727930Y-70519696D01*
X47861141Y-69850000D01*
X47727930Y-69180304D01*
X47348578Y-68612563D01*
X47299844Y-68580000D01*
X47348578Y-68547437D01*
X47727930Y-67979696D01*
X47861141Y-67310000D01*
X47727930Y-66640304D01*
X47348578Y-66072563D01*
X47299844Y-66040000D01*
X47348578Y-66007437D01*
X47727930Y-65439696D01*
X47861141Y-64770000D01*
X47727930Y-64100304D01*
X47348578Y-63532563D01*
X47299844Y-63500000D01*
X47348578Y-63467437D01*
X47727930Y-62899696D01*
X47861141Y-62230000D01*
X47727930Y-61560304D01*
X47348578Y-60992563D01*
X47299844Y-60960000D01*
X47348578Y-60927437D01*
X47727930Y-60359696D01*
X47861141Y-59690000D01*
X47727930Y-59020304D01*
X47348578Y-58452563D01*
X47299844Y-58420000D01*
X47348578Y-58387437D01*
X47727930Y-57819696D01*
X47861141Y-57150000D01*
X47727930Y-56480304D01*
X47348578Y-55912563D01*
X47299844Y-55880000D01*
X47348578Y-55847437D01*
X47727930Y-55279696D01*
X47861141Y-54610000D01*
X47727930Y-53940304D01*
X47348578Y-53372563D01*
X47299844Y-53340000D01*
X47348578Y-53307437D01*
X47727930Y-52739696D01*
X47861141Y-52070000D01*
X47727930Y-51400304D01*
X47348578Y-50832563D01*
X47299844Y-50800000D01*
X47348578Y-50767437D01*
X47727930Y-50199696D01*
X47861141Y-49530000D01*
X47727930Y-48860304D01*
X47348578Y-48292563D01*
X47299844Y-48260000D01*
X47348578Y-48227437D01*
X47727930Y-47659696D01*
X47861141Y-46990000D01*
X47727930Y-46320304D01*
X47348578Y-45752563D01*
X47299844Y-45720000D01*
X47348578Y-45687437D01*
X47727930Y-45119696D01*
X47861141Y-44450000D01*
X47727930Y-43780304D01*
X47348578Y-43212563D01*
X47299844Y-43180000D01*
X47348578Y-43147437D01*
X47727930Y-42579696D01*
X47861141Y-41910000D01*
X47727930Y-41240304D01*
X47348578Y-40672563D01*
X47299844Y-40640000D01*
X47348578Y-40607437D01*
X47727930Y-40039696D01*
X47861141Y-39370000D01*
X47727930Y-38700304D01*
X47348578Y-38132563D01*
X47299844Y-38100000D01*
X47348578Y-38067437D01*
X47727930Y-37499696D01*
X47861141Y-36830000D01*
X47727930Y-36160304D01*
X47348578Y-35592563D01*
X47299844Y-35560000D01*
X47348578Y-35527437D01*
X47727930Y-34959696D01*
X47861141Y-34290000D01*
X47727930Y-33620304D01*
X47348578Y-33052563D01*
X47299844Y-33020000D01*
X47348578Y-32987437D01*
X47727930Y-32419696D01*
X47861141Y-31750000D01*
X47727930Y-31080304D01*
X47348578Y-30512563D01*
X47299844Y-30480000D01*
X47348578Y-30447437D01*
X47727930Y-29879696D01*
X47861141Y-29210000D01*
X47727930Y-28540304D01*
X47348578Y-27972563D01*
X47299844Y-27940000D01*
X47348578Y-27907437D01*
X47727930Y-27339696D01*
X47861141Y-26670000D01*
X47727930Y-26000304D01*
X47348578Y-25432563D01*
X47299844Y-25400000D01*
X47348578Y-25367437D01*
X47727930Y-24799696D01*
X47861141Y-24130000D01*
X47727930Y-23460304D01*
X47348578Y-22892563D01*
X47299844Y-22860000D01*
X47348578Y-22827437D01*
X47727930Y-22259696D01*
X47861141Y-21590000D01*
X47727930Y-20920304D01*
X47348578Y-20352563D01*
X47299844Y-20320000D01*
X47348578Y-20287437D01*
X47727930Y-19719696D01*
X47861141Y-19050000D01*
X47727930Y-18380304D01*
X47348578Y-17812563D01*
X46966650Y-17557367D01*
X47095305Y-17464594D01*
X47382566Y-16999563D01*
X47444060Y-16778253D01*
X47306489Y-16560000D01*
X45770000Y-16560000D01*
X45770000Y-16580000D01*
X45670000Y-16580000D01*
X45670000Y-16560000D01*
X44133511Y-16560000D01*
X43995940Y-16778253D01*
X44057434Y-16999563D01*
X44344695Y-17464594D01*
X44473350Y-17557367D01*
X44091422Y-17812563D01*
X43712070Y-18380304D01*
X43578859Y-19050000D01*
X43712070Y-19719696D01*
X44091422Y-20287437D01*
X44140156Y-20320000D01*
X44091422Y-20352563D01*
X43712070Y-20920304D01*
X43578859Y-21590000D01*
X43712070Y-22259696D01*
X44091422Y-22827437D01*
X44095258Y-22830000D01*
X43815000Y-22830000D01*
X43317512Y-22928957D01*
X42895761Y-23210761D01*
X35910761Y-30195761D01*
X35628957Y-30617511D01*
X35628957Y-30617512D01*
X35530000Y-31115000D01*
X35530000Y-45720757D01*
X35329353Y-45577121D01*
X34740000Y-45440000D01*
X34340000Y-45440000D01*
X34340000Y-46940000D01*
X34360000Y-46940000D01*
X34360000Y-47040000D01*
X34340000Y-47040000D01*
X34340000Y-47060000D01*
X34240000Y-47060000D01*
X34240000Y-47040000D01*
X32503401Y-47040000D01*
X32367702Y-47281732D01*
X32438852Y-47536965D01*
X32742796Y-48025226D01*
X32501437Y-48186497D01*
X32472369Y-48230000D01*
X31750000Y-48230000D01*
X31252511Y-48328957D01*
X30830761Y-48610761D01*
X21880761Y-57560761D01*
X21598957Y-57982511D01*
X21525651Y-58351043D01*
X21500000Y-58480000D01*
X21500000Y-78186858D01*
X21429422Y-78200138D01*
X21089069Y-78419149D01*
X20860738Y-78753322D01*
X20780409Y-79150000D01*
X20780409Y-80850000D01*
X20850138Y-81220578D01*
X21069149Y-81560931D01*
X21403322Y-81789262D01*
X21800000Y-81869591D01*
X23500000Y-81869591D01*
X23500000Y-93380000D01*
X23598957Y-93877489D01*
X23880761Y-94299239D01*
X30106522Y-100525000D01*
X1075000Y-100525000D01*
X1075000Y-91776694D01*
X1168667Y-92003386D01*
X1871315Y-92707261D01*
X2789838Y-93088665D01*
X3784399Y-93089533D01*
X4703586Y-92709733D01*
X5407461Y-92007085D01*
X5788865Y-91088562D01*
X5789733Y-90094001D01*
X5409933Y-89174814D01*
X4707285Y-88470939D01*
X3788762Y-88089535D01*
X2794201Y-88088667D01*
X1875014Y-88468467D01*
X1171139Y-89171115D01*
X1075000Y-89402643D01*
X1075000Y-46698268D01*
X32367702Y-46698268D01*
X32503401Y-46940000D01*
X34240000Y-46940000D01*
X34240000Y-45440000D01*
X33840000Y-45440000D01*
X33250647Y-45577121D01*
X32758629Y-45929340D01*
X32438852Y-46443035D01*
X32367702Y-46698268D01*
X1075000Y-46698268D01*
X1075000Y-16778114D01*
X1168667Y-17004806D01*
X1871315Y-17708681D01*
X2789838Y-18090085D01*
X3784399Y-18090953D01*
X4703586Y-17711153D01*
X5407461Y-17008505D01*
X5788865Y-16089982D01*
X5788869Y-16085099D01*
X31789567Y-16085099D01*
X32169367Y-17004286D01*
X32872015Y-17708161D01*
X33790538Y-18089565D01*
X34785099Y-18090433D01*
X35704286Y-17710633D01*
X36408161Y-17007985D01*
X36789565Y-16089462D01*
X36790433Y-15094901D01*
X36410633Y-14175714D01*
X36205278Y-13970000D01*
X43578859Y-13970000D01*
X43712070Y-14639696D01*
X44091422Y-15207437D01*
X44473350Y-15462633D01*
X44344695Y-15555406D01*
X44057434Y-16020437D01*
X43995940Y-16241747D01*
X44133511Y-16460000D01*
X45670000Y-16460000D01*
X45670000Y-16440000D01*
X45770000Y-16440000D01*
X45770000Y-16460000D01*
X47306489Y-16460000D01*
X47444060Y-16241747D01*
X47382566Y-16020437D01*
X47095305Y-15555406D01*
X46966650Y-15462633D01*
X47348578Y-15207437D01*
X47727930Y-14639696D01*
X47861141Y-13970000D01*
X47727930Y-13300304D01*
X47348578Y-12732563D01*
X46780837Y-12353211D01*
X46111141Y-12220000D01*
X45328859Y-12220000D01*
X44659163Y-12353211D01*
X44091422Y-12732563D01*
X43712070Y-13300304D01*
X43578859Y-13970000D01*
X36205278Y-13970000D01*
X35707985Y-13471839D01*
X34789462Y-13090435D01*
X33794901Y-13089567D01*
X32875714Y-13469367D01*
X32171839Y-14172015D01*
X31790435Y-15090538D01*
X31789567Y-16085099D01*
X5788869Y-16085099D01*
X5789733Y-15095421D01*
X5409933Y-14176234D01*
X4707285Y-13472359D01*
X3788762Y-13090955D01*
X2794201Y-13090087D01*
X1875014Y-13469887D01*
X1171139Y-14172535D01*
X1075000Y-14404063D01*
X1075000Y-1075000D01*
X118897838Y-1075000D01*
X118888000Y-1200000D01*
G36*
X75280761Y-7970761D02*
X74998957Y-8392511D01*
X74998957Y-8392512D01*
X74900000Y-8890000D01*
X74900000Y-52070000D01*
X74998957Y-52567489D01*
X75280761Y-52989239D01*
X80360761Y-58069239D01*
X80782512Y-58351043D01*
X81280000Y-58450000D01*
X82195258Y-58450000D01*
X82191422Y-58452563D01*
X81812070Y-59020304D01*
X81678859Y-59690000D01*
X81812070Y-60359696D01*
X82191422Y-60927437D01*
X82240156Y-60960000D01*
X82191422Y-60992563D01*
X81812070Y-61560304D01*
X81678859Y-62230000D01*
X81812070Y-62899696D01*
X82191422Y-63467437D01*
X82240156Y-63500000D01*
X82191422Y-63532563D01*
X81812070Y-64100304D01*
X81678859Y-64770000D01*
X81812070Y-65439696D01*
X82191422Y-66007437D01*
X82240156Y-66040000D01*
X82191422Y-66072563D01*
X81812070Y-66640304D01*
X81678859Y-67310000D01*
X81812070Y-67979696D01*
X82191422Y-68547437D01*
X82240156Y-68580000D01*
X82191422Y-68612563D01*
X81812070Y-69180304D01*
X81678859Y-69850000D01*
X81812070Y-70519696D01*
X82191422Y-71087437D01*
X82240156Y-71120000D01*
X82191422Y-71152563D01*
X81812070Y-71720304D01*
X81678859Y-72390000D01*
X81812070Y-73059696D01*
X82191422Y-73627437D01*
X82240156Y-73660000D01*
X82191422Y-73692563D01*
X81812070Y-74260304D01*
X81678859Y-74930000D01*
X81812070Y-75599696D01*
X82191422Y-76167437D01*
X82240156Y-76200000D01*
X82191422Y-76232563D01*
X81812070Y-76800304D01*
X81678859Y-77470000D01*
X81812070Y-78139696D01*
X82191422Y-78707437D01*
X82195258Y-78710000D01*
X80010000Y-78710000D01*
X79512511Y-78808957D01*
X79090761Y-79090761D01*
X61691522Y-96490000D01*
X46699513Y-96490000D01*
X47095305Y-96204594D01*
X47382566Y-95739563D01*
X47444060Y-95518253D01*
X47306489Y-95300000D01*
X45770000Y-95300000D01*
X45770000Y-95320000D01*
X45670000Y-95320000D01*
X45670000Y-95300000D01*
X44133511Y-95300000D01*
X43995940Y-95518253D01*
X44057434Y-95739563D01*
X44344695Y-96204594D01*
X44740487Y-96490000D01*
X34687056Y-96490000D01*
X30800000Y-92602944D01*
X30800000Y-91084199D01*
X31789567Y-91084199D01*
X32169367Y-92003386D01*
X32872015Y-92707261D01*
X33790538Y-93088665D01*
X34785099Y-93089533D01*
X35704286Y-92709733D01*
X36408161Y-92007085D01*
X36789565Y-91088562D01*
X36790433Y-90094001D01*
X36410633Y-89174814D01*
X35707985Y-88470939D01*
X34789462Y-88089535D01*
X33794901Y-88088667D01*
X32875714Y-88468467D01*
X32171839Y-89171115D01*
X31790435Y-90089638D01*
X31789567Y-91084199D01*
X30800000Y-91084199D01*
X30800000Y-85302500D01*
X32340000Y-85302500D01*
X32340000Y-86119293D01*
X32438957Y-86358195D01*
X32621805Y-86541043D01*
X32860707Y-86640000D01*
X34077500Y-86640000D01*
X34240000Y-86477500D01*
X34240000Y-85140000D01*
X34340000Y-85140000D01*
X34340000Y-86477500D01*
X34502500Y-86640000D01*
X35719293Y-86640000D01*
X35958195Y-86541043D01*
X36141043Y-86358195D01*
X36240000Y-86119293D01*
X36240000Y-85302500D01*
X36385000Y-85302500D01*
X36385000Y-85669293D01*
X36483957Y-85908195D01*
X36666805Y-86091043D01*
X36905707Y-86190000D01*
X37422500Y-86190000D01*
X37585000Y-86027500D01*
X37585000Y-85140000D01*
X36547500Y-85140000D01*
X36385000Y-85302500D01*
X36240000Y-85302500D01*
X36077500Y-85140000D01*
X34340000Y-85140000D01*
X34240000Y-85140000D01*
X32502500Y-85140000D01*
X32340000Y-85302500D01*
X30800000Y-85302500D01*
X30800000Y-84469591D01*
X32200000Y-84469591D01*
X32340000Y-84443248D01*
X32340000Y-84877500D01*
X32502500Y-85040000D01*
X34240000Y-85040000D01*
X34240000Y-85020000D01*
X34340000Y-85020000D01*
X34340000Y-85040000D01*
X36077500Y-85040000D01*
X36240000Y-84877500D01*
X36240000Y-84060707D01*
X36152722Y-83850000D01*
X36507683Y-83850000D01*
X36638322Y-83939262D01*
X36900180Y-83992289D01*
X36666805Y-84088957D01*
X36483957Y-84271805D01*
X36385000Y-84510707D01*
X36385000Y-84877500D01*
X36547500Y-85040000D01*
X37585000Y-85040000D01*
X37585000Y-85020000D01*
X37685000Y-85020000D01*
X37685000Y-85040000D01*
X37705000Y-85040000D01*
X37705000Y-85140000D01*
X37685000Y-85140000D01*
X37685000Y-86027500D01*
X37847500Y-86190000D01*
X38364293Y-86190000D01*
X38443760Y-86157084D01*
X38504149Y-86250931D01*
X38838322Y-86479262D01*
X39235000Y-86559591D01*
X39975000Y-86559591D01*
X39975000Y-90170000D01*
X40073957Y-90667489D01*
X40355761Y-91089239D01*
X42895759Y-93629236D01*
X42895761Y-93629239D01*
X43317512Y-93911043D01*
X43815000Y-94010000D01*
X44185054Y-94010000D01*
X44473350Y-94202633D01*
X44344695Y-94295406D01*
X44057434Y-94760437D01*
X43995940Y-94981747D01*
X44133511Y-95200000D01*
X45670000Y-95200000D01*
X45670000Y-95180000D01*
X45770000Y-95180000D01*
X45770000Y-95200000D01*
X47306489Y-95200000D01*
X47444060Y-94981747D01*
X47382566Y-94760437D01*
X47095305Y-94295406D01*
X46966650Y-94202633D01*
X47348578Y-93947437D01*
X47727930Y-93379696D01*
X47861141Y-92710000D01*
X47727930Y-92040304D01*
X47348578Y-91472563D01*
X47299844Y-91440000D01*
X47348578Y-91407437D01*
X47727930Y-90839696D01*
X47861141Y-90170000D01*
X47727930Y-89500304D01*
X47348578Y-88932563D01*
X47299844Y-88900000D01*
X47348578Y-88867437D01*
X47727930Y-88299696D01*
X47861141Y-87630000D01*
X47727930Y-86960304D01*
X47348578Y-86392563D01*
X47344742Y-86390000D01*
X53340000Y-86390000D01*
X53837489Y-86291043D01*
X54259239Y-86009239D01*
X56799236Y-83469241D01*
X56799239Y-83469239D01*
X57081043Y-83047488D01*
X57180000Y-82550000D01*
X57180000Y-13238478D01*
X62768478Y-7650000D01*
X75601522Y-7650000D01*
X75280761Y-7970761D01*
X75280761Y-7970761D01*
G37*
X75280761Y-7970761D02*
X74998957Y-8392511D01*
X74998957Y-8392512D01*
X74900000Y-8890000D01*
X74900000Y-52070000D01*
X74998957Y-52567489D01*
X75280761Y-52989239D01*
X80360761Y-58069239D01*
X80782512Y-58351043D01*
X81280000Y-58450000D01*
X82195258Y-58450000D01*
X82191422Y-58452563D01*
X81812070Y-59020304D01*
X81678859Y-59690000D01*
X81812070Y-60359696D01*
X82191422Y-60927437D01*
X82240156Y-60960000D01*
X82191422Y-60992563D01*
X81812070Y-61560304D01*
X81678859Y-62230000D01*
X81812070Y-62899696D01*
X82191422Y-63467437D01*
X82240156Y-63500000D01*
X82191422Y-63532563D01*
X81812070Y-64100304D01*
X81678859Y-64770000D01*
X81812070Y-65439696D01*
X82191422Y-66007437D01*
X82240156Y-66040000D01*
X82191422Y-66072563D01*
X81812070Y-66640304D01*
X81678859Y-67310000D01*
X81812070Y-67979696D01*
X82191422Y-68547437D01*
X82240156Y-68580000D01*
X82191422Y-68612563D01*
X81812070Y-69180304D01*
X81678859Y-69850000D01*
X81812070Y-70519696D01*
X82191422Y-71087437D01*
X82240156Y-71120000D01*
X82191422Y-71152563D01*
X81812070Y-71720304D01*
X81678859Y-72390000D01*
X81812070Y-73059696D01*
X82191422Y-73627437D01*
X82240156Y-73660000D01*
X82191422Y-73692563D01*
X81812070Y-74260304D01*
X81678859Y-74930000D01*
X81812070Y-75599696D01*
X82191422Y-76167437D01*
X82240156Y-76200000D01*
X82191422Y-76232563D01*
X81812070Y-76800304D01*
X81678859Y-77470000D01*
X81812070Y-78139696D01*
X82191422Y-78707437D01*
X82195258Y-78710000D01*
X80010000Y-78710000D01*
X79512511Y-78808957D01*
X79090761Y-79090761D01*
X61691522Y-96490000D01*
X46699513Y-96490000D01*
X47095305Y-96204594D01*
X47382566Y-95739563D01*
X47444060Y-95518253D01*
X47306489Y-95300000D01*
X45770000Y-95300000D01*
X45770000Y-95320000D01*
X45670000Y-95320000D01*
X45670000Y-95300000D01*
X44133511Y-95300000D01*
X43995940Y-95518253D01*
X44057434Y-95739563D01*
X44344695Y-96204594D01*
X44740487Y-96490000D01*
X34687056Y-96490000D01*
X30800000Y-92602944D01*
X30800000Y-91084199D01*
X31789567Y-91084199D01*
X32169367Y-92003386D01*
X32872015Y-92707261D01*
X33790538Y-93088665D01*
X34785099Y-93089533D01*
X35704286Y-92709733D01*
X36408161Y-92007085D01*
X36789565Y-91088562D01*
X36790433Y-90094001D01*
X36410633Y-89174814D01*
X35707985Y-88470939D01*
X34789462Y-88089535D01*
X33794901Y-88088667D01*
X32875714Y-88468467D01*
X32171839Y-89171115D01*
X31790435Y-90089638D01*
X31789567Y-91084199D01*
X30800000Y-91084199D01*
X30800000Y-85302500D01*
X32340000Y-85302500D01*
X32340000Y-86119293D01*
X32438957Y-86358195D01*
X32621805Y-86541043D01*
X32860707Y-86640000D01*
X34077500Y-86640000D01*
X34240000Y-86477500D01*
X34240000Y-85140000D01*
X34340000Y-85140000D01*
X34340000Y-86477500D01*
X34502500Y-86640000D01*
X35719293Y-86640000D01*
X35958195Y-86541043D01*
X36141043Y-86358195D01*
X36240000Y-86119293D01*
X36240000Y-85302500D01*
X36385000Y-85302500D01*
X36385000Y-85669293D01*
X36483957Y-85908195D01*
X36666805Y-86091043D01*
X36905707Y-86190000D01*
X37422500Y-86190000D01*
X37585000Y-86027500D01*
X37585000Y-85140000D01*
X36547500Y-85140000D01*
X36385000Y-85302500D01*
X36240000Y-85302500D01*
X36077500Y-85140000D01*
X34340000Y-85140000D01*
X34240000Y-85140000D01*
X32502500Y-85140000D01*
X32340000Y-85302500D01*
X30800000Y-85302500D01*
X30800000Y-84469591D01*
X32200000Y-84469591D01*
X32340000Y-84443248D01*
X32340000Y-84877500D01*
X32502500Y-85040000D01*
X34240000Y-85040000D01*
X34240000Y-85020000D01*
X34340000Y-85020000D01*
X34340000Y-85040000D01*
X36077500Y-85040000D01*
X36240000Y-84877500D01*
X36240000Y-84060707D01*
X36152722Y-83850000D01*
X36507683Y-83850000D01*
X36638322Y-83939262D01*
X36900180Y-83992289D01*
X36666805Y-84088957D01*
X36483957Y-84271805D01*
X36385000Y-84510707D01*
X36385000Y-84877500D01*
X36547500Y-85040000D01*
X37585000Y-85040000D01*
X37585000Y-85020000D01*
X37685000Y-85020000D01*
X37685000Y-85040000D01*
X37705000Y-85040000D01*
X37705000Y-85140000D01*
X37685000Y-85140000D01*
X37685000Y-86027500D01*
X37847500Y-86190000D01*
X38364293Y-86190000D01*
X38443760Y-86157084D01*
X38504149Y-86250931D01*
X38838322Y-86479262D01*
X39235000Y-86559591D01*
X39975000Y-86559591D01*
X39975000Y-90170000D01*
X40073957Y-90667489D01*
X40355761Y-91089239D01*
X42895759Y-93629236D01*
X42895761Y-93629239D01*
X43317512Y-93911043D01*
X43815000Y-94010000D01*
X44185054Y-94010000D01*
X44473350Y-94202633D01*
X44344695Y-94295406D01*
X44057434Y-94760437D01*
X43995940Y-94981747D01*
X44133511Y-95200000D01*
X45670000Y-95200000D01*
X45670000Y-95180000D01*
X45770000Y-95180000D01*
X45770000Y-95200000D01*
X47306489Y-95200000D01*
X47444060Y-94981747D01*
X47382566Y-94760437D01*
X47095305Y-94295406D01*
X46966650Y-94202633D01*
X47348578Y-93947437D01*
X47727930Y-93379696D01*
X47861141Y-92710000D01*
X47727930Y-92040304D01*
X47348578Y-91472563D01*
X47299844Y-91440000D01*
X47348578Y-91407437D01*
X47727930Y-90839696D01*
X47861141Y-90170000D01*
X47727930Y-89500304D01*
X47348578Y-88932563D01*
X47299844Y-88900000D01*
X47348578Y-88867437D01*
X47727930Y-88299696D01*
X47861141Y-87630000D01*
X47727930Y-86960304D01*
X47348578Y-86392563D01*
X47344742Y-86390000D01*
X53340000Y-86390000D01*
X53837489Y-86291043D01*
X54259239Y-86009239D01*
X56799236Y-83469241D01*
X56799239Y-83469239D01*
X57081043Y-83047488D01*
X57180000Y-82550000D01*
X57180000Y-13238478D01*
X62768478Y-7650000D01*
X75601522Y-7650000D01*
X75280761Y-7970761D01*
G36*
X118194853Y-6335858D02*
X118180711Y-6350000D01*
X118194853Y-6364142D01*
X118124142Y-6434853D01*
X118110000Y-6420711D01*
X118095858Y-6434853D01*
X118025147Y-6364142D01*
X118039289Y-6350000D01*
X118025147Y-6335858D01*
X118095858Y-6265147D01*
X118110000Y-6279289D01*
X118124142Y-6265147D01*
X118194853Y-6335858D01*
X118194853Y-6335858D01*
G37*
X118194853Y-6335858D02*
X118180711Y-6350000D01*
X118194853Y-6364142D01*
X118124142Y-6434853D01*
X118110000Y-6420711D01*
X118095858Y-6434853D01*
X118025147Y-6364142D01*
X118039289Y-6350000D01*
X118025147Y-6335858D01*
X118095858Y-6265147D01*
X118110000Y-6279289D01*
X118124142Y-6265147D01*
X118194853Y-6335858D01*
M02*
