G04 #@! TF.FileFunction,Copper,L1,Top,Signal*
%FSLAX46Y46*%
G04 Gerber Fmt 4.6, Leading zero omitted, Abs format (unit mm)*
G04 Created by KiCad (PCBNEW 4.0.7) date 03/13/18 20:21:14*
%MOMM*%
%LPD*%
G01*
G04 APERTURE LIST*
%ADD10C,0.100000*%
%ADD11R,1.200000X0.750000*%
%ADD12R,0.750000X1.200000*%
%ADD13R,1.200000X0.900000*%
%ADD14R,2.030000X1.730000*%
%ADD15O,2.030000X1.730000*%
%ADD16C,2.000000*%
%ADD17O,2.000000X2.000000*%
%ADD18R,0.800000X0.900000*%
%ADD19R,0.900000X1.200000*%
%ADD20R,2.000000X2.000000*%
%ADD21C,0.600000*%
%ADD22C,0.400000*%
G04 APERTURE END LIST*
D10*
D11*
X12380000Y-6350000D03*
X10480000Y-6350000D03*
D12*
X21209000Y-13655000D03*
X21209000Y-15555000D03*
X3810000Y-21656000D03*
X3810000Y-23556000D03*
D13*
X20320000Y-7875000D03*
X20320000Y-11175000D03*
X6985000Y-10540000D03*
X6985000Y-7240000D03*
X3810000Y-7240000D03*
X3810000Y-10540000D03*
D14*
X8890000Y-24130000D03*
D15*
X8890000Y-21590000D03*
X8890000Y-19050000D03*
D16*
X3810000Y-14605000D03*
D17*
X19050000Y-14605000D03*
D18*
X14285000Y-8525000D03*
X12385000Y-8525000D03*
X13335000Y-10525000D03*
D19*
X17145000Y-8425000D03*
X17145000Y-10625000D03*
X11430000Y-27602000D03*
X11430000Y-29802000D03*
X8890000Y-29802000D03*
X8890000Y-27602000D03*
D20*
X8890000Y-3810000D03*
D16*
X3810000Y-31750000D03*
D20*
X3810000Y-26670000D03*
X6350000Y-3810000D03*
D16*
X13970000Y-3810000D03*
X16510000Y-3810000D03*
X19050000Y-31750000D03*
X19050000Y-26670000D03*
D21*
X3810000Y-7240000D02*
X4446000Y-7240000D01*
X10525000Y-8525000D02*
X12385000Y-8525000D01*
X10160000Y-8890000D02*
X10525000Y-8525000D01*
X6096000Y-8890000D02*
X10160000Y-8890000D01*
X4446000Y-7240000D02*
X6096000Y-8890000D01*
X3810000Y-7240000D02*
X3938000Y-7240000D01*
X21209000Y-13655000D02*
X21209000Y-12064000D01*
X21209000Y-12064000D02*
X20320000Y-11175000D01*
X20320000Y-11175000D02*
X20320000Y-11176000D01*
X20320000Y-11175000D02*
X17695000Y-11175000D01*
X17695000Y-11175000D02*
X17145000Y-10625000D01*
X14285000Y-8525000D02*
X14285000Y-8951000D01*
X14285000Y-8951000D02*
X15959000Y-10625000D01*
X15959000Y-10625000D02*
X17145000Y-10625000D01*
X3810000Y-14605000D02*
X3810000Y-21656000D01*
X3810000Y-10540000D02*
X3810000Y-14605000D01*
X8890000Y-21590000D02*
X10414000Y-21590000D01*
X11430000Y-22606000D02*
X11430000Y-27602000D01*
X10414000Y-21590000D02*
X11430000Y-22606000D01*
X3744000Y-21590000D02*
X8890000Y-21590000D01*
X6985000Y-10540000D02*
X13320000Y-10540000D01*
X13320000Y-10540000D02*
X17385000Y-14605000D01*
X17385000Y-14605000D02*
X19050000Y-14605000D01*
X11430000Y-29802000D02*
X8890000Y-29802000D01*
X8890000Y-29802000D02*
X6942000Y-31750000D01*
X6942000Y-31750000D02*
X3810000Y-31750000D01*
X8890000Y-19050000D02*
X10414000Y-19050000D01*
X15494000Y-28194000D02*
X19050000Y-31750000D01*
X15494000Y-24130000D02*
X15494000Y-28194000D01*
X10414000Y-19050000D02*
X15494000Y-24130000D01*
X21209000Y-15555000D02*
X21209000Y-24511000D01*
X21209000Y-24511000D02*
X19050000Y-26670000D01*
D22*
G36*
X20315607Y-1652578D02*
X20850211Y-2009789D01*
X21207422Y-2544393D01*
X21350000Y-3261179D01*
X21350000Y-7006472D01*
X21259873Y-6916345D01*
X21039348Y-6825000D01*
X20520000Y-6825000D01*
X20370000Y-6975000D01*
X20370000Y-7825000D01*
X20390000Y-7825000D01*
X20390000Y-7925000D01*
X20370000Y-7925000D01*
X20370000Y-8775000D01*
X20520000Y-8925000D01*
X21039348Y-8925000D01*
X21259873Y-8833655D01*
X21350000Y-8743528D01*
X21350000Y-9452000D01*
X18173451Y-9452000D01*
X18080226Y-9388302D01*
X18103656Y-9364872D01*
X18195000Y-9144347D01*
X18195000Y-8625000D01*
X18045000Y-8475000D01*
X17195000Y-8475000D01*
X17195000Y-8495000D01*
X17095000Y-8495000D01*
X17095000Y-8475000D01*
X16245000Y-8475000D01*
X16095000Y-8625000D01*
X16095000Y-9144347D01*
X16138146Y-9248511D01*
X15500672Y-8611038D01*
X15500672Y-8075000D01*
X15444889Y-7778538D01*
X15397989Y-7705653D01*
X16095000Y-7705653D01*
X16095000Y-8225000D01*
X16245000Y-8375000D01*
X17095000Y-8375000D01*
X17095000Y-7375000D01*
X17195000Y-7375000D01*
X17195000Y-8375000D01*
X18045000Y-8375000D01*
X18195000Y-8225000D01*
X18195000Y-8075000D01*
X19120000Y-8075000D01*
X19120000Y-8444347D01*
X19211344Y-8664872D01*
X19380127Y-8833655D01*
X19600652Y-8925000D01*
X20120000Y-8925000D01*
X20270000Y-8775000D01*
X20270000Y-7925000D01*
X19270000Y-7925000D01*
X19120000Y-8075000D01*
X18195000Y-8075000D01*
X18195000Y-7705653D01*
X18103656Y-7485128D01*
X17934873Y-7316345D01*
X17909061Y-7305653D01*
X19120000Y-7305653D01*
X19120000Y-7675000D01*
X19270000Y-7825000D01*
X20270000Y-7825000D01*
X20270000Y-6975000D01*
X20120000Y-6825000D01*
X19600652Y-6825000D01*
X19380127Y-6916345D01*
X19211344Y-7085128D01*
X19120000Y-7305653D01*
X17909061Y-7305653D01*
X17714348Y-7225000D01*
X17345000Y-7225000D01*
X17195000Y-7375000D01*
X17095000Y-7375000D01*
X16945000Y-7225000D01*
X16575652Y-7225000D01*
X16355127Y-7316345D01*
X16186344Y-7485128D01*
X16095000Y-7705653D01*
X15397989Y-7705653D01*
X15269680Y-7506256D01*
X15002342Y-7323591D01*
X14685000Y-7259328D01*
X13885000Y-7259328D01*
X13588538Y-7315111D01*
X13316256Y-7490320D01*
X13207710Y-7649182D01*
X13124873Y-7566345D01*
X12904348Y-7475000D01*
X12585000Y-7475000D01*
X12435000Y-7625000D01*
X12435000Y-8475000D01*
X12455000Y-8475000D01*
X12455000Y-8575000D01*
X12435000Y-8575000D01*
X12435000Y-8595000D01*
X12335000Y-8595000D01*
X12335000Y-8575000D01*
X12315000Y-8575000D01*
X12315000Y-8475000D01*
X12335000Y-8475000D01*
X12335000Y-7625000D01*
X12185000Y-7475000D01*
X11884000Y-7475000D01*
X11884000Y-7325000D01*
X12180000Y-7325000D01*
X12330000Y-7175000D01*
X12330000Y-6400000D01*
X12430000Y-6400000D01*
X12430000Y-7175000D01*
X12580000Y-7325000D01*
X13099347Y-7325000D01*
X13319872Y-7233656D01*
X13488655Y-7064873D01*
X13580000Y-6844348D01*
X13580000Y-6550000D01*
X13430000Y-6400000D01*
X12430000Y-6400000D01*
X12330000Y-6400000D01*
X12310000Y-6400000D01*
X12310000Y-6300000D01*
X12330000Y-6300000D01*
X12330000Y-5525000D01*
X12430000Y-5525000D01*
X12430000Y-6300000D01*
X13430000Y-6300000D01*
X13580000Y-6150000D01*
X13580000Y-5855652D01*
X13488655Y-5635127D01*
X13319872Y-5466344D01*
X13099347Y-5375000D01*
X12580000Y-5375000D01*
X12430000Y-5525000D01*
X12330000Y-5525000D01*
X12180000Y-5375000D01*
X11884000Y-5375000D01*
X11884000Y-4892228D01*
X12958482Y-4892228D01*
X13052020Y-5158556D01*
X13637967Y-5407199D01*
X14274463Y-5412683D01*
X14864607Y-5174173D01*
X14887980Y-5158556D01*
X14981518Y-4892228D01*
X15498482Y-4892228D01*
X15592020Y-5158556D01*
X16177967Y-5407199D01*
X16814463Y-5412683D01*
X17404607Y-5174173D01*
X17427980Y-5158556D01*
X17521518Y-4892228D01*
X16510000Y-3880711D01*
X15498482Y-4892228D01*
X14981518Y-4892228D01*
X13970000Y-3880711D01*
X12958482Y-4892228D01*
X11884000Y-4892228D01*
X11884000Y-4114463D01*
X12367317Y-4114463D01*
X12605827Y-4704607D01*
X12621444Y-4727980D01*
X12887772Y-4821518D01*
X13899289Y-3810000D01*
X14040711Y-3810000D01*
X15052228Y-4821518D01*
X15240000Y-4755570D01*
X15427772Y-4821518D01*
X16439289Y-3810000D01*
X16580711Y-3810000D01*
X17592228Y-4821518D01*
X17858556Y-4727980D01*
X18107199Y-4142033D01*
X18112683Y-3505537D01*
X17874173Y-2915393D01*
X17858556Y-2892020D01*
X17592228Y-2798482D01*
X16580711Y-3810000D01*
X16439289Y-3810000D01*
X15427772Y-2798482D01*
X15240000Y-2864430D01*
X15052228Y-2798482D01*
X14040711Y-3810000D01*
X13899289Y-3810000D01*
X12887772Y-2798482D01*
X12621444Y-2892020D01*
X12372801Y-3477967D01*
X12367317Y-4114463D01*
X11884000Y-4114463D01*
X11884000Y-2727772D01*
X12958482Y-2727772D01*
X13970000Y-3739289D01*
X14981518Y-2727772D01*
X15498482Y-2727772D01*
X16510000Y-3739289D01*
X17521518Y-2727772D01*
X17427980Y-2461444D01*
X16842033Y-2212801D01*
X16205537Y-2207317D01*
X15615393Y-2445827D01*
X15592020Y-2461444D01*
X15498482Y-2727772D01*
X14981518Y-2727772D01*
X14887980Y-2461444D01*
X14302033Y-2212801D01*
X13665537Y-2207317D01*
X13075393Y-2445827D01*
X13052020Y-2461444D01*
X12958482Y-2727772D01*
X11884000Y-2727772D01*
X11884000Y-1510000D01*
X19598821Y-1510000D01*
X20315607Y-1652578D01*
X20315607Y-1652578D01*
G37*
X20315607Y-1652578D02*
X20850211Y-2009789D01*
X21207422Y-2544393D01*
X21350000Y-3261179D01*
X21350000Y-7006472D01*
X21259873Y-6916345D01*
X21039348Y-6825000D01*
X20520000Y-6825000D01*
X20370000Y-6975000D01*
X20370000Y-7825000D01*
X20390000Y-7825000D01*
X20390000Y-7925000D01*
X20370000Y-7925000D01*
X20370000Y-8775000D01*
X20520000Y-8925000D01*
X21039348Y-8925000D01*
X21259873Y-8833655D01*
X21350000Y-8743528D01*
X21350000Y-9452000D01*
X18173451Y-9452000D01*
X18080226Y-9388302D01*
X18103656Y-9364872D01*
X18195000Y-9144347D01*
X18195000Y-8625000D01*
X18045000Y-8475000D01*
X17195000Y-8475000D01*
X17195000Y-8495000D01*
X17095000Y-8495000D01*
X17095000Y-8475000D01*
X16245000Y-8475000D01*
X16095000Y-8625000D01*
X16095000Y-9144347D01*
X16138146Y-9248511D01*
X15500672Y-8611038D01*
X15500672Y-8075000D01*
X15444889Y-7778538D01*
X15397989Y-7705653D01*
X16095000Y-7705653D01*
X16095000Y-8225000D01*
X16245000Y-8375000D01*
X17095000Y-8375000D01*
X17095000Y-7375000D01*
X17195000Y-7375000D01*
X17195000Y-8375000D01*
X18045000Y-8375000D01*
X18195000Y-8225000D01*
X18195000Y-8075000D01*
X19120000Y-8075000D01*
X19120000Y-8444347D01*
X19211344Y-8664872D01*
X19380127Y-8833655D01*
X19600652Y-8925000D01*
X20120000Y-8925000D01*
X20270000Y-8775000D01*
X20270000Y-7925000D01*
X19270000Y-7925000D01*
X19120000Y-8075000D01*
X18195000Y-8075000D01*
X18195000Y-7705653D01*
X18103656Y-7485128D01*
X17934873Y-7316345D01*
X17909061Y-7305653D01*
X19120000Y-7305653D01*
X19120000Y-7675000D01*
X19270000Y-7825000D01*
X20270000Y-7825000D01*
X20270000Y-6975000D01*
X20120000Y-6825000D01*
X19600652Y-6825000D01*
X19380127Y-6916345D01*
X19211344Y-7085128D01*
X19120000Y-7305653D01*
X17909061Y-7305653D01*
X17714348Y-7225000D01*
X17345000Y-7225000D01*
X17195000Y-7375000D01*
X17095000Y-7375000D01*
X16945000Y-7225000D01*
X16575652Y-7225000D01*
X16355127Y-7316345D01*
X16186344Y-7485128D01*
X16095000Y-7705653D01*
X15397989Y-7705653D01*
X15269680Y-7506256D01*
X15002342Y-7323591D01*
X14685000Y-7259328D01*
X13885000Y-7259328D01*
X13588538Y-7315111D01*
X13316256Y-7490320D01*
X13207710Y-7649182D01*
X13124873Y-7566345D01*
X12904348Y-7475000D01*
X12585000Y-7475000D01*
X12435000Y-7625000D01*
X12435000Y-8475000D01*
X12455000Y-8475000D01*
X12455000Y-8575000D01*
X12435000Y-8575000D01*
X12435000Y-8595000D01*
X12335000Y-8595000D01*
X12335000Y-8575000D01*
X12315000Y-8575000D01*
X12315000Y-8475000D01*
X12335000Y-8475000D01*
X12335000Y-7625000D01*
X12185000Y-7475000D01*
X11884000Y-7475000D01*
X11884000Y-7325000D01*
X12180000Y-7325000D01*
X12330000Y-7175000D01*
X12330000Y-6400000D01*
X12430000Y-6400000D01*
X12430000Y-7175000D01*
X12580000Y-7325000D01*
X13099347Y-7325000D01*
X13319872Y-7233656D01*
X13488655Y-7064873D01*
X13580000Y-6844348D01*
X13580000Y-6550000D01*
X13430000Y-6400000D01*
X12430000Y-6400000D01*
X12330000Y-6400000D01*
X12310000Y-6400000D01*
X12310000Y-6300000D01*
X12330000Y-6300000D01*
X12330000Y-5525000D01*
X12430000Y-5525000D01*
X12430000Y-6300000D01*
X13430000Y-6300000D01*
X13580000Y-6150000D01*
X13580000Y-5855652D01*
X13488655Y-5635127D01*
X13319872Y-5466344D01*
X13099347Y-5375000D01*
X12580000Y-5375000D01*
X12430000Y-5525000D01*
X12330000Y-5525000D01*
X12180000Y-5375000D01*
X11884000Y-5375000D01*
X11884000Y-4892228D01*
X12958482Y-4892228D01*
X13052020Y-5158556D01*
X13637967Y-5407199D01*
X14274463Y-5412683D01*
X14864607Y-5174173D01*
X14887980Y-5158556D01*
X14981518Y-4892228D01*
X15498482Y-4892228D01*
X15592020Y-5158556D01*
X16177967Y-5407199D01*
X16814463Y-5412683D01*
X17404607Y-5174173D01*
X17427980Y-5158556D01*
X17521518Y-4892228D01*
X16510000Y-3880711D01*
X15498482Y-4892228D01*
X14981518Y-4892228D01*
X13970000Y-3880711D01*
X12958482Y-4892228D01*
X11884000Y-4892228D01*
X11884000Y-4114463D01*
X12367317Y-4114463D01*
X12605827Y-4704607D01*
X12621444Y-4727980D01*
X12887772Y-4821518D01*
X13899289Y-3810000D01*
X14040711Y-3810000D01*
X15052228Y-4821518D01*
X15240000Y-4755570D01*
X15427772Y-4821518D01*
X16439289Y-3810000D01*
X16580711Y-3810000D01*
X17592228Y-4821518D01*
X17858556Y-4727980D01*
X18107199Y-4142033D01*
X18112683Y-3505537D01*
X17874173Y-2915393D01*
X17858556Y-2892020D01*
X17592228Y-2798482D01*
X16580711Y-3810000D01*
X16439289Y-3810000D01*
X15427772Y-2798482D01*
X15240000Y-2864430D01*
X15052228Y-2798482D01*
X14040711Y-3810000D01*
X13899289Y-3810000D01*
X12887772Y-2798482D01*
X12621444Y-2892020D01*
X12372801Y-3477967D01*
X12367317Y-4114463D01*
X11884000Y-4114463D01*
X11884000Y-2727772D01*
X12958482Y-2727772D01*
X13970000Y-3739289D01*
X14981518Y-2727772D01*
X15498482Y-2727772D01*
X16510000Y-3739289D01*
X17521518Y-2727772D01*
X17427980Y-2461444D01*
X16842033Y-2212801D01*
X16205537Y-2207317D01*
X15615393Y-2445827D01*
X15592020Y-2461444D01*
X15498482Y-2727772D01*
X14981518Y-2727772D01*
X14887980Y-2461444D01*
X14302033Y-2212801D01*
X13665537Y-2207317D01*
X13075393Y-2445827D01*
X13052020Y-2461444D01*
X12958482Y-2727772D01*
X11884000Y-2727772D01*
X11884000Y-1510000D01*
X19598821Y-1510000D01*
X20315607Y-1652578D01*
G36*
X10976000Y-5375000D02*
X10680000Y-5375000D01*
X10530000Y-5525000D01*
X10530000Y-6300000D01*
X10550000Y-6300000D01*
X10550000Y-6400000D01*
X10530000Y-6400000D01*
X10530000Y-7175000D01*
X10680000Y-7325000D01*
X10976000Y-7325000D01*
X10976000Y-7425000D01*
X10525000Y-7425000D01*
X10104048Y-7508733D01*
X9876238Y-7660951D01*
X9747183Y-7747183D01*
X9704366Y-7790000D01*
X8185000Y-7790000D01*
X8185000Y-7440000D01*
X8035000Y-7290000D01*
X7035000Y-7290000D01*
X7035000Y-7310000D01*
X6935000Y-7310000D01*
X6935000Y-7290000D01*
X6915000Y-7290000D01*
X6915000Y-7190000D01*
X6935000Y-7190000D01*
X6935000Y-6340000D01*
X7035000Y-6340000D01*
X7035000Y-7190000D01*
X8035000Y-7190000D01*
X8185000Y-7040000D01*
X8185000Y-6670653D01*
X8135025Y-6550000D01*
X9280000Y-6550000D01*
X9280000Y-6844348D01*
X9371345Y-7064873D01*
X9540128Y-7233656D01*
X9760653Y-7325000D01*
X10280000Y-7325000D01*
X10430000Y-7175000D01*
X10430000Y-6400000D01*
X9430000Y-6400000D01*
X9280000Y-6550000D01*
X8135025Y-6550000D01*
X8093656Y-6450128D01*
X7924873Y-6281345D01*
X7704348Y-6190000D01*
X7185000Y-6190000D01*
X7035000Y-6340000D01*
X6935000Y-6340000D01*
X6785000Y-6190000D01*
X6265652Y-6190000D01*
X6045127Y-6281345D01*
X5876344Y-6450128D01*
X5785000Y-6670653D01*
X5785000Y-7023366D01*
X5223817Y-6462183D01*
X5205775Y-6450128D01*
X5093818Y-6375320D01*
X4994680Y-6221256D01*
X4727342Y-6038591D01*
X4410000Y-5974328D01*
X3210000Y-5974328D01*
X2913538Y-6030111D01*
X2641256Y-6205320D01*
X2458591Y-6472658D01*
X2394328Y-6790000D01*
X2394328Y-7690000D01*
X2450111Y-7986462D01*
X2625320Y-8258744D01*
X2892658Y-8441409D01*
X3210000Y-8505672D01*
X4156038Y-8505672D01*
X5318182Y-9667817D01*
X5614700Y-9865944D01*
X5569328Y-10090000D01*
X5569328Y-10990000D01*
X5625111Y-11286462D01*
X5800320Y-11558744D01*
X6067658Y-11741409D01*
X6385000Y-11805672D01*
X7585000Y-11805672D01*
X7881462Y-11749889D01*
X8052234Y-11640000D01*
X12491195Y-11640000D01*
X12617658Y-11726409D01*
X12935000Y-11790672D01*
X13015038Y-11790672D01*
X16607182Y-15382817D01*
X16785616Y-15502042D01*
X16964048Y-15621267D01*
X17385000Y-15705000D01*
X17626488Y-15705000D01*
X17741944Y-15877792D01*
X18325906Y-16267983D01*
X19014736Y-16405000D01*
X19085264Y-16405000D01*
X19774094Y-16267983D01*
X20018328Y-16104791D01*
X20018328Y-16155000D01*
X20074111Y-16451462D01*
X20109000Y-16505681D01*
X20109000Y-24055365D01*
X19294153Y-24870212D01*
X18693529Y-24869688D01*
X18031714Y-25143145D01*
X17524924Y-25649051D01*
X17250313Y-26310387D01*
X17249688Y-27026471D01*
X17523145Y-27688286D01*
X18029051Y-28195076D01*
X18690387Y-28469687D01*
X19406471Y-28470312D01*
X20068286Y-28196855D01*
X20575076Y-27690949D01*
X20849687Y-27029613D01*
X20850214Y-26425420D01*
X21350000Y-25925635D01*
X21350000Y-32298821D01*
X21207422Y-33015607D01*
X20850211Y-33550211D01*
X20315607Y-33907422D01*
X19598821Y-34050000D01*
X3261179Y-34050000D01*
X2544393Y-33907422D01*
X2009789Y-33550211D01*
X1652578Y-33015607D01*
X1510000Y-32298821D01*
X1510000Y-26870000D01*
X2210000Y-26870000D01*
X2210000Y-27789348D01*
X2301345Y-28009873D01*
X2470128Y-28178656D01*
X2690653Y-28270000D01*
X3610000Y-28270000D01*
X3760000Y-28120000D01*
X3760000Y-26720000D01*
X3860000Y-26720000D01*
X3860000Y-28120000D01*
X4010000Y-28270000D01*
X4929347Y-28270000D01*
X5149872Y-28178656D01*
X5318655Y-28009873D01*
X5410000Y-27789348D01*
X5410000Y-26882653D01*
X7840000Y-26882653D01*
X7840000Y-27402000D01*
X7990000Y-27552000D01*
X8840000Y-27552000D01*
X8840000Y-26552000D01*
X8940000Y-26552000D01*
X8940000Y-27552000D01*
X9790000Y-27552000D01*
X9940000Y-27402000D01*
X9940000Y-26882653D01*
X9848656Y-26662128D01*
X9679873Y-26493345D01*
X9459348Y-26402000D01*
X9090000Y-26402000D01*
X8940000Y-26552000D01*
X8840000Y-26552000D01*
X8690000Y-26402000D01*
X8320652Y-26402000D01*
X8100127Y-26493345D01*
X7931344Y-26662128D01*
X7840000Y-26882653D01*
X5410000Y-26882653D01*
X5410000Y-26870000D01*
X5260000Y-26720000D01*
X3860000Y-26720000D01*
X3760000Y-26720000D01*
X2360000Y-26720000D01*
X2210000Y-26870000D01*
X1510000Y-26870000D01*
X1510000Y-25550652D01*
X2210000Y-25550652D01*
X2210000Y-26470000D01*
X2360000Y-26620000D01*
X3760000Y-26620000D01*
X3760000Y-25220000D01*
X3860000Y-25220000D01*
X3860000Y-26620000D01*
X5260000Y-26620000D01*
X5410000Y-26470000D01*
X5410000Y-25550652D01*
X5318655Y-25330127D01*
X5149872Y-25161344D01*
X4929347Y-25070000D01*
X4010000Y-25070000D01*
X3860000Y-25220000D01*
X3760000Y-25220000D01*
X3610000Y-25070000D01*
X2690653Y-25070000D01*
X2470128Y-25161344D01*
X2301345Y-25330127D01*
X2210000Y-25550652D01*
X1510000Y-25550652D01*
X1510000Y-23756000D01*
X2835000Y-23756000D01*
X2835000Y-24275347D01*
X2926344Y-24495872D01*
X3095127Y-24664655D01*
X3315652Y-24756000D01*
X3610000Y-24756000D01*
X3760000Y-24606000D01*
X3760000Y-23606000D01*
X3860000Y-23606000D01*
X3860000Y-24606000D01*
X4010000Y-24756000D01*
X4304348Y-24756000D01*
X4524873Y-24664655D01*
X4693656Y-24495872D01*
X4762362Y-24330000D01*
X7275000Y-24330000D01*
X7275000Y-25114348D01*
X7366345Y-25334873D01*
X7535128Y-25503656D01*
X7755653Y-25595000D01*
X8690000Y-25595000D01*
X8840000Y-25445000D01*
X8840000Y-24180000D01*
X7425000Y-24180000D01*
X7275000Y-24330000D01*
X4762362Y-24330000D01*
X4785000Y-24275347D01*
X4785000Y-23756000D01*
X4635000Y-23606000D01*
X3860000Y-23606000D01*
X3760000Y-23606000D01*
X2985000Y-23606000D01*
X2835000Y-23756000D01*
X1510000Y-23756000D01*
X1510000Y-14961471D01*
X2009688Y-14961471D01*
X2283145Y-15623286D01*
X2710000Y-16050887D01*
X2710000Y-20700007D01*
X2683591Y-20738658D01*
X2619328Y-21056000D01*
X2619328Y-22256000D01*
X2675111Y-22552462D01*
X2844001Y-22814923D01*
X2835000Y-22836653D01*
X2835000Y-23356000D01*
X2985000Y-23506000D01*
X3760000Y-23506000D01*
X3760000Y-23486000D01*
X3860000Y-23486000D01*
X3860000Y-23506000D01*
X4635000Y-23506000D01*
X4785000Y-23356000D01*
X4785000Y-22836653D01*
X4774242Y-22810680D01*
X4856700Y-22690000D01*
X7475437Y-22690000D01*
X7525919Y-22765553D01*
X7366345Y-22925127D01*
X7275000Y-23145652D01*
X7275000Y-23930000D01*
X7425000Y-24080000D01*
X8840000Y-24080000D01*
X8840000Y-24060000D01*
X8940000Y-24060000D01*
X8940000Y-24080000D01*
X8960000Y-24080000D01*
X8960000Y-24180000D01*
X8940000Y-24180000D01*
X8940000Y-25445000D01*
X9090000Y-25595000D01*
X10024347Y-25595000D01*
X10244872Y-25503656D01*
X10330000Y-25418528D01*
X10330000Y-26536242D01*
X10228591Y-26684658D01*
X10164328Y-27002000D01*
X10164328Y-28202000D01*
X10220111Y-28498462D01*
X10351084Y-28702000D01*
X9968916Y-28702000D01*
X9924680Y-28633256D01*
X9825226Y-28565302D01*
X9848656Y-28541872D01*
X9940000Y-28321347D01*
X9940000Y-27802000D01*
X9790000Y-27652000D01*
X8940000Y-27652000D01*
X8940000Y-27672000D01*
X8840000Y-27672000D01*
X8840000Y-27652000D01*
X7990000Y-27652000D01*
X7840000Y-27802000D01*
X7840000Y-28321347D01*
X7931344Y-28541872D01*
X7953725Y-28564253D01*
X7871256Y-28617320D01*
X7688591Y-28884658D01*
X7624328Y-29202000D01*
X7624328Y-29512038D01*
X6486366Y-30650000D01*
X5255284Y-30650000D01*
X4830949Y-30224924D01*
X4169613Y-29950313D01*
X3453529Y-29949688D01*
X2791714Y-30223145D01*
X2284924Y-30729051D01*
X2010313Y-31390387D01*
X2009688Y-32106471D01*
X2283145Y-32768286D01*
X2789051Y-33275076D01*
X3450387Y-33549687D01*
X4166471Y-33550312D01*
X4828286Y-33276855D01*
X5255887Y-32850000D01*
X6942000Y-32850000D01*
X7362952Y-32766267D01*
X7719817Y-32527817D01*
X9029962Y-31217672D01*
X9340000Y-31217672D01*
X9636462Y-31161889D01*
X9908744Y-30986680D01*
X9966604Y-30902000D01*
X10351084Y-30902000D01*
X10395320Y-30970744D01*
X10662658Y-31153409D01*
X10980000Y-31217672D01*
X11880000Y-31217672D01*
X12176462Y-31161889D01*
X12448744Y-30986680D01*
X12631409Y-30719342D01*
X12695672Y-30402000D01*
X12695672Y-29202000D01*
X12639889Y-28905538D01*
X12507794Y-28700257D01*
X12631409Y-28519342D01*
X12695672Y-28202000D01*
X12695672Y-27002000D01*
X12639889Y-26705538D01*
X12530000Y-26534766D01*
X12530000Y-22721635D01*
X14394000Y-24585635D01*
X14394000Y-28194000D01*
X14477733Y-28614952D01*
X14602715Y-28802000D01*
X14716183Y-28971817D01*
X17250212Y-31505847D01*
X17249688Y-32106471D01*
X17523145Y-32768286D01*
X18029051Y-33275076D01*
X18690387Y-33549687D01*
X19406471Y-33550312D01*
X20068286Y-33276855D01*
X20575076Y-32770949D01*
X20849687Y-32109613D01*
X20850312Y-31393529D01*
X20576855Y-30731714D01*
X20070949Y-30224924D01*
X19409613Y-29950313D01*
X18805420Y-29949786D01*
X16594000Y-27738366D01*
X16594000Y-24130000D01*
X16510267Y-23709048D01*
X16414758Y-23566108D01*
X16271818Y-23352183D01*
X11191817Y-18272183D01*
X10834952Y-18033733D01*
X10414000Y-17950000D01*
X10304563Y-17950000D01*
X10252891Y-17872667D01*
X9712726Y-17511741D01*
X9075558Y-17385000D01*
X8704442Y-17385000D01*
X8067274Y-17511741D01*
X7527109Y-17872667D01*
X7166183Y-18412832D01*
X7039442Y-19050000D01*
X7166183Y-19687168D01*
X7527109Y-20227333D01*
X7665795Y-20320000D01*
X7527109Y-20412667D01*
X7475437Y-20490000D01*
X4910000Y-20490000D01*
X4910000Y-16050284D01*
X5335076Y-15625949D01*
X5609687Y-14964613D01*
X5610312Y-14248529D01*
X5336855Y-13586714D01*
X4910000Y-13159113D01*
X4910000Y-11618916D01*
X4978744Y-11574680D01*
X5161409Y-11307342D01*
X5225672Y-10990000D01*
X5225672Y-10090000D01*
X5169889Y-9793538D01*
X4994680Y-9521256D01*
X4727342Y-9338591D01*
X4410000Y-9274328D01*
X3210000Y-9274328D01*
X2913538Y-9330111D01*
X2641256Y-9505320D01*
X2458591Y-9772658D01*
X2394328Y-10090000D01*
X2394328Y-10990000D01*
X2450111Y-11286462D01*
X2625320Y-11558744D01*
X2710000Y-11616604D01*
X2710000Y-13159716D01*
X2284924Y-13584051D01*
X2010313Y-14245387D01*
X2009688Y-14961471D01*
X1510000Y-14961471D01*
X1510000Y-4010000D01*
X4750000Y-4010000D01*
X4750000Y-4929348D01*
X4841345Y-5149873D01*
X5010128Y-5318656D01*
X5230653Y-5410000D01*
X6150000Y-5410000D01*
X6300000Y-5260000D01*
X6300000Y-3860000D01*
X6400000Y-3860000D01*
X6400000Y-5260000D01*
X6550000Y-5410000D01*
X7469347Y-5410000D01*
X7620000Y-5347598D01*
X7770653Y-5410000D01*
X8690000Y-5410000D01*
X8840000Y-5260000D01*
X8840000Y-3860000D01*
X8940000Y-3860000D01*
X8940000Y-5260000D01*
X9090000Y-5410000D01*
X9676155Y-5410000D01*
X9540128Y-5466344D01*
X9371345Y-5635127D01*
X9280000Y-5855652D01*
X9280000Y-6150000D01*
X9430000Y-6300000D01*
X10430000Y-6300000D01*
X10430000Y-5525000D01*
X10280000Y-5375000D01*
X10093845Y-5375000D01*
X10229872Y-5318656D01*
X10398655Y-5149873D01*
X10490000Y-4929348D01*
X10490000Y-4010000D01*
X10340000Y-3860000D01*
X8940000Y-3860000D01*
X8840000Y-3860000D01*
X6400000Y-3860000D01*
X6300000Y-3860000D01*
X4900000Y-3860000D01*
X4750000Y-4010000D01*
X1510000Y-4010000D01*
X1510000Y-3261179D01*
X1623485Y-2690652D01*
X4750000Y-2690652D01*
X4750000Y-3610000D01*
X4900000Y-3760000D01*
X6300000Y-3760000D01*
X6300000Y-2360000D01*
X6400000Y-2360000D01*
X6400000Y-3760000D01*
X8840000Y-3760000D01*
X8840000Y-2360000D01*
X8940000Y-2360000D01*
X8940000Y-3760000D01*
X10340000Y-3760000D01*
X10490000Y-3610000D01*
X10490000Y-2690652D01*
X10398655Y-2470127D01*
X10229872Y-2301344D01*
X10009347Y-2210000D01*
X9090000Y-2210000D01*
X8940000Y-2360000D01*
X8840000Y-2360000D01*
X8690000Y-2210000D01*
X7770653Y-2210000D01*
X7620000Y-2272402D01*
X7469347Y-2210000D01*
X6550000Y-2210000D01*
X6400000Y-2360000D01*
X6300000Y-2360000D01*
X6150000Y-2210000D01*
X5230653Y-2210000D01*
X5010128Y-2301344D01*
X4841345Y-2470127D01*
X4750000Y-2690652D01*
X1623485Y-2690652D01*
X1652578Y-2544393D01*
X2009789Y-2009789D01*
X2544393Y-1652578D01*
X3261179Y-1510000D01*
X10976000Y-1510000D01*
X10976000Y-5375000D01*
X10976000Y-5375000D01*
G37*
X10976000Y-5375000D02*
X10680000Y-5375000D01*
X10530000Y-5525000D01*
X10530000Y-6300000D01*
X10550000Y-6300000D01*
X10550000Y-6400000D01*
X10530000Y-6400000D01*
X10530000Y-7175000D01*
X10680000Y-7325000D01*
X10976000Y-7325000D01*
X10976000Y-7425000D01*
X10525000Y-7425000D01*
X10104048Y-7508733D01*
X9876238Y-7660951D01*
X9747183Y-7747183D01*
X9704366Y-7790000D01*
X8185000Y-7790000D01*
X8185000Y-7440000D01*
X8035000Y-7290000D01*
X7035000Y-7290000D01*
X7035000Y-7310000D01*
X6935000Y-7310000D01*
X6935000Y-7290000D01*
X6915000Y-7290000D01*
X6915000Y-7190000D01*
X6935000Y-7190000D01*
X6935000Y-6340000D01*
X7035000Y-6340000D01*
X7035000Y-7190000D01*
X8035000Y-7190000D01*
X8185000Y-7040000D01*
X8185000Y-6670653D01*
X8135025Y-6550000D01*
X9280000Y-6550000D01*
X9280000Y-6844348D01*
X9371345Y-7064873D01*
X9540128Y-7233656D01*
X9760653Y-7325000D01*
X10280000Y-7325000D01*
X10430000Y-7175000D01*
X10430000Y-6400000D01*
X9430000Y-6400000D01*
X9280000Y-6550000D01*
X8135025Y-6550000D01*
X8093656Y-6450128D01*
X7924873Y-6281345D01*
X7704348Y-6190000D01*
X7185000Y-6190000D01*
X7035000Y-6340000D01*
X6935000Y-6340000D01*
X6785000Y-6190000D01*
X6265652Y-6190000D01*
X6045127Y-6281345D01*
X5876344Y-6450128D01*
X5785000Y-6670653D01*
X5785000Y-7023366D01*
X5223817Y-6462183D01*
X5205775Y-6450128D01*
X5093818Y-6375320D01*
X4994680Y-6221256D01*
X4727342Y-6038591D01*
X4410000Y-5974328D01*
X3210000Y-5974328D01*
X2913538Y-6030111D01*
X2641256Y-6205320D01*
X2458591Y-6472658D01*
X2394328Y-6790000D01*
X2394328Y-7690000D01*
X2450111Y-7986462D01*
X2625320Y-8258744D01*
X2892658Y-8441409D01*
X3210000Y-8505672D01*
X4156038Y-8505672D01*
X5318182Y-9667817D01*
X5614700Y-9865944D01*
X5569328Y-10090000D01*
X5569328Y-10990000D01*
X5625111Y-11286462D01*
X5800320Y-11558744D01*
X6067658Y-11741409D01*
X6385000Y-11805672D01*
X7585000Y-11805672D01*
X7881462Y-11749889D01*
X8052234Y-11640000D01*
X12491195Y-11640000D01*
X12617658Y-11726409D01*
X12935000Y-11790672D01*
X13015038Y-11790672D01*
X16607182Y-15382817D01*
X16785616Y-15502042D01*
X16964048Y-15621267D01*
X17385000Y-15705000D01*
X17626488Y-15705000D01*
X17741944Y-15877792D01*
X18325906Y-16267983D01*
X19014736Y-16405000D01*
X19085264Y-16405000D01*
X19774094Y-16267983D01*
X20018328Y-16104791D01*
X20018328Y-16155000D01*
X20074111Y-16451462D01*
X20109000Y-16505681D01*
X20109000Y-24055365D01*
X19294153Y-24870212D01*
X18693529Y-24869688D01*
X18031714Y-25143145D01*
X17524924Y-25649051D01*
X17250313Y-26310387D01*
X17249688Y-27026471D01*
X17523145Y-27688286D01*
X18029051Y-28195076D01*
X18690387Y-28469687D01*
X19406471Y-28470312D01*
X20068286Y-28196855D01*
X20575076Y-27690949D01*
X20849687Y-27029613D01*
X20850214Y-26425420D01*
X21350000Y-25925635D01*
X21350000Y-32298821D01*
X21207422Y-33015607D01*
X20850211Y-33550211D01*
X20315607Y-33907422D01*
X19598821Y-34050000D01*
X3261179Y-34050000D01*
X2544393Y-33907422D01*
X2009789Y-33550211D01*
X1652578Y-33015607D01*
X1510000Y-32298821D01*
X1510000Y-26870000D01*
X2210000Y-26870000D01*
X2210000Y-27789348D01*
X2301345Y-28009873D01*
X2470128Y-28178656D01*
X2690653Y-28270000D01*
X3610000Y-28270000D01*
X3760000Y-28120000D01*
X3760000Y-26720000D01*
X3860000Y-26720000D01*
X3860000Y-28120000D01*
X4010000Y-28270000D01*
X4929347Y-28270000D01*
X5149872Y-28178656D01*
X5318655Y-28009873D01*
X5410000Y-27789348D01*
X5410000Y-26882653D01*
X7840000Y-26882653D01*
X7840000Y-27402000D01*
X7990000Y-27552000D01*
X8840000Y-27552000D01*
X8840000Y-26552000D01*
X8940000Y-26552000D01*
X8940000Y-27552000D01*
X9790000Y-27552000D01*
X9940000Y-27402000D01*
X9940000Y-26882653D01*
X9848656Y-26662128D01*
X9679873Y-26493345D01*
X9459348Y-26402000D01*
X9090000Y-26402000D01*
X8940000Y-26552000D01*
X8840000Y-26552000D01*
X8690000Y-26402000D01*
X8320652Y-26402000D01*
X8100127Y-26493345D01*
X7931344Y-26662128D01*
X7840000Y-26882653D01*
X5410000Y-26882653D01*
X5410000Y-26870000D01*
X5260000Y-26720000D01*
X3860000Y-26720000D01*
X3760000Y-26720000D01*
X2360000Y-26720000D01*
X2210000Y-26870000D01*
X1510000Y-26870000D01*
X1510000Y-25550652D01*
X2210000Y-25550652D01*
X2210000Y-26470000D01*
X2360000Y-26620000D01*
X3760000Y-26620000D01*
X3760000Y-25220000D01*
X3860000Y-25220000D01*
X3860000Y-26620000D01*
X5260000Y-26620000D01*
X5410000Y-26470000D01*
X5410000Y-25550652D01*
X5318655Y-25330127D01*
X5149872Y-25161344D01*
X4929347Y-25070000D01*
X4010000Y-25070000D01*
X3860000Y-25220000D01*
X3760000Y-25220000D01*
X3610000Y-25070000D01*
X2690653Y-25070000D01*
X2470128Y-25161344D01*
X2301345Y-25330127D01*
X2210000Y-25550652D01*
X1510000Y-25550652D01*
X1510000Y-23756000D01*
X2835000Y-23756000D01*
X2835000Y-24275347D01*
X2926344Y-24495872D01*
X3095127Y-24664655D01*
X3315652Y-24756000D01*
X3610000Y-24756000D01*
X3760000Y-24606000D01*
X3760000Y-23606000D01*
X3860000Y-23606000D01*
X3860000Y-24606000D01*
X4010000Y-24756000D01*
X4304348Y-24756000D01*
X4524873Y-24664655D01*
X4693656Y-24495872D01*
X4762362Y-24330000D01*
X7275000Y-24330000D01*
X7275000Y-25114348D01*
X7366345Y-25334873D01*
X7535128Y-25503656D01*
X7755653Y-25595000D01*
X8690000Y-25595000D01*
X8840000Y-25445000D01*
X8840000Y-24180000D01*
X7425000Y-24180000D01*
X7275000Y-24330000D01*
X4762362Y-24330000D01*
X4785000Y-24275347D01*
X4785000Y-23756000D01*
X4635000Y-23606000D01*
X3860000Y-23606000D01*
X3760000Y-23606000D01*
X2985000Y-23606000D01*
X2835000Y-23756000D01*
X1510000Y-23756000D01*
X1510000Y-14961471D01*
X2009688Y-14961471D01*
X2283145Y-15623286D01*
X2710000Y-16050887D01*
X2710000Y-20700007D01*
X2683591Y-20738658D01*
X2619328Y-21056000D01*
X2619328Y-22256000D01*
X2675111Y-22552462D01*
X2844001Y-22814923D01*
X2835000Y-22836653D01*
X2835000Y-23356000D01*
X2985000Y-23506000D01*
X3760000Y-23506000D01*
X3760000Y-23486000D01*
X3860000Y-23486000D01*
X3860000Y-23506000D01*
X4635000Y-23506000D01*
X4785000Y-23356000D01*
X4785000Y-22836653D01*
X4774242Y-22810680D01*
X4856700Y-22690000D01*
X7475437Y-22690000D01*
X7525919Y-22765553D01*
X7366345Y-22925127D01*
X7275000Y-23145652D01*
X7275000Y-23930000D01*
X7425000Y-24080000D01*
X8840000Y-24080000D01*
X8840000Y-24060000D01*
X8940000Y-24060000D01*
X8940000Y-24080000D01*
X8960000Y-24080000D01*
X8960000Y-24180000D01*
X8940000Y-24180000D01*
X8940000Y-25445000D01*
X9090000Y-25595000D01*
X10024347Y-25595000D01*
X10244872Y-25503656D01*
X10330000Y-25418528D01*
X10330000Y-26536242D01*
X10228591Y-26684658D01*
X10164328Y-27002000D01*
X10164328Y-28202000D01*
X10220111Y-28498462D01*
X10351084Y-28702000D01*
X9968916Y-28702000D01*
X9924680Y-28633256D01*
X9825226Y-28565302D01*
X9848656Y-28541872D01*
X9940000Y-28321347D01*
X9940000Y-27802000D01*
X9790000Y-27652000D01*
X8940000Y-27652000D01*
X8940000Y-27672000D01*
X8840000Y-27672000D01*
X8840000Y-27652000D01*
X7990000Y-27652000D01*
X7840000Y-27802000D01*
X7840000Y-28321347D01*
X7931344Y-28541872D01*
X7953725Y-28564253D01*
X7871256Y-28617320D01*
X7688591Y-28884658D01*
X7624328Y-29202000D01*
X7624328Y-29512038D01*
X6486366Y-30650000D01*
X5255284Y-30650000D01*
X4830949Y-30224924D01*
X4169613Y-29950313D01*
X3453529Y-29949688D01*
X2791714Y-30223145D01*
X2284924Y-30729051D01*
X2010313Y-31390387D01*
X2009688Y-32106471D01*
X2283145Y-32768286D01*
X2789051Y-33275076D01*
X3450387Y-33549687D01*
X4166471Y-33550312D01*
X4828286Y-33276855D01*
X5255887Y-32850000D01*
X6942000Y-32850000D01*
X7362952Y-32766267D01*
X7719817Y-32527817D01*
X9029962Y-31217672D01*
X9340000Y-31217672D01*
X9636462Y-31161889D01*
X9908744Y-30986680D01*
X9966604Y-30902000D01*
X10351084Y-30902000D01*
X10395320Y-30970744D01*
X10662658Y-31153409D01*
X10980000Y-31217672D01*
X11880000Y-31217672D01*
X12176462Y-31161889D01*
X12448744Y-30986680D01*
X12631409Y-30719342D01*
X12695672Y-30402000D01*
X12695672Y-29202000D01*
X12639889Y-28905538D01*
X12507794Y-28700257D01*
X12631409Y-28519342D01*
X12695672Y-28202000D01*
X12695672Y-27002000D01*
X12639889Y-26705538D01*
X12530000Y-26534766D01*
X12530000Y-22721635D01*
X14394000Y-24585635D01*
X14394000Y-28194000D01*
X14477733Y-28614952D01*
X14602715Y-28802000D01*
X14716183Y-28971817D01*
X17250212Y-31505847D01*
X17249688Y-32106471D01*
X17523145Y-32768286D01*
X18029051Y-33275076D01*
X18690387Y-33549687D01*
X19406471Y-33550312D01*
X20068286Y-33276855D01*
X20575076Y-32770949D01*
X20849687Y-32109613D01*
X20850312Y-31393529D01*
X20576855Y-30731714D01*
X20070949Y-30224924D01*
X19409613Y-29950313D01*
X18805420Y-29949786D01*
X16594000Y-27738366D01*
X16594000Y-24130000D01*
X16510267Y-23709048D01*
X16414758Y-23566108D01*
X16271818Y-23352183D01*
X11191817Y-18272183D01*
X10834952Y-18033733D01*
X10414000Y-17950000D01*
X10304563Y-17950000D01*
X10252891Y-17872667D01*
X9712726Y-17511741D01*
X9075558Y-17385000D01*
X8704442Y-17385000D01*
X8067274Y-17511741D01*
X7527109Y-17872667D01*
X7166183Y-18412832D01*
X7039442Y-19050000D01*
X7166183Y-19687168D01*
X7527109Y-20227333D01*
X7665795Y-20320000D01*
X7527109Y-20412667D01*
X7475437Y-20490000D01*
X4910000Y-20490000D01*
X4910000Y-16050284D01*
X5335076Y-15625949D01*
X5609687Y-14964613D01*
X5610312Y-14248529D01*
X5336855Y-13586714D01*
X4910000Y-13159113D01*
X4910000Y-11618916D01*
X4978744Y-11574680D01*
X5161409Y-11307342D01*
X5225672Y-10990000D01*
X5225672Y-10090000D01*
X5169889Y-9793538D01*
X4994680Y-9521256D01*
X4727342Y-9338591D01*
X4410000Y-9274328D01*
X3210000Y-9274328D01*
X2913538Y-9330111D01*
X2641256Y-9505320D01*
X2458591Y-9772658D01*
X2394328Y-10090000D01*
X2394328Y-10990000D01*
X2450111Y-11286462D01*
X2625320Y-11558744D01*
X2710000Y-11616604D01*
X2710000Y-13159716D01*
X2284924Y-13584051D01*
X2010313Y-14245387D01*
X2009688Y-14961471D01*
X1510000Y-14961471D01*
X1510000Y-4010000D01*
X4750000Y-4010000D01*
X4750000Y-4929348D01*
X4841345Y-5149873D01*
X5010128Y-5318656D01*
X5230653Y-5410000D01*
X6150000Y-5410000D01*
X6300000Y-5260000D01*
X6300000Y-3860000D01*
X6400000Y-3860000D01*
X6400000Y-5260000D01*
X6550000Y-5410000D01*
X7469347Y-5410000D01*
X7620000Y-5347598D01*
X7770653Y-5410000D01*
X8690000Y-5410000D01*
X8840000Y-5260000D01*
X8840000Y-3860000D01*
X8940000Y-3860000D01*
X8940000Y-5260000D01*
X9090000Y-5410000D01*
X9676155Y-5410000D01*
X9540128Y-5466344D01*
X9371345Y-5635127D01*
X9280000Y-5855652D01*
X9280000Y-6150000D01*
X9430000Y-6300000D01*
X10430000Y-6300000D01*
X10430000Y-5525000D01*
X10280000Y-5375000D01*
X10093845Y-5375000D01*
X10229872Y-5318656D01*
X10398655Y-5149873D01*
X10490000Y-4929348D01*
X10490000Y-4010000D01*
X10340000Y-3860000D01*
X8940000Y-3860000D01*
X8840000Y-3860000D01*
X6400000Y-3860000D01*
X6300000Y-3860000D01*
X4900000Y-3860000D01*
X4750000Y-4010000D01*
X1510000Y-4010000D01*
X1510000Y-3261179D01*
X1623485Y-2690652D01*
X4750000Y-2690652D01*
X4750000Y-3610000D01*
X4900000Y-3760000D01*
X6300000Y-3760000D01*
X6300000Y-2360000D01*
X6400000Y-2360000D01*
X6400000Y-3760000D01*
X8840000Y-3760000D01*
X8840000Y-2360000D01*
X8940000Y-2360000D01*
X8940000Y-3760000D01*
X10340000Y-3760000D01*
X10490000Y-3610000D01*
X10490000Y-2690652D01*
X10398655Y-2470127D01*
X10229872Y-2301344D01*
X10009347Y-2210000D01*
X9090000Y-2210000D01*
X8940000Y-2360000D01*
X8840000Y-2360000D01*
X8690000Y-2210000D01*
X7770653Y-2210000D01*
X7620000Y-2272402D01*
X7469347Y-2210000D01*
X6550000Y-2210000D01*
X6400000Y-2360000D01*
X6300000Y-2360000D01*
X6150000Y-2210000D01*
X5230653Y-2210000D01*
X5010128Y-2301344D01*
X4841345Y-2470127D01*
X4750000Y-2690652D01*
X1623485Y-2690652D01*
X1652578Y-2544393D01*
X2009789Y-2009789D01*
X2544393Y-1652578D01*
X3261179Y-1510000D01*
X10976000Y-1510000D01*
X10976000Y-5375000D01*
M02*
