G04 #@! TF.FileFunction,Copper,L1,Top,Signal*
%FSLAX46Y46*%
G04 Gerber Fmt 4.6, Leading zero omitted, Abs format (unit mm)*
G04 Created by KiCad (PCBNEW 4.0.7) date 03/18/18 11:57:23*
%MOMM*%
%LPD*%
G01*
G04 APERTURE LIST*
%ADD10C,0.100000*%
%ADD11R,0.750000X1.200000*%
%ADD12R,1.200000X0.900000*%
%ADD13C,1.730000*%
%ADD14R,0.800000X0.900000*%
%ADD15R,0.900000X1.200000*%
%ADD16R,2.000000X2.000000*%
%ADD17C,2.000000*%
%ADD18R,1.500000X1.250000*%
%ADD19R,1.250000X1.500000*%
%ADD20C,1.600000*%
%ADD21O,1.600000X1.600000*%
%ADD22C,0.600000*%
%ADD23C,0.400000*%
G04 APERTURE END LIST*
D10*
D11*
X20955000Y-23180000D03*
X20955000Y-25080000D03*
D12*
X19685000Y-7875000D03*
X19685000Y-11175000D03*
X7366000Y-10540000D03*
X7366000Y-7240000D03*
X3810000Y-7240000D03*
X3810000Y-10540000D03*
D10*
G36*
X11876516Y-25413388D02*
X12741516Y-26911612D01*
X10983484Y-27926612D01*
X10118484Y-26428388D01*
X11876516Y-25413388D01*
X11876516Y-25413388D01*
G37*
D13*
X10289904Y-24395295D02*
X10030096Y-24545295D01*
X9019904Y-22195591D02*
X8760096Y-22345591D01*
D14*
X14285000Y-8525000D03*
X12385000Y-8525000D03*
X13335000Y-10525000D03*
D15*
X17145000Y-8425000D03*
X17145000Y-10625000D03*
D12*
X14435000Y-31750000D03*
X12235000Y-31750000D03*
D15*
X7620000Y-31750000D03*
X7620000Y-29550000D03*
D16*
X8890000Y-3810000D03*
D17*
X3810000Y-31750000D03*
D16*
X3810000Y-26670000D03*
X6350000Y-3810000D03*
D17*
X13970000Y-3810000D03*
X16510000Y-3810000D03*
X19050000Y-31750000D03*
X19050000Y-26670000D03*
D18*
X12680000Y-6350000D03*
X10180000Y-6350000D03*
D19*
X3810000Y-18435000D03*
X3810000Y-20935000D03*
D20*
X3810000Y-14605000D03*
D21*
X13970000Y-14605000D03*
D22*
X12385000Y-8525000D02*
X12385000Y-6645000D01*
X12385000Y-6645000D02*
X12680000Y-6350000D01*
X3810000Y-7240000D02*
X4446000Y-7240000D01*
X10795000Y-8525000D02*
X12385000Y-8525000D01*
X10430000Y-8890000D02*
X10795000Y-8525000D01*
X6096000Y-8890000D02*
X10430000Y-8890000D01*
X4446000Y-7240000D02*
X6096000Y-8890000D01*
X3810000Y-7240000D02*
X3938000Y-7240000D01*
X10180000Y-6350000D02*
X10180000Y-5695000D01*
X10180000Y-5695000D02*
X10795000Y-5080000D01*
X12235000Y-31750000D02*
X7620000Y-31750000D01*
X3810000Y-31750000D02*
X7620000Y-31750000D01*
X8890000Y-22270591D02*
X12872591Y-22270591D01*
X15875000Y-28575000D02*
X19050000Y-31750000D01*
X15875000Y-25273000D02*
X15875000Y-28575000D01*
X12872591Y-22270591D02*
X15875000Y-25273000D01*
X19050000Y-26670000D02*
X19365000Y-26670000D01*
X19365000Y-26670000D02*
X20955000Y-25080000D01*
X20955000Y-23180000D02*
X20955000Y-22733000D01*
X20955000Y-22733000D02*
X21209000Y-22479000D01*
X21209000Y-22479000D02*
X21209000Y-12064000D01*
X21209000Y-12064000D02*
X20320000Y-11175000D01*
X20320000Y-11175000D02*
X20320000Y-11176000D01*
X20320000Y-11175000D02*
X17695000Y-11175000D01*
X17695000Y-11175000D02*
X17145000Y-10625000D01*
X14285000Y-8525000D02*
X14285000Y-8951000D01*
X14285000Y-8951000D02*
X15959000Y-10625000D01*
X15959000Y-10625000D02*
X17145000Y-10625000D01*
X13040295Y-24470295D02*
X14435000Y-25865000D01*
X14435000Y-25865000D02*
X14435000Y-31750000D01*
X10160000Y-24470295D02*
X13040295Y-24470295D01*
X3810000Y-18435000D02*
X5060000Y-18435000D01*
X7960295Y-24470295D02*
X10160000Y-24470295D01*
X6350000Y-22860000D02*
X7960295Y-24470295D01*
X6350000Y-19725000D02*
X6350000Y-22860000D01*
X5060000Y-18435000D02*
X6350000Y-19725000D01*
X3810000Y-14605000D02*
X3810000Y-18435000D01*
X3810000Y-10540000D02*
X3810000Y-14605000D01*
X7366000Y-10540000D02*
X13320000Y-10540000D01*
X13320000Y-10540000D02*
X13335000Y-10525000D01*
X13335000Y-10525000D02*
X13335000Y-13970000D01*
X13335000Y-13970000D02*
X13970000Y-14605000D01*
D23*
G36*
X20315607Y-1652578D02*
X20850211Y-2009789D01*
X21207422Y-2544393D01*
X21350000Y-3261179D01*
X21350000Y-9452000D01*
X18173451Y-9452000D01*
X18080226Y-9388302D01*
X18103656Y-9364872D01*
X18195000Y-9144347D01*
X18195000Y-8625000D01*
X18045000Y-8475000D01*
X17195000Y-8475000D01*
X17195000Y-8495000D01*
X17095000Y-8495000D01*
X17095000Y-8475000D01*
X16245000Y-8475000D01*
X16095000Y-8625000D01*
X16095000Y-9144347D01*
X16138146Y-9248511D01*
X15500672Y-8611038D01*
X15500672Y-8075000D01*
X15444889Y-7778538D01*
X15397989Y-7705653D01*
X16095000Y-7705653D01*
X16095000Y-8225000D01*
X16245000Y-8375000D01*
X17095000Y-8375000D01*
X17095000Y-7375000D01*
X17195000Y-7375000D01*
X17195000Y-8375000D01*
X18045000Y-8375000D01*
X18195000Y-8225000D01*
X18195000Y-8075000D01*
X18485000Y-8075000D01*
X18485000Y-8444347D01*
X18576344Y-8664872D01*
X18745127Y-8833655D01*
X18965652Y-8925000D01*
X19485000Y-8925000D01*
X19635000Y-8775000D01*
X19635000Y-7925000D01*
X19735000Y-7925000D01*
X19735000Y-8775000D01*
X19885000Y-8925000D01*
X20404348Y-8925000D01*
X20624873Y-8833655D01*
X20793656Y-8664872D01*
X20885000Y-8444347D01*
X20885000Y-8075000D01*
X20735000Y-7925000D01*
X19735000Y-7925000D01*
X19635000Y-7925000D01*
X18635000Y-7925000D01*
X18485000Y-8075000D01*
X18195000Y-8075000D01*
X18195000Y-7705653D01*
X18103656Y-7485128D01*
X17934873Y-7316345D01*
X17909061Y-7305653D01*
X18485000Y-7305653D01*
X18485000Y-7675000D01*
X18635000Y-7825000D01*
X19635000Y-7825000D01*
X19635000Y-6975000D01*
X19735000Y-6975000D01*
X19735000Y-7825000D01*
X20735000Y-7825000D01*
X20885000Y-7675000D01*
X20885000Y-7305653D01*
X20793656Y-7085128D01*
X20624873Y-6916345D01*
X20404348Y-6825000D01*
X19885000Y-6825000D01*
X19735000Y-6975000D01*
X19635000Y-6975000D01*
X19485000Y-6825000D01*
X18965652Y-6825000D01*
X18745127Y-6916345D01*
X18576344Y-7085128D01*
X18485000Y-7305653D01*
X17909061Y-7305653D01*
X17714348Y-7225000D01*
X17345000Y-7225000D01*
X17195000Y-7375000D01*
X17095000Y-7375000D01*
X16945000Y-7225000D01*
X16575652Y-7225000D01*
X16355127Y-7316345D01*
X16186344Y-7485128D01*
X16095000Y-7705653D01*
X15397989Y-7705653D01*
X15269680Y-7506256D01*
X15002342Y-7323591D01*
X14685000Y-7259328D01*
X13961663Y-7259328D01*
X14030000Y-7094348D01*
X14030000Y-6550000D01*
X13880000Y-6400000D01*
X12730000Y-6400000D01*
X12730000Y-6420000D01*
X12630000Y-6420000D01*
X12630000Y-6400000D01*
X12610000Y-6400000D01*
X12610000Y-6300000D01*
X12630000Y-6300000D01*
X12630000Y-5275000D01*
X12730000Y-5275000D01*
X12730000Y-6300000D01*
X13880000Y-6300000D01*
X14030000Y-6150000D01*
X14030000Y-5605652D01*
X13948907Y-5409878D01*
X14274463Y-5412683D01*
X14864607Y-5174173D01*
X14887980Y-5158556D01*
X14981518Y-4892228D01*
X15498482Y-4892228D01*
X15592020Y-5158556D01*
X16177967Y-5407199D01*
X16814463Y-5412683D01*
X17404607Y-5174173D01*
X17427980Y-5158556D01*
X17521518Y-4892228D01*
X16510000Y-3880711D01*
X15498482Y-4892228D01*
X14981518Y-4892228D01*
X13970000Y-3880711D01*
X12958482Y-4892228D01*
X13040235Y-5125000D01*
X12880000Y-5125000D01*
X12730000Y-5275000D01*
X12630000Y-5275000D01*
X12480000Y-5125000D01*
X11886048Y-5125000D01*
X11894999Y-5080000D01*
X11884000Y-5024704D01*
X11884000Y-4114463D01*
X12367317Y-4114463D01*
X12605827Y-4704607D01*
X12621444Y-4727980D01*
X12887772Y-4821518D01*
X13899289Y-3810000D01*
X14040711Y-3810000D01*
X15052228Y-4821518D01*
X15240000Y-4755570D01*
X15427772Y-4821518D01*
X16439289Y-3810000D01*
X16580711Y-3810000D01*
X17592228Y-4821518D01*
X17858556Y-4727980D01*
X18107199Y-4142033D01*
X18112683Y-3505537D01*
X17874173Y-2915393D01*
X17858556Y-2892020D01*
X17592228Y-2798482D01*
X16580711Y-3810000D01*
X16439289Y-3810000D01*
X15427772Y-2798482D01*
X15240000Y-2864430D01*
X15052228Y-2798482D01*
X14040711Y-3810000D01*
X13899289Y-3810000D01*
X12887772Y-2798482D01*
X12621444Y-2892020D01*
X12372801Y-3477967D01*
X12367317Y-4114463D01*
X11884000Y-4114463D01*
X11884000Y-2727772D01*
X12958482Y-2727772D01*
X13970000Y-3739289D01*
X14981518Y-2727772D01*
X15498482Y-2727772D01*
X16510000Y-3739289D01*
X17521518Y-2727772D01*
X17427980Y-2461444D01*
X16842033Y-2212801D01*
X16205537Y-2207317D01*
X15615393Y-2445827D01*
X15592020Y-2461444D01*
X15498482Y-2727772D01*
X14981518Y-2727772D01*
X14887980Y-2461444D01*
X14302033Y-2212801D01*
X13665537Y-2207317D01*
X13075393Y-2445827D01*
X13052020Y-2461444D01*
X12958482Y-2727772D01*
X11884000Y-2727772D01*
X11884000Y-1510000D01*
X19598821Y-1510000D01*
X20315607Y-1652578D01*
X20315607Y-1652578D01*
G37*
X20315607Y-1652578D02*
X20850211Y-2009789D01*
X21207422Y-2544393D01*
X21350000Y-3261179D01*
X21350000Y-9452000D01*
X18173451Y-9452000D01*
X18080226Y-9388302D01*
X18103656Y-9364872D01*
X18195000Y-9144347D01*
X18195000Y-8625000D01*
X18045000Y-8475000D01*
X17195000Y-8475000D01*
X17195000Y-8495000D01*
X17095000Y-8495000D01*
X17095000Y-8475000D01*
X16245000Y-8475000D01*
X16095000Y-8625000D01*
X16095000Y-9144347D01*
X16138146Y-9248511D01*
X15500672Y-8611038D01*
X15500672Y-8075000D01*
X15444889Y-7778538D01*
X15397989Y-7705653D01*
X16095000Y-7705653D01*
X16095000Y-8225000D01*
X16245000Y-8375000D01*
X17095000Y-8375000D01*
X17095000Y-7375000D01*
X17195000Y-7375000D01*
X17195000Y-8375000D01*
X18045000Y-8375000D01*
X18195000Y-8225000D01*
X18195000Y-8075000D01*
X18485000Y-8075000D01*
X18485000Y-8444347D01*
X18576344Y-8664872D01*
X18745127Y-8833655D01*
X18965652Y-8925000D01*
X19485000Y-8925000D01*
X19635000Y-8775000D01*
X19635000Y-7925000D01*
X19735000Y-7925000D01*
X19735000Y-8775000D01*
X19885000Y-8925000D01*
X20404348Y-8925000D01*
X20624873Y-8833655D01*
X20793656Y-8664872D01*
X20885000Y-8444347D01*
X20885000Y-8075000D01*
X20735000Y-7925000D01*
X19735000Y-7925000D01*
X19635000Y-7925000D01*
X18635000Y-7925000D01*
X18485000Y-8075000D01*
X18195000Y-8075000D01*
X18195000Y-7705653D01*
X18103656Y-7485128D01*
X17934873Y-7316345D01*
X17909061Y-7305653D01*
X18485000Y-7305653D01*
X18485000Y-7675000D01*
X18635000Y-7825000D01*
X19635000Y-7825000D01*
X19635000Y-6975000D01*
X19735000Y-6975000D01*
X19735000Y-7825000D01*
X20735000Y-7825000D01*
X20885000Y-7675000D01*
X20885000Y-7305653D01*
X20793656Y-7085128D01*
X20624873Y-6916345D01*
X20404348Y-6825000D01*
X19885000Y-6825000D01*
X19735000Y-6975000D01*
X19635000Y-6975000D01*
X19485000Y-6825000D01*
X18965652Y-6825000D01*
X18745127Y-6916345D01*
X18576344Y-7085128D01*
X18485000Y-7305653D01*
X17909061Y-7305653D01*
X17714348Y-7225000D01*
X17345000Y-7225000D01*
X17195000Y-7375000D01*
X17095000Y-7375000D01*
X16945000Y-7225000D01*
X16575652Y-7225000D01*
X16355127Y-7316345D01*
X16186344Y-7485128D01*
X16095000Y-7705653D01*
X15397989Y-7705653D01*
X15269680Y-7506256D01*
X15002342Y-7323591D01*
X14685000Y-7259328D01*
X13961663Y-7259328D01*
X14030000Y-7094348D01*
X14030000Y-6550000D01*
X13880000Y-6400000D01*
X12730000Y-6400000D01*
X12730000Y-6420000D01*
X12630000Y-6420000D01*
X12630000Y-6400000D01*
X12610000Y-6400000D01*
X12610000Y-6300000D01*
X12630000Y-6300000D01*
X12630000Y-5275000D01*
X12730000Y-5275000D01*
X12730000Y-6300000D01*
X13880000Y-6300000D01*
X14030000Y-6150000D01*
X14030000Y-5605652D01*
X13948907Y-5409878D01*
X14274463Y-5412683D01*
X14864607Y-5174173D01*
X14887980Y-5158556D01*
X14981518Y-4892228D01*
X15498482Y-4892228D01*
X15592020Y-5158556D01*
X16177967Y-5407199D01*
X16814463Y-5412683D01*
X17404607Y-5174173D01*
X17427980Y-5158556D01*
X17521518Y-4892228D01*
X16510000Y-3880711D01*
X15498482Y-4892228D01*
X14981518Y-4892228D01*
X13970000Y-3880711D01*
X12958482Y-4892228D01*
X13040235Y-5125000D01*
X12880000Y-5125000D01*
X12730000Y-5275000D01*
X12630000Y-5275000D01*
X12480000Y-5125000D01*
X11886048Y-5125000D01*
X11894999Y-5080000D01*
X11884000Y-5024704D01*
X11884000Y-4114463D01*
X12367317Y-4114463D01*
X12605827Y-4704607D01*
X12621444Y-4727980D01*
X12887772Y-4821518D01*
X13899289Y-3810000D01*
X14040711Y-3810000D01*
X15052228Y-4821518D01*
X15240000Y-4755570D01*
X15427772Y-4821518D01*
X16439289Y-3810000D01*
X16580711Y-3810000D01*
X17592228Y-4821518D01*
X17858556Y-4727980D01*
X18107199Y-4142033D01*
X18112683Y-3505537D01*
X17874173Y-2915393D01*
X17858556Y-2892020D01*
X17592228Y-2798482D01*
X16580711Y-3810000D01*
X16439289Y-3810000D01*
X15427772Y-2798482D01*
X15240000Y-2864430D01*
X15052228Y-2798482D01*
X14040711Y-3810000D01*
X13899289Y-3810000D01*
X12887772Y-2798482D01*
X12621444Y-2892020D01*
X12372801Y-3477967D01*
X12367317Y-4114463D01*
X11884000Y-4114463D01*
X11884000Y-2727772D01*
X12958482Y-2727772D01*
X13970000Y-3739289D01*
X14981518Y-2727772D01*
X15498482Y-2727772D01*
X16510000Y-3739289D01*
X17521518Y-2727772D01*
X17427980Y-2461444D01*
X16842033Y-2212801D01*
X16205537Y-2207317D01*
X15615393Y-2445827D01*
X15592020Y-2461444D01*
X15498482Y-2727772D01*
X14981518Y-2727772D01*
X14887980Y-2461444D01*
X14302033Y-2212801D01*
X13665537Y-2207317D01*
X13075393Y-2445827D01*
X13052020Y-2461444D01*
X12958482Y-2727772D01*
X11884000Y-2727772D01*
X11884000Y-1510000D01*
X19598821Y-1510000D01*
X20315607Y-1652578D01*
G36*
X12435000Y-8475000D02*
X12455000Y-8475000D01*
X12455000Y-8575000D01*
X12435000Y-8575000D01*
X12435000Y-8595000D01*
X12335000Y-8595000D01*
X12335000Y-8575000D01*
X12315000Y-8575000D01*
X12315000Y-8475000D01*
X12335000Y-8475000D01*
X12335000Y-8455000D01*
X12435000Y-8455000D01*
X12435000Y-8475000D01*
X12435000Y-8475000D01*
G37*
X12435000Y-8475000D02*
X12455000Y-8475000D01*
X12455000Y-8575000D01*
X12435000Y-8575000D01*
X12435000Y-8595000D01*
X12335000Y-8595000D01*
X12335000Y-8575000D01*
X12315000Y-8575000D01*
X12315000Y-8475000D01*
X12335000Y-8475000D01*
X12335000Y-8455000D01*
X12435000Y-8455000D01*
X12435000Y-8475000D01*
G36*
X10976000Y-5125000D02*
X10408958Y-5125000D01*
X10490000Y-4929348D01*
X10490000Y-4010000D01*
X10340000Y-3860000D01*
X8940000Y-3860000D01*
X8940000Y-5260000D01*
X8993236Y-5313236D01*
X8921345Y-5385127D01*
X8830000Y-5605652D01*
X8830000Y-6150000D01*
X8980000Y-6300000D01*
X10130000Y-6300000D01*
X10130000Y-6280000D01*
X10230000Y-6280000D01*
X10230000Y-6300000D01*
X10250000Y-6300000D01*
X10250000Y-6400000D01*
X10230000Y-6400000D01*
X10230000Y-7425000D01*
X10337892Y-7532892D01*
X10035582Y-7734889D01*
X10017183Y-7747183D01*
X9974366Y-7790000D01*
X8566000Y-7790000D01*
X8566000Y-7440000D01*
X8416000Y-7290000D01*
X7416000Y-7290000D01*
X7416000Y-7310000D01*
X7316000Y-7310000D01*
X7316000Y-7290000D01*
X6316000Y-7290000D01*
X6183817Y-7422183D01*
X5432287Y-6670653D01*
X6166000Y-6670653D01*
X6166000Y-7040000D01*
X6316000Y-7190000D01*
X7316000Y-7190000D01*
X7316000Y-6340000D01*
X7416000Y-6340000D01*
X7416000Y-7190000D01*
X8416000Y-7190000D01*
X8566000Y-7040000D01*
X8566000Y-6670653D01*
X8516025Y-6550000D01*
X8830000Y-6550000D01*
X8830000Y-7094348D01*
X8921345Y-7314873D01*
X9090128Y-7483656D01*
X9310653Y-7575000D01*
X9980000Y-7575000D01*
X10130000Y-7425000D01*
X10130000Y-6400000D01*
X8980000Y-6400000D01*
X8830000Y-6550000D01*
X8516025Y-6550000D01*
X8474656Y-6450128D01*
X8305873Y-6281345D01*
X8085348Y-6190000D01*
X7566000Y-6190000D01*
X7416000Y-6340000D01*
X7316000Y-6340000D01*
X7166000Y-6190000D01*
X6646652Y-6190000D01*
X6426127Y-6281345D01*
X6257344Y-6450128D01*
X6166000Y-6670653D01*
X5432287Y-6670653D01*
X5223817Y-6462183D01*
X5205775Y-6450128D01*
X5093818Y-6375320D01*
X4994680Y-6221256D01*
X4727342Y-6038591D01*
X4410000Y-5974328D01*
X3210000Y-5974328D01*
X2913538Y-6030111D01*
X2641256Y-6205320D01*
X2458591Y-6472658D01*
X2394328Y-6790000D01*
X2394328Y-7690000D01*
X2450111Y-7986462D01*
X2625320Y-8258744D01*
X2892658Y-8441409D01*
X3210000Y-8505672D01*
X4156038Y-8505672D01*
X5318182Y-9667817D01*
X5675048Y-9906267D01*
X5975435Y-9966018D01*
X5950328Y-10090000D01*
X5950328Y-10990000D01*
X6006111Y-11286462D01*
X6181320Y-11558744D01*
X6448658Y-11741409D01*
X6766000Y-11805672D01*
X7966000Y-11805672D01*
X8262462Y-11749889D01*
X8433234Y-11640000D01*
X12235000Y-11640000D01*
X12235000Y-13970000D01*
X12318733Y-14390952D01*
X12366894Y-14463030D01*
X12338654Y-14605000D01*
X12460447Y-15217293D01*
X12807283Y-15736371D01*
X13326361Y-16083207D01*
X13938654Y-16205000D01*
X14001346Y-16205000D01*
X14613639Y-16083207D01*
X15132717Y-15736371D01*
X15479553Y-15217293D01*
X15601346Y-14605000D01*
X15479553Y-13992707D01*
X15132717Y-13473629D01*
X14613639Y-13126793D01*
X14435000Y-13091259D01*
X14435000Y-11367581D01*
X14486409Y-11292342D01*
X14550672Y-10975000D01*
X14550672Y-10772307D01*
X15181183Y-11402818D01*
X15538049Y-11641268D01*
X15959000Y-11725000D01*
X16066084Y-11725000D01*
X16110320Y-11793744D01*
X16377658Y-11976409D01*
X16695000Y-12040672D01*
X17048666Y-12040672D01*
X17274048Y-12191267D01*
X17695000Y-12275000D01*
X18619242Y-12275000D01*
X18767658Y-12376409D01*
X19085000Y-12440672D01*
X20030037Y-12440672D01*
X20109000Y-12519635D01*
X20109000Y-21932423D01*
X20011256Y-21995320D01*
X19828591Y-22262658D01*
X19764328Y-22580000D01*
X19764328Y-23780000D01*
X19820111Y-24076462D01*
X19852788Y-24127244D01*
X19828591Y-24162658D01*
X19764328Y-24480000D01*
X19764328Y-24715037D01*
X19550536Y-24928829D01*
X19409613Y-24870313D01*
X18693529Y-24869688D01*
X18031714Y-25143145D01*
X17524924Y-25649051D01*
X17250313Y-26310387D01*
X17249688Y-27026471D01*
X17523145Y-27688286D01*
X18029051Y-28195076D01*
X18690387Y-28469687D01*
X19406471Y-28470312D01*
X20068286Y-28196855D01*
X20575076Y-27690949D01*
X20849687Y-27029613D01*
X20849939Y-26740695D01*
X21094963Y-26495672D01*
X21330000Y-26495672D01*
X21350000Y-26491909D01*
X21350000Y-32298821D01*
X21207422Y-33015607D01*
X20850211Y-33550211D01*
X20315607Y-33907422D01*
X19598821Y-34050000D01*
X3261179Y-34050000D01*
X2544393Y-33907422D01*
X2009789Y-33550211D01*
X1652578Y-33015607D01*
X1510000Y-32298821D01*
X1510000Y-32106471D01*
X2009688Y-32106471D01*
X2283145Y-32768286D01*
X2789051Y-33275076D01*
X3450387Y-33549687D01*
X4166471Y-33550312D01*
X4828286Y-33276855D01*
X5255887Y-32850000D01*
X6541084Y-32850000D01*
X6585320Y-32918744D01*
X6852658Y-33101409D01*
X7170000Y-33165672D01*
X8070000Y-33165672D01*
X8366462Y-33109889D01*
X8638744Y-32934680D01*
X8696604Y-32850000D01*
X11169242Y-32850000D01*
X11317658Y-32951409D01*
X11635000Y-33015672D01*
X12835000Y-33015672D01*
X13131462Y-32959889D01*
X13336743Y-32827794D01*
X13517658Y-32951409D01*
X13835000Y-33015672D01*
X15035000Y-33015672D01*
X15331462Y-32959889D01*
X15603744Y-32784680D01*
X15786409Y-32517342D01*
X15850672Y-32200000D01*
X15850672Y-31300000D01*
X15794889Y-31003538D01*
X15619680Y-30731256D01*
X15535000Y-30673396D01*
X15535000Y-29790634D01*
X17250212Y-31505847D01*
X17249688Y-32106471D01*
X17523145Y-32768286D01*
X18029051Y-33275076D01*
X18690387Y-33549687D01*
X19406471Y-33550312D01*
X20068286Y-33276855D01*
X20575076Y-32770949D01*
X20849687Y-32109613D01*
X20850312Y-31393529D01*
X20576855Y-30731714D01*
X20070949Y-30224924D01*
X19409613Y-29950313D01*
X18805420Y-29949786D01*
X16975000Y-28119366D01*
X16975000Y-25273000D01*
X16922692Y-25010030D01*
X16891268Y-24852049D01*
X16652818Y-24495183D01*
X13650408Y-21492774D01*
X13293543Y-21254324D01*
X12872591Y-21170591D01*
X10339404Y-21170591D01*
X10064285Y-20856879D01*
X9481632Y-20569545D01*
X8833372Y-20527057D01*
X8218198Y-20735880D01*
X7896802Y-20921438D01*
X7450000Y-21313273D01*
X7450000Y-19725000D01*
X7366267Y-19304048D01*
X7286722Y-19185000D01*
X7127817Y-18947182D01*
X5837817Y-17657183D01*
X5480952Y-17418733D01*
X5175181Y-17357911D01*
X5019680Y-17116256D01*
X4910000Y-17041315D01*
X4910000Y-15767688D01*
X5165623Y-15512511D01*
X5409722Y-14924656D01*
X5410277Y-14288137D01*
X5167205Y-13699857D01*
X4910000Y-13442202D01*
X4910000Y-11618916D01*
X4978744Y-11574680D01*
X5161409Y-11307342D01*
X5225672Y-10990000D01*
X5225672Y-10090000D01*
X5169889Y-9793538D01*
X4994680Y-9521256D01*
X4727342Y-9338591D01*
X4410000Y-9274328D01*
X3210000Y-9274328D01*
X2913538Y-9330111D01*
X2641256Y-9505320D01*
X2458591Y-9772658D01*
X2394328Y-10090000D01*
X2394328Y-10990000D01*
X2450111Y-11286462D01*
X2625320Y-11558744D01*
X2710000Y-11616604D01*
X2710000Y-13442312D01*
X2454377Y-13697489D01*
X2210278Y-14285344D01*
X2209723Y-14921863D01*
X2452795Y-15510143D01*
X2710000Y-15767798D01*
X2710000Y-17039997D01*
X2616256Y-17100320D01*
X2433591Y-17367658D01*
X2369328Y-17685000D01*
X2369328Y-19185000D01*
X2425111Y-19481462D01*
X2600320Y-19753744D01*
X2699774Y-19821698D01*
X2676344Y-19845128D01*
X2585000Y-20065653D01*
X2585000Y-20735000D01*
X2735000Y-20885000D01*
X3760000Y-20885000D01*
X3760000Y-20865000D01*
X3860000Y-20865000D01*
X3860000Y-20885000D01*
X4885000Y-20885000D01*
X5035000Y-20735000D01*
X5035000Y-20065653D01*
X4964277Y-19894911D01*
X5250000Y-20180635D01*
X5250000Y-22860000D01*
X5333733Y-23280952D01*
X5393431Y-23370296D01*
X5572183Y-23637817D01*
X7182478Y-25248112D01*
X7539343Y-25486562D01*
X7960295Y-25570295D01*
X8710596Y-25570295D01*
X8985714Y-25884007D01*
X9566448Y-26170394D01*
X9508040Y-26388377D01*
X9539195Y-26625030D01*
X9658542Y-26831746D01*
X9931369Y-27304295D01*
X10136273Y-27359199D01*
X11361699Y-26651699D01*
X11351699Y-26634378D01*
X11438301Y-26584378D01*
X11448301Y-26601699D01*
X12673727Y-25894199D01*
X12723354Y-25708988D01*
X13335000Y-26320635D01*
X13335000Y-26822795D01*
X13320805Y-26714970D01*
X13201458Y-26508254D01*
X12928631Y-26035705D01*
X12723727Y-25980801D01*
X11498301Y-26688301D01*
X12130801Y-27783823D01*
X12335705Y-27838727D01*
X13144873Y-27371554D01*
X13290182Y-27182185D01*
X13335000Y-27014920D01*
X13335000Y-30671084D01*
X13333257Y-30672206D01*
X13152342Y-30548591D01*
X12835000Y-30484328D01*
X11635000Y-30484328D01*
X11338538Y-30540111D01*
X11167766Y-30650000D01*
X8698916Y-30650000D01*
X8654680Y-30581256D01*
X8555226Y-30513302D01*
X8578656Y-30489872D01*
X8670000Y-30269347D01*
X8670000Y-29750000D01*
X8520000Y-29600000D01*
X7670000Y-29600000D01*
X7670000Y-29620000D01*
X7570000Y-29620000D01*
X7570000Y-29600000D01*
X6720000Y-29600000D01*
X6570000Y-29750000D01*
X6570000Y-30269347D01*
X6661344Y-30489872D01*
X6683725Y-30512253D01*
X6601256Y-30565320D01*
X6543396Y-30650000D01*
X5255284Y-30650000D01*
X4830949Y-30224924D01*
X4169613Y-29950313D01*
X3453529Y-29949688D01*
X2791714Y-30223145D01*
X2284924Y-30729051D01*
X2010313Y-31390387D01*
X2009688Y-32106471D01*
X1510000Y-32106471D01*
X1510000Y-28830653D01*
X6570000Y-28830653D01*
X6570000Y-29350000D01*
X6720000Y-29500000D01*
X7570000Y-29500000D01*
X7570000Y-28500000D01*
X7670000Y-28500000D01*
X7670000Y-29500000D01*
X8520000Y-29500000D01*
X8670000Y-29350000D01*
X8670000Y-28830653D01*
X8578656Y-28610128D01*
X8409873Y-28441345D01*
X8189348Y-28350000D01*
X7820000Y-28350000D01*
X7670000Y-28500000D01*
X7570000Y-28500000D01*
X7420000Y-28350000D01*
X7050652Y-28350000D01*
X6830127Y-28441345D01*
X6661344Y-28610128D01*
X6570000Y-28830653D01*
X1510000Y-28830653D01*
X1510000Y-26870000D01*
X2210000Y-26870000D01*
X2210000Y-27789348D01*
X2301345Y-28009873D01*
X2470128Y-28178656D01*
X2690653Y-28270000D01*
X3610000Y-28270000D01*
X3760000Y-28120000D01*
X3760000Y-26720000D01*
X3860000Y-26720000D01*
X3860000Y-28120000D01*
X4010000Y-28270000D01*
X4929347Y-28270000D01*
X5149872Y-28178656D01*
X5318655Y-28009873D01*
X5410000Y-27789348D01*
X5410000Y-27650705D01*
X10131369Y-27650705D01*
X10404195Y-28123254D01*
X10523543Y-28329970D01*
X10712913Y-28475278D01*
X10943474Y-28537057D01*
X11180127Y-28505901D01*
X11989295Y-28038727D01*
X12044199Y-27833823D01*
X11411699Y-26738301D01*
X10186273Y-27445801D01*
X10131369Y-27650705D01*
X5410000Y-27650705D01*
X5410000Y-26870000D01*
X5260000Y-26720000D01*
X3860000Y-26720000D01*
X3760000Y-26720000D01*
X2360000Y-26720000D01*
X2210000Y-26870000D01*
X1510000Y-26870000D01*
X1510000Y-25550652D01*
X2210000Y-25550652D01*
X2210000Y-26470000D01*
X2360000Y-26620000D01*
X3760000Y-26620000D01*
X3760000Y-25220000D01*
X3860000Y-25220000D01*
X3860000Y-26620000D01*
X5260000Y-26620000D01*
X5410000Y-26470000D01*
X5410000Y-25550652D01*
X5318655Y-25330127D01*
X5149872Y-25161344D01*
X4929347Y-25070000D01*
X4010000Y-25070000D01*
X3860000Y-25220000D01*
X3760000Y-25220000D01*
X3610000Y-25070000D01*
X2690653Y-25070000D01*
X2470128Y-25161344D01*
X2301345Y-25330127D01*
X2210000Y-25550652D01*
X1510000Y-25550652D01*
X1510000Y-21135000D01*
X2585000Y-21135000D01*
X2585000Y-21804347D01*
X2676344Y-22024872D01*
X2845127Y-22193655D01*
X3065652Y-22285000D01*
X3610000Y-22285000D01*
X3760000Y-22135000D01*
X3760000Y-20985000D01*
X3860000Y-20985000D01*
X3860000Y-22135000D01*
X4010000Y-22285000D01*
X4554348Y-22285000D01*
X4774873Y-22193655D01*
X4943656Y-22024872D01*
X5035000Y-21804347D01*
X5035000Y-21135000D01*
X4885000Y-20985000D01*
X3860000Y-20985000D01*
X3760000Y-20985000D01*
X2735000Y-20985000D01*
X2585000Y-21135000D01*
X1510000Y-21135000D01*
X1510000Y-4010000D01*
X4750000Y-4010000D01*
X4750000Y-4929348D01*
X4841345Y-5149873D01*
X5010128Y-5318656D01*
X5230653Y-5410000D01*
X6150000Y-5410000D01*
X6300000Y-5260000D01*
X6300000Y-3860000D01*
X6400000Y-3860000D01*
X6400000Y-5260000D01*
X6550000Y-5410000D01*
X7469347Y-5410000D01*
X7620000Y-5347598D01*
X7770653Y-5410000D01*
X8690000Y-5410000D01*
X8840000Y-5260000D01*
X8840000Y-3860000D01*
X6400000Y-3860000D01*
X6300000Y-3860000D01*
X4900000Y-3860000D01*
X4750000Y-4010000D01*
X1510000Y-4010000D01*
X1510000Y-3261179D01*
X1623485Y-2690652D01*
X4750000Y-2690652D01*
X4750000Y-3610000D01*
X4900000Y-3760000D01*
X6300000Y-3760000D01*
X6300000Y-2360000D01*
X6400000Y-2360000D01*
X6400000Y-3760000D01*
X8840000Y-3760000D01*
X8840000Y-2360000D01*
X8940000Y-2360000D01*
X8940000Y-3760000D01*
X10340000Y-3760000D01*
X10490000Y-3610000D01*
X10490000Y-2690652D01*
X10398655Y-2470127D01*
X10229872Y-2301344D01*
X10009347Y-2210000D01*
X9090000Y-2210000D01*
X8940000Y-2360000D01*
X8840000Y-2360000D01*
X8690000Y-2210000D01*
X7770653Y-2210000D01*
X7620000Y-2272402D01*
X7469347Y-2210000D01*
X6550000Y-2210000D01*
X6400000Y-2360000D01*
X6300000Y-2360000D01*
X6150000Y-2210000D01*
X5230653Y-2210000D01*
X5010128Y-2301344D01*
X4841345Y-2470127D01*
X4750000Y-2690652D01*
X1623485Y-2690652D01*
X1652578Y-2544393D01*
X2009789Y-2009789D01*
X2544393Y-1652578D01*
X3261179Y-1510000D01*
X10976000Y-1510000D01*
X10976000Y-5125000D01*
X10976000Y-5125000D01*
G37*
X10976000Y-5125000D02*
X10408958Y-5125000D01*
X10490000Y-4929348D01*
X10490000Y-4010000D01*
X10340000Y-3860000D01*
X8940000Y-3860000D01*
X8940000Y-5260000D01*
X8993236Y-5313236D01*
X8921345Y-5385127D01*
X8830000Y-5605652D01*
X8830000Y-6150000D01*
X8980000Y-6300000D01*
X10130000Y-6300000D01*
X10130000Y-6280000D01*
X10230000Y-6280000D01*
X10230000Y-6300000D01*
X10250000Y-6300000D01*
X10250000Y-6400000D01*
X10230000Y-6400000D01*
X10230000Y-7425000D01*
X10337892Y-7532892D01*
X10035582Y-7734889D01*
X10017183Y-7747183D01*
X9974366Y-7790000D01*
X8566000Y-7790000D01*
X8566000Y-7440000D01*
X8416000Y-7290000D01*
X7416000Y-7290000D01*
X7416000Y-7310000D01*
X7316000Y-7310000D01*
X7316000Y-7290000D01*
X6316000Y-7290000D01*
X6183817Y-7422183D01*
X5432287Y-6670653D01*
X6166000Y-6670653D01*
X6166000Y-7040000D01*
X6316000Y-7190000D01*
X7316000Y-7190000D01*
X7316000Y-6340000D01*
X7416000Y-6340000D01*
X7416000Y-7190000D01*
X8416000Y-7190000D01*
X8566000Y-7040000D01*
X8566000Y-6670653D01*
X8516025Y-6550000D01*
X8830000Y-6550000D01*
X8830000Y-7094348D01*
X8921345Y-7314873D01*
X9090128Y-7483656D01*
X9310653Y-7575000D01*
X9980000Y-7575000D01*
X10130000Y-7425000D01*
X10130000Y-6400000D01*
X8980000Y-6400000D01*
X8830000Y-6550000D01*
X8516025Y-6550000D01*
X8474656Y-6450128D01*
X8305873Y-6281345D01*
X8085348Y-6190000D01*
X7566000Y-6190000D01*
X7416000Y-6340000D01*
X7316000Y-6340000D01*
X7166000Y-6190000D01*
X6646652Y-6190000D01*
X6426127Y-6281345D01*
X6257344Y-6450128D01*
X6166000Y-6670653D01*
X5432287Y-6670653D01*
X5223817Y-6462183D01*
X5205775Y-6450128D01*
X5093818Y-6375320D01*
X4994680Y-6221256D01*
X4727342Y-6038591D01*
X4410000Y-5974328D01*
X3210000Y-5974328D01*
X2913538Y-6030111D01*
X2641256Y-6205320D01*
X2458591Y-6472658D01*
X2394328Y-6790000D01*
X2394328Y-7690000D01*
X2450111Y-7986462D01*
X2625320Y-8258744D01*
X2892658Y-8441409D01*
X3210000Y-8505672D01*
X4156038Y-8505672D01*
X5318182Y-9667817D01*
X5675048Y-9906267D01*
X5975435Y-9966018D01*
X5950328Y-10090000D01*
X5950328Y-10990000D01*
X6006111Y-11286462D01*
X6181320Y-11558744D01*
X6448658Y-11741409D01*
X6766000Y-11805672D01*
X7966000Y-11805672D01*
X8262462Y-11749889D01*
X8433234Y-11640000D01*
X12235000Y-11640000D01*
X12235000Y-13970000D01*
X12318733Y-14390952D01*
X12366894Y-14463030D01*
X12338654Y-14605000D01*
X12460447Y-15217293D01*
X12807283Y-15736371D01*
X13326361Y-16083207D01*
X13938654Y-16205000D01*
X14001346Y-16205000D01*
X14613639Y-16083207D01*
X15132717Y-15736371D01*
X15479553Y-15217293D01*
X15601346Y-14605000D01*
X15479553Y-13992707D01*
X15132717Y-13473629D01*
X14613639Y-13126793D01*
X14435000Y-13091259D01*
X14435000Y-11367581D01*
X14486409Y-11292342D01*
X14550672Y-10975000D01*
X14550672Y-10772307D01*
X15181183Y-11402818D01*
X15538049Y-11641268D01*
X15959000Y-11725000D01*
X16066084Y-11725000D01*
X16110320Y-11793744D01*
X16377658Y-11976409D01*
X16695000Y-12040672D01*
X17048666Y-12040672D01*
X17274048Y-12191267D01*
X17695000Y-12275000D01*
X18619242Y-12275000D01*
X18767658Y-12376409D01*
X19085000Y-12440672D01*
X20030037Y-12440672D01*
X20109000Y-12519635D01*
X20109000Y-21932423D01*
X20011256Y-21995320D01*
X19828591Y-22262658D01*
X19764328Y-22580000D01*
X19764328Y-23780000D01*
X19820111Y-24076462D01*
X19852788Y-24127244D01*
X19828591Y-24162658D01*
X19764328Y-24480000D01*
X19764328Y-24715037D01*
X19550536Y-24928829D01*
X19409613Y-24870313D01*
X18693529Y-24869688D01*
X18031714Y-25143145D01*
X17524924Y-25649051D01*
X17250313Y-26310387D01*
X17249688Y-27026471D01*
X17523145Y-27688286D01*
X18029051Y-28195076D01*
X18690387Y-28469687D01*
X19406471Y-28470312D01*
X20068286Y-28196855D01*
X20575076Y-27690949D01*
X20849687Y-27029613D01*
X20849939Y-26740695D01*
X21094963Y-26495672D01*
X21330000Y-26495672D01*
X21350000Y-26491909D01*
X21350000Y-32298821D01*
X21207422Y-33015607D01*
X20850211Y-33550211D01*
X20315607Y-33907422D01*
X19598821Y-34050000D01*
X3261179Y-34050000D01*
X2544393Y-33907422D01*
X2009789Y-33550211D01*
X1652578Y-33015607D01*
X1510000Y-32298821D01*
X1510000Y-32106471D01*
X2009688Y-32106471D01*
X2283145Y-32768286D01*
X2789051Y-33275076D01*
X3450387Y-33549687D01*
X4166471Y-33550312D01*
X4828286Y-33276855D01*
X5255887Y-32850000D01*
X6541084Y-32850000D01*
X6585320Y-32918744D01*
X6852658Y-33101409D01*
X7170000Y-33165672D01*
X8070000Y-33165672D01*
X8366462Y-33109889D01*
X8638744Y-32934680D01*
X8696604Y-32850000D01*
X11169242Y-32850000D01*
X11317658Y-32951409D01*
X11635000Y-33015672D01*
X12835000Y-33015672D01*
X13131462Y-32959889D01*
X13336743Y-32827794D01*
X13517658Y-32951409D01*
X13835000Y-33015672D01*
X15035000Y-33015672D01*
X15331462Y-32959889D01*
X15603744Y-32784680D01*
X15786409Y-32517342D01*
X15850672Y-32200000D01*
X15850672Y-31300000D01*
X15794889Y-31003538D01*
X15619680Y-30731256D01*
X15535000Y-30673396D01*
X15535000Y-29790634D01*
X17250212Y-31505847D01*
X17249688Y-32106471D01*
X17523145Y-32768286D01*
X18029051Y-33275076D01*
X18690387Y-33549687D01*
X19406471Y-33550312D01*
X20068286Y-33276855D01*
X20575076Y-32770949D01*
X20849687Y-32109613D01*
X20850312Y-31393529D01*
X20576855Y-30731714D01*
X20070949Y-30224924D01*
X19409613Y-29950313D01*
X18805420Y-29949786D01*
X16975000Y-28119366D01*
X16975000Y-25273000D01*
X16922692Y-25010030D01*
X16891268Y-24852049D01*
X16652818Y-24495183D01*
X13650408Y-21492774D01*
X13293543Y-21254324D01*
X12872591Y-21170591D01*
X10339404Y-21170591D01*
X10064285Y-20856879D01*
X9481632Y-20569545D01*
X8833372Y-20527057D01*
X8218198Y-20735880D01*
X7896802Y-20921438D01*
X7450000Y-21313273D01*
X7450000Y-19725000D01*
X7366267Y-19304048D01*
X7286722Y-19185000D01*
X7127817Y-18947182D01*
X5837817Y-17657183D01*
X5480952Y-17418733D01*
X5175181Y-17357911D01*
X5019680Y-17116256D01*
X4910000Y-17041315D01*
X4910000Y-15767688D01*
X5165623Y-15512511D01*
X5409722Y-14924656D01*
X5410277Y-14288137D01*
X5167205Y-13699857D01*
X4910000Y-13442202D01*
X4910000Y-11618916D01*
X4978744Y-11574680D01*
X5161409Y-11307342D01*
X5225672Y-10990000D01*
X5225672Y-10090000D01*
X5169889Y-9793538D01*
X4994680Y-9521256D01*
X4727342Y-9338591D01*
X4410000Y-9274328D01*
X3210000Y-9274328D01*
X2913538Y-9330111D01*
X2641256Y-9505320D01*
X2458591Y-9772658D01*
X2394328Y-10090000D01*
X2394328Y-10990000D01*
X2450111Y-11286462D01*
X2625320Y-11558744D01*
X2710000Y-11616604D01*
X2710000Y-13442312D01*
X2454377Y-13697489D01*
X2210278Y-14285344D01*
X2209723Y-14921863D01*
X2452795Y-15510143D01*
X2710000Y-15767798D01*
X2710000Y-17039997D01*
X2616256Y-17100320D01*
X2433591Y-17367658D01*
X2369328Y-17685000D01*
X2369328Y-19185000D01*
X2425111Y-19481462D01*
X2600320Y-19753744D01*
X2699774Y-19821698D01*
X2676344Y-19845128D01*
X2585000Y-20065653D01*
X2585000Y-20735000D01*
X2735000Y-20885000D01*
X3760000Y-20885000D01*
X3760000Y-20865000D01*
X3860000Y-20865000D01*
X3860000Y-20885000D01*
X4885000Y-20885000D01*
X5035000Y-20735000D01*
X5035000Y-20065653D01*
X4964277Y-19894911D01*
X5250000Y-20180635D01*
X5250000Y-22860000D01*
X5333733Y-23280952D01*
X5393431Y-23370296D01*
X5572183Y-23637817D01*
X7182478Y-25248112D01*
X7539343Y-25486562D01*
X7960295Y-25570295D01*
X8710596Y-25570295D01*
X8985714Y-25884007D01*
X9566448Y-26170394D01*
X9508040Y-26388377D01*
X9539195Y-26625030D01*
X9658542Y-26831746D01*
X9931369Y-27304295D01*
X10136273Y-27359199D01*
X11361699Y-26651699D01*
X11351699Y-26634378D01*
X11438301Y-26584378D01*
X11448301Y-26601699D01*
X12673727Y-25894199D01*
X12723354Y-25708988D01*
X13335000Y-26320635D01*
X13335000Y-26822795D01*
X13320805Y-26714970D01*
X13201458Y-26508254D01*
X12928631Y-26035705D01*
X12723727Y-25980801D01*
X11498301Y-26688301D01*
X12130801Y-27783823D01*
X12335705Y-27838727D01*
X13144873Y-27371554D01*
X13290182Y-27182185D01*
X13335000Y-27014920D01*
X13335000Y-30671084D01*
X13333257Y-30672206D01*
X13152342Y-30548591D01*
X12835000Y-30484328D01*
X11635000Y-30484328D01*
X11338538Y-30540111D01*
X11167766Y-30650000D01*
X8698916Y-30650000D01*
X8654680Y-30581256D01*
X8555226Y-30513302D01*
X8578656Y-30489872D01*
X8670000Y-30269347D01*
X8670000Y-29750000D01*
X8520000Y-29600000D01*
X7670000Y-29600000D01*
X7670000Y-29620000D01*
X7570000Y-29620000D01*
X7570000Y-29600000D01*
X6720000Y-29600000D01*
X6570000Y-29750000D01*
X6570000Y-30269347D01*
X6661344Y-30489872D01*
X6683725Y-30512253D01*
X6601256Y-30565320D01*
X6543396Y-30650000D01*
X5255284Y-30650000D01*
X4830949Y-30224924D01*
X4169613Y-29950313D01*
X3453529Y-29949688D01*
X2791714Y-30223145D01*
X2284924Y-30729051D01*
X2010313Y-31390387D01*
X2009688Y-32106471D01*
X1510000Y-32106471D01*
X1510000Y-28830653D01*
X6570000Y-28830653D01*
X6570000Y-29350000D01*
X6720000Y-29500000D01*
X7570000Y-29500000D01*
X7570000Y-28500000D01*
X7670000Y-28500000D01*
X7670000Y-29500000D01*
X8520000Y-29500000D01*
X8670000Y-29350000D01*
X8670000Y-28830653D01*
X8578656Y-28610128D01*
X8409873Y-28441345D01*
X8189348Y-28350000D01*
X7820000Y-28350000D01*
X7670000Y-28500000D01*
X7570000Y-28500000D01*
X7420000Y-28350000D01*
X7050652Y-28350000D01*
X6830127Y-28441345D01*
X6661344Y-28610128D01*
X6570000Y-28830653D01*
X1510000Y-28830653D01*
X1510000Y-26870000D01*
X2210000Y-26870000D01*
X2210000Y-27789348D01*
X2301345Y-28009873D01*
X2470128Y-28178656D01*
X2690653Y-28270000D01*
X3610000Y-28270000D01*
X3760000Y-28120000D01*
X3760000Y-26720000D01*
X3860000Y-26720000D01*
X3860000Y-28120000D01*
X4010000Y-28270000D01*
X4929347Y-28270000D01*
X5149872Y-28178656D01*
X5318655Y-28009873D01*
X5410000Y-27789348D01*
X5410000Y-27650705D01*
X10131369Y-27650705D01*
X10404195Y-28123254D01*
X10523543Y-28329970D01*
X10712913Y-28475278D01*
X10943474Y-28537057D01*
X11180127Y-28505901D01*
X11989295Y-28038727D01*
X12044199Y-27833823D01*
X11411699Y-26738301D01*
X10186273Y-27445801D01*
X10131369Y-27650705D01*
X5410000Y-27650705D01*
X5410000Y-26870000D01*
X5260000Y-26720000D01*
X3860000Y-26720000D01*
X3760000Y-26720000D01*
X2360000Y-26720000D01*
X2210000Y-26870000D01*
X1510000Y-26870000D01*
X1510000Y-25550652D01*
X2210000Y-25550652D01*
X2210000Y-26470000D01*
X2360000Y-26620000D01*
X3760000Y-26620000D01*
X3760000Y-25220000D01*
X3860000Y-25220000D01*
X3860000Y-26620000D01*
X5260000Y-26620000D01*
X5410000Y-26470000D01*
X5410000Y-25550652D01*
X5318655Y-25330127D01*
X5149872Y-25161344D01*
X4929347Y-25070000D01*
X4010000Y-25070000D01*
X3860000Y-25220000D01*
X3760000Y-25220000D01*
X3610000Y-25070000D01*
X2690653Y-25070000D01*
X2470128Y-25161344D01*
X2301345Y-25330127D01*
X2210000Y-25550652D01*
X1510000Y-25550652D01*
X1510000Y-21135000D01*
X2585000Y-21135000D01*
X2585000Y-21804347D01*
X2676344Y-22024872D01*
X2845127Y-22193655D01*
X3065652Y-22285000D01*
X3610000Y-22285000D01*
X3760000Y-22135000D01*
X3760000Y-20985000D01*
X3860000Y-20985000D01*
X3860000Y-22135000D01*
X4010000Y-22285000D01*
X4554348Y-22285000D01*
X4774873Y-22193655D01*
X4943656Y-22024872D01*
X5035000Y-21804347D01*
X5035000Y-21135000D01*
X4885000Y-20985000D01*
X3860000Y-20985000D01*
X3760000Y-20985000D01*
X2735000Y-20985000D01*
X2585000Y-21135000D01*
X1510000Y-21135000D01*
X1510000Y-4010000D01*
X4750000Y-4010000D01*
X4750000Y-4929348D01*
X4841345Y-5149873D01*
X5010128Y-5318656D01*
X5230653Y-5410000D01*
X6150000Y-5410000D01*
X6300000Y-5260000D01*
X6300000Y-3860000D01*
X6400000Y-3860000D01*
X6400000Y-5260000D01*
X6550000Y-5410000D01*
X7469347Y-5410000D01*
X7620000Y-5347598D01*
X7770653Y-5410000D01*
X8690000Y-5410000D01*
X8840000Y-5260000D01*
X8840000Y-3860000D01*
X6400000Y-3860000D01*
X6300000Y-3860000D01*
X4900000Y-3860000D01*
X4750000Y-4010000D01*
X1510000Y-4010000D01*
X1510000Y-3261179D01*
X1623485Y-2690652D01*
X4750000Y-2690652D01*
X4750000Y-3610000D01*
X4900000Y-3760000D01*
X6300000Y-3760000D01*
X6300000Y-2360000D01*
X6400000Y-2360000D01*
X6400000Y-3760000D01*
X8840000Y-3760000D01*
X8840000Y-2360000D01*
X8940000Y-2360000D01*
X8940000Y-3760000D01*
X10340000Y-3760000D01*
X10490000Y-3610000D01*
X10490000Y-2690652D01*
X10398655Y-2470127D01*
X10229872Y-2301344D01*
X10009347Y-2210000D01*
X9090000Y-2210000D01*
X8940000Y-2360000D01*
X8840000Y-2360000D01*
X8690000Y-2210000D01*
X7770653Y-2210000D01*
X7620000Y-2272402D01*
X7469347Y-2210000D01*
X6550000Y-2210000D01*
X6400000Y-2360000D01*
X6300000Y-2360000D01*
X6150000Y-2210000D01*
X5230653Y-2210000D01*
X5010128Y-2301344D01*
X4841345Y-2470127D01*
X4750000Y-2690652D01*
X1623485Y-2690652D01*
X1652578Y-2544393D01*
X2009789Y-2009789D01*
X2544393Y-1652578D01*
X3261179Y-1510000D01*
X10976000Y-1510000D01*
X10976000Y-5125000D01*
M02*
