G04 #@! TF.FileFunction,Copper,L1,Top,Signal*
%FSLAX46Y46*%
G04 Gerber Fmt 4.6, Leading zero omitted, Abs format (unit mm)*
G04 Created by KiCad (PCBNEW 4.0.7) date 03/18/18 18:51:54*
%MOMM*%
%LPD*%
G01*
G04 APERTURE LIST*
%ADD10C,0.100000*%
%ADD11R,0.750000X1.200000*%
%ADD12R,1.200000X0.900000*%
%ADD13C,1.730000*%
%ADD14R,0.800000X0.900000*%
%ADD15R,0.900000X1.200000*%
%ADD16R,1.500000X1.250000*%
%ADD17C,1.600000*%
%ADD18O,1.600000X1.600000*%
%ADD19R,2.000000X2.000000*%
%ADD20C,2.000000*%
%ADD21R,1.600000X1.600000*%
%ADD22C,0.600000*%
%ADD23C,0.400000*%
G04 APERTURE END LIST*
D10*
D11*
X21082000Y-24196000D03*
X21082000Y-26096000D03*
D12*
X19685000Y-7875000D03*
X19685000Y-11175000D03*
X7366000Y-10540000D03*
X7366000Y-7240000D03*
X3810000Y-7240000D03*
X3810000Y-10540000D03*
D10*
G36*
X11876516Y-25413388D02*
X12741516Y-26911612D01*
X10983484Y-27926612D01*
X10118484Y-26428388D01*
X11876516Y-25413388D01*
X11876516Y-25413388D01*
G37*
D13*
X10289904Y-24395295D02*
X10030096Y-24545295D01*
X9019904Y-22195591D02*
X8760096Y-22345591D01*
D14*
X14285000Y-8525000D03*
X12385000Y-8525000D03*
X13335000Y-10525000D03*
D15*
X17145000Y-8425000D03*
X17145000Y-10625000D03*
D12*
X14435000Y-31750000D03*
X12235000Y-31750000D03*
D15*
X7620000Y-31750000D03*
X7620000Y-29550000D03*
D16*
X12680000Y-6350000D03*
X10180000Y-6350000D03*
X5568000Y-18796000D03*
X3068000Y-18796000D03*
D17*
X3810000Y-14605000D03*
D18*
X13970000Y-14605000D03*
D19*
X8890000Y-3810000D03*
D20*
X3810000Y-31750000D03*
D19*
X3810000Y-26670000D03*
X6350000Y-3810000D03*
D20*
X13970000Y-3810000D03*
X16510000Y-3810000D03*
X19050000Y-31750000D03*
X19050000Y-26670000D03*
D21*
X5588000Y-23622000D03*
D17*
X3588000Y-23622000D03*
D22*
X12385000Y-8525000D02*
X12385000Y-6645000D01*
X12385000Y-6645000D02*
X12680000Y-6350000D01*
X3810000Y-7240000D02*
X4446000Y-7240000D01*
X10795000Y-8525000D02*
X12385000Y-8525000D01*
X10430000Y-8890000D02*
X10795000Y-8525000D01*
X6096000Y-8890000D02*
X10430000Y-8890000D01*
X4446000Y-7240000D02*
X6096000Y-8890000D01*
X3810000Y-7240000D02*
X3938000Y-7240000D01*
X10180000Y-6350000D02*
X10180000Y-5695000D01*
X10180000Y-5695000D02*
X10795000Y-5080000D01*
X12235000Y-31750000D02*
X7620000Y-31750000D01*
X3810000Y-31750000D02*
X7620000Y-31750000D01*
X8890000Y-22270591D02*
X12872591Y-22270591D01*
X15875000Y-28575000D02*
X19050000Y-31750000D01*
X15875000Y-25273000D02*
X15875000Y-28575000D01*
X12872591Y-22270591D02*
X15875000Y-25273000D01*
X19050000Y-26670000D02*
X20508000Y-26670000D01*
X20508000Y-26670000D02*
X21082000Y-26096000D01*
X19050000Y-26670000D02*
X19365000Y-26670000D01*
X19685000Y-11175000D02*
X20320000Y-11175000D01*
X21209000Y-22479000D02*
X21209000Y-12064000D01*
X21209000Y-22479000D02*
X21209000Y-24069000D01*
X20320000Y-11175000D02*
X21209000Y-12064000D01*
X19685000Y-11175000D02*
X17695000Y-11175000D01*
X17695000Y-11175000D02*
X17145000Y-10625000D01*
X21209000Y-24069000D02*
X21082000Y-24196000D01*
X14285000Y-8525000D02*
X14285000Y-8951000D01*
X14285000Y-8951000D02*
X15959000Y-10625000D01*
X15959000Y-10625000D02*
X17145000Y-10625000D01*
X10160000Y-24470295D02*
X6436295Y-24470295D01*
X6436295Y-24470295D02*
X5588000Y-23622000D01*
X5568000Y-18796000D02*
X5568000Y-23602000D01*
X5568000Y-23602000D02*
X5588000Y-23622000D01*
X5568000Y-18796000D02*
X5568000Y-16363000D01*
X5568000Y-16363000D02*
X3810000Y-14605000D01*
X13040295Y-24470295D02*
X14435000Y-25865000D01*
X14435000Y-25865000D02*
X14435000Y-31750000D01*
X10160000Y-24470295D02*
X13040295Y-24470295D01*
X3810000Y-10540000D02*
X3810000Y-14605000D01*
X7366000Y-10540000D02*
X13320000Y-10540000D01*
X13320000Y-10540000D02*
X13335000Y-10525000D01*
X13335000Y-10525000D02*
X13335000Y-13970000D01*
X13335000Y-13970000D02*
X13970000Y-14605000D01*
D23*
G36*
X20315607Y-1652578D02*
X20850211Y-2009789D01*
X21207422Y-2544393D01*
X21350000Y-3261179D01*
X21350000Y-9452000D01*
X18173451Y-9452000D01*
X18080226Y-9388302D01*
X18103656Y-9364872D01*
X18195000Y-9144347D01*
X18195000Y-8625000D01*
X18045000Y-8475000D01*
X17195000Y-8475000D01*
X17195000Y-8495000D01*
X17095000Y-8495000D01*
X17095000Y-8475000D01*
X16245000Y-8475000D01*
X16095000Y-8625000D01*
X16095000Y-9144347D01*
X16138146Y-9248511D01*
X15500672Y-8611038D01*
X15500672Y-8075000D01*
X15444889Y-7778538D01*
X15397989Y-7705653D01*
X16095000Y-7705653D01*
X16095000Y-8225000D01*
X16245000Y-8375000D01*
X17095000Y-8375000D01*
X17095000Y-7375000D01*
X17195000Y-7375000D01*
X17195000Y-8375000D01*
X18045000Y-8375000D01*
X18195000Y-8225000D01*
X18195000Y-8075000D01*
X18485000Y-8075000D01*
X18485000Y-8444347D01*
X18576344Y-8664872D01*
X18745127Y-8833655D01*
X18965652Y-8925000D01*
X19485000Y-8925000D01*
X19635000Y-8775000D01*
X19635000Y-7925000D01*
X19735000Y-7925000D01*
X19735000Y-8775000D01*
X19885000Y-8925000D01*
X20404348Y-8925000D01*
X20624873Y-8833655D01*
X20793656Y-8664872D01*
X20885000Y-8444347D01*
X20885000Y-8075000D01*
X20735000Y-7925000D01*
X19735000Y-7925000D01*
X19635000Y-7925000D01*
X18635000Y-7925000D01*
X18485000Y-8075000D01*
X18195000Y-8075000D01*
X18195000Y-7705653D01*
X18103656Y-7485128D01*
X17934873Y-7316345D01*
X17909061Y-7305653D01*
X18485000Y-7305653D01*
X18485000Y-7675000D01*
X18635000Y-7825000D01*
X19635000Y-7825000D01*
X19635000Y-6975000D01*
X19735000Y-6975000D01*
X19735000Y-7825000D01*
X20735000Y-7825000D01*
X20885000Y-7675000D01*
X20885000Y-7305653D01*
X20793656Y-7085128D01*
X20624873Y-6916345D01*
X20404348Y-6825000D01*
X19885000Y-6825000D01*
X19735000Y-6975000D01*
X19635000Y-6975000D01*
X19485000Y-6825000D01*
X18965652Y-6825000D01*
X18745127Y-6916345D01*
X18576344Y-7085128D01*
X18485000Y-7305653D01*
X17909061Y-7305653D01*
X17714348Y-7225000D01*
X17345000Y-7225000D01*
X17195000Y-7375000D01*
X17095000Y-7375000D01*
X16945000Y-7225000D01*
X16575652Y-7225000D01*
X16355127Y-7316345D01*
X16186344Y-7485128D01*
X16095000Y-7705653D01*
X15397989Y-7705653D01*
X15269680Y-7506256D01*
X15002342Y-7323591D01*
X14685000Y-7259328D01*
X13961663Y-7259328D01*
X14030000Y-7094348D01*
X14030000Y-6550000D01*
X13880000Y-6400000D01*
X12730000Y-6400000D01*
X12730000Y-6420000D01*
X12630000Y-6420000D01*
X12630000Y-6400000D01*
X12610000Y-6400000D01*
X12610000Y-6300000D01*
X12630000Y-6300000D01*
X12630000Y-5275000D01*
X12730000Y-5275000D01*
X12730000Y-6300000D01*
X13880000Y-6300000D01*
X14030000Y-6150000D01*
X14030000Y-5605652D01*
X13948907Y-5409878D01*
X14274463Y-5412683D01*
X14864607Y-5174173D01*
X14887980Y-5158556D01*
X14981518Y-4892228D01*
X15498482Y-4892228D01*
X15592020Y-5158556D01*
X16177967Y-5407199D01*
X16814463Y-5412683D01*
X17404607Y-5174173D01*
X17427980Y-5158556D01*
X17521518Y-4892228D01*
X16510000Y-3880711D01*
X15498482Y-4892228D01*
X14981518Y-4892228D01*
X13970000Y-3880711D01*
X12958482Y-4892228D01*
X13040235Y-5125000D01*
X12880000Y-5125000D01*
X12730000Y-5275000D01*
X12630000Y-5275000D01*
X12480000Y-5125000D01*
X11886048Y-5125000D01*
X11894999Y-5080000D01*
X11884000Y-5024704D01*
X11884000Y-5001963D01*
X12151286Y-4891523D01*
X12510262Y-4533173D01*
X12523579Y-4501102D01*
X12605827Y-4704607D01*
X12621444Y-4727980D01*
X12887772Y-4821518D01*
X13899289Y-3810000D01*
X14040711Y-3810000D01*
X15052228Y-4821518D01*
X15240000Y-4755570D01*
X15427772Y-4821518D01*
X16439289Y-3810000D01*
X16580711Y-3810000D01*
X17592228Y-4821518D01*
X17858556Y-4727980D01*
X18107199Y-4142033D01*
X18112683Y-3505537D01*
X17874173Y-2915393D01*
X17858556Y-2892020D01*
X17592228Y-2798482D01*
X16580711Y-3810000D01*
X16439289Y-3810000D01*
X15427772Y-2798482D01*
X15240000Y-2864430D01*
X15052228Y-2798482D01*
X14040711Y-3810000D01*
X13899289Y-3810000D01*
X12887772Y-2798482D01*
X12621444Y-2892020D01*
X12524574Y-3120301D01*
X12511523Y-3088714D01*
X12153173Y-2729738D01*
X12148439Y-2727772D01*
X12958482Y-2727772D01*
X13970000Y-3739289D01*
X14981518Y-2727772D01*
X15498482Y-2727772D01*
X16510000Y-3739289D01*
X17521518Y-2727772D01*
X17427980Y-2461444D01*
X16842033Y-2212801D01*
X16205537Y-2207317D01*
X15615393Y-2445827D01*
X15592020Y-2461444D01*
X15498482Y-2727772D01*
X14981518Y-2727772D01*
X14887980Y-2461444D01*
X14302033Y-2212801D01*
X13665537Y-2207317D01*
X13075393Y-2445827D01*
X13052020Y-2461444D01*
X12958482Y-2727772D01*
X12148439Y-2727772D01*
X11884000Y-2617968D01*
X11884000Y-1510000D01*
X19598821Y-1510000D01*
X20315607Y-1652578D01*
X20315607Y-1652578D01*
G37*
X20315607Y-1652578D02*
X20850211Y-2009789D01*
X21207422Y-2544393D01*
X21350000Y-3261179D01*
X21350000Y-9452000D01*
X18173451Y-9452000D01*
X18080226Y-9388302D01*
X18103656Y-9364872D01*
X18195000Y-9144347D01*
X18195000Y-8625000D01*
X18045000Y-8475000D01*
X17195000Y-8475000D01*
X17195000Y-8495000D01*
X17095000Y-8495000D01*
X17095000Y-8475000D01*
X16245000Y-8475000D01*
X16095000Y-8625000D01*
X16095000Y-9144347D01*
X16138146Y-9248511D01*
X15500672Y-8611038D01*
X15500672Y-8075000D01*
X15444889Y-7778538D01*
X15397989Y-7705653D01*
X16095000Y-7705653D01*
X16095000Y-8225000D01*
X16245000Y-8375000D01*
X17095000Y-8375000D01*
X17095000Y-7375000D01*
X17195000Y-7375000D01*
X17195000Y-8375000D01*
X18045000Y-8375000D01*
X18195000Y-8225000D01*
X18195000Y-8075000D01*
X18485000Y-8075000D01*
X18485000Y-8444347D01*
X18576344Y-8664872D01*
X18745127Y-8833655D01*
X18965652Y-8925000D01*
X19485000Y-8925000D01*
X19635000Y-8775000D01*
X19635000Y-7925000D01*
X19735000Y-7925000D01*
X19735000Y-8775000D01*
X19885000Y-8925000D01*
X20404348Y-8925000D01*
X20624873Y-8833655D01*
X20793656Y-8664872D01*
X20885000Y-8444347D01*
X20885000Y-8075000D01*
X20735000Y-7925000D01*
X19735000Y-7925000D01*
X19635000Y-7925000D01*
X18635000Y-7925000D01*
X18485000Y-8075000D01*
X18195000Y-8075000D01*
X18195000Y-7705653D01*
X18103656Y-7485128D01*
X17934873Y-7316345D01*
X17909061Y-7305653D01*
X18485000Y-7305653D01*
X18485000Y-7675000D01*
X18635000Y-7825000D01*
X19635000Y-7825000D01*
X19635000Y-6975000D01*
X19735000Y-6975000D01*
X19735000Y-7825000D01*
X20735000Y-7825000D01*
X20885000Y-7675000D01*
X20885000Y-7305653D01*
X20793656Y-7085128D01*
X20624873Y-6916345D01*
X20404348Y-6825000D01*
X19885000Y-6825000D01*
X19735000Y-6975000D01*
X19635000Y-6975000D01*
X19485000Y-6825000D01*
X18965652Y-6825000D01*
X18745127Y-6916345D01*
X18576344Y-7085128D01*
X18485000Y-7305653D01*
X17909061Y-7305653D01*
X17714348Y-7225000D01*
X17345000Y-7225000D01*
X17195000Y-7375000D01*
X17095000Y-7375000D01*
X16945000Y-7225000D01*
X16575652Y-7225000D01*
X16355127Y-7316345D01*
X16186344Y-7485128D01*
X16095000Y-7705653D01*
X15397989Y-7705653D01*
X15269680Y-7506256D01*
X15002342Y-7323591D01*
X14685000Y-7259328D01*
X13961663Y-7259328D01*
X14030000Y-7094348D01*
X14030000Y-6550000D01*
X13880000Y-6400000D01*
X12730000Y-6400000D01*
X12730000Y-6420000D01*
X12630000Y-6420000D01*
X12630000Y-6400000D01*
X12610000Y-6400000D01*
X12610000Y-6300000D01*
X12630000Y-6300000D01*
X12630000Y-5275000D01*
X12730000Y-5275000D01*
X12730000Y-6300000D01*
X13880000Y-6300000D01*
X14030000Y-6150000D01*
X14030000Y-5605652D01*
X13948907Y-5409878D01*
X14274463Y-5412683D01*
X14864607Y-5174173D01*
X14887980Y-5158556D01*
X14981518Y-4892228D01*
X15498482Y-4892228D01*
X15592020Y-5158556D01*
X16177967Y-5407199D01*
X16814463Y-5412683D01*
X17404607Y-5174173D01*
X17427980Y-5158556D01*
X17521518Y-4892228D01*
X16510000Y-3880711D01*
X15498482Y-4892228D01*
X14981518Y-4892228D01*
X13970000Y-3880711D01*
X12958482Y-4892228D01*
X13040235Y-5125000D01*
X12880000Y-5125000D01*
X12730000Y-5275000D01*
X12630000Y-5275000D01*
X12480000Y-5125000D01*
X11886048Y-5125000D01*
X11894999Y-5080000D01*
X11884000Y-5024704D01*
X11884000Y-5001963D01*
X12151286Y-4891523D01*
X12510262Y-4533173D01*
X12523579Y-4501102D01*
X12605827Y-4704607D01*
X12621444Y-4727980D01*
X12887772Y-4821518D01*
X13899289Y-3810000D01*
X14040711Y-3810000D01*
X15052228Y-4821518D01*
X15240000Y-4755570D01*
X15427772Y-4821518D01*
X16439289Y-3810000D01*
X16580711Y-3810000D01*
X17592228Y-4821518D01*
X17858556Y-4727980D01*
X18107199Y-4142033D01*
X18112683Y-3505537D01*
X17874173Y-2915393D01*
X17858556Y-2892020D01*
X17592228Y-2798482D01*
X16580711Y-3810000D01*
X16439289Y-3810000D01*
X15427772Y-2798482D01*
X15240000Y-2864430D01*
X15052228Y-2798482D01*
X14040711Y-3810000D01*
X13899289Y-3810000D01*
X12887772Y-2798482D01*
X12621444Y-2892020D01*
X12524574Y-3120301D01*
X12511523Y-3088714D01*
X12153173Y-2729738D01*
X12148439Y-2727772D01*
X12958482Y-2727772D01*
X13970000Y-3739289D01*
X14981518Y-2727772D01*
X15498482Y-2727772D01*
X16510000Y-3739289D01*
X17521518Y-2727772D01*
X17427980Y-2461444D01*
X16842033Y-2212801D01*
X16205537Y-2207317D01*
X15615393Y-2445827D01*
X15592020Y-2461444D01*
X15498482Y-2727772D01*
X14981518Y-2727772D01*
X14887980Y-2461444D01*
X14302033Y-2212801D01*
X13665537Y-2207317D01*
X13075393Y-2445827D01*
X13052020Y-2461444D01*
X12958482Y-2727772D01*
X12148439Y-2727772D01*
X11884000Y-2617968D01*
X11884000Y-1510000D01*
X19598821Y-1510000D01*
X20315607Y-1652578D01*
G36*
X12435000Y-8475000D02*
X12455000Y-8475000D01*
X12455000Y-8575000D01*
X12435000Y-8575000D01*
X12435000Y-8595000D01*
X12335000Y-8595000D01*
X12335000Y-8575000D01*
X12315000Y-8575000D01*
X12315000Y-8475000D01*
X12335000Y-8475000D01*
X12335000Y-8455000D01*
X12435000Y-8455000D01*
X12435000Y-8475000D01*
X12435000Y-8475000D01*
G37*
X12435000Y-8475000D02*
X12455000Y-8475000D01*
X12455000Y-8575000D01*
X12435000Y-8575000D01*
X12435000Y-8595000D01*
X12335000Y-8595000D01*
X12335000Y-8575000D01*
X12315000Y-8575000D01*
X12315000Y-8475000D01*
X12335000Y-8475000D01*
X12335000Y-8455000D01*
X12435000Y-8455000D01*
X12435000Y-8475000D01*
G36*
X10976000Y-2618037D02*
X10708714Y-2728477D01*
X10490000Y-2946810D01*
X10490000Y-2690652D01*
X10398655Y-2470127D01*
X10229872Y-2301344D01*
X10009347Y-2210000D01*
X9090000Y-2210000D01*
X8940000Y-2360000D01*
X8940000Y-3760000D01*
X8960000Y-3760000D01*
X8960000Y-3860000D01*
X8940000Y-3860000D01*
X8940000Y-5260000D01*
X8993236Y-5313236D01*
X8921345Y-5385127D01*
X8830000Y-5605652D01*
X8830000Y-6150000D01*
X8980000Y-6300000D01*
X10130000Y-6300000D01*
X10130000Y-6280000D01*
X10230000Y-6280000D01*
X10230000Y-6300000D01*
X10250000Y-6300000D01*
X10250000Y-6400000D01*
X10230000Y-6400000D01*
X10230000Y-7425000D01*
X10337892Y-7532892D01*
X10035582Y-7734889D01*
X10017183Y-7747183D01*
X9974366Y-7790000D01*
X8566000Y-7790000D01*
X8566000Y-7440000D01*
X8416000Y-7290000D01*
X7416000Y-7290000D01*
X7416000Y-7310000D01*
X7316000Y-7310000D01*
X7316000Y-7290000D01*
X6316000Y-7290000D01*
X6183817Y-7422183D01*
X5432287Y-6670653D01*
X6166000Y-6670653D01*
X6166000Y-7040000D01*
X6316000Y-7190000D01*
X7316000Y-7190000D01*
X7316000Y-6340000D01*
X7416000Y-6340000D01*
X7416000Y-7190000D01*
X8416000Y-7190000D01*
X8566000Y-7040000D01*
X8566000Y-6670653D01*
X8516025Y-6550000D01*
X8830000Y-6550000D01*
X8830000Y-7094348D01*
X8921345Y-7314873D01*
X9090128Y-7483656D01*
X9310653Y-7575000D01*
X9980000Y-7575000D01*
X10130000Y-7425000D01*
X10130000Y-6400000D01*
X8980000Y-6400000D01*
X8830000Y-6550000D01*
X8516025Y-6550000D01*
X8474656Y-6450128D01*
X8305873Y-6281345D01*
X8085348Y-6190000D01*
X7566000Y-6190000D01*
X7416000Y-6340000D01*
X7316000Y-6340000D01*
X7166000Y-6190000D01*
X6646652Y-6190000D01*
X6426127Y-6281345D01*
X6257344Y-6450128D01*
X6166000Y-6670653D01*
X5432287Y-6670653D01*
X5223817Y-6462183D01*
X5205775Y-6450128D01*
X5093818Y-6375320D01*
X4994680Y-6221256D01*
X4727342Y-6038591D01*
X4410000Y-5974328D01*
X3210000Y-5974328D01*
X2913538Y-6030111D01*
X2641256Y-6205320D01*
X2458591Y-6472658D01*
X2394328Y-6790000D01*
X2394328Y-7690000D01*
X2450111Y-7986462D01*
X2625320Y-8258744D01*
X2892658Y-8441409D01*
X3210000Y-8505672D01*
X4156038Y-8505672D01*
X5318182Y-9667817D01*
X5675048Y-9906267D01*
X5975435Y-9966018D01*
X5950328Y-10090000D01*
X5950328Y-10990000D01*
X6006111Y-11286462D01*
X6181320Y-11558744D01*
X6448658Y-11741409D01*
X6766000Y-11805672D01*
X7966000Y-11805672D01*
X8262462Y-11749889D01*
X8433234Y-11640000D01*
X12235000Y-11640000D01*
X12235000Y-13970000D01*
X12318733Y-14390952D01*
X12366894Y-14463030D01*
X12338654Y-14605000D01*
X12460447Y-15217293D01*
X12807283Y-15736371D01*
X13326361Y-16083207D01*
X13938654Y-16205000D01*
X14001346Y-16205000D01*
X14613639Y-16083207D01*
X15132717Y-15736371D01*
X15479553Y-15217293D01*
X15601346Y-14605000D01*
X15479553Y-13992707D01*
X15132717Y-13473629D01*
X14613639Y-13126793D01*
X14435000Y-13091259D01*
X14435000Y-11367581D01*
X14486409Y-11292342D01*
X14550672Y-10975000D01*
X14550672Y-10772307D01*
X15181183Y-11402818D01*
X15538049Y-11641268D01*
X15959000Y-11725000D01*
X16066084Y-11725000D01*
X16110320Y-11793744D01*
X16377658Y-11976409D01*
X16695000Y-12040672D01*
X17048666Y-12040672D01*
X17274048Y-12191267D01*
X17695000Y-12275000D01*
X18619242Y-12275000D01*
X18767658Y-12376409D01*
X19085000Y-12440672D01*
X20030037Y-12440672D01*
X20109000Y-12519635D01*
X20109000Y-23054137D01*
X19955591Y-23278658D01*
X19891328Y-23596000D01*
X19891328Y-24796000D01*
X19947111Y-25092462D01*
X19948024Y-25093881D01*
X19409613Y-24870313D01*
X18693529Y-24869688D01*
X18031714Y-25143145D01*
X17524924Y-25649051D01*
X17250313Y-26310387D01*
X17249688Y-27026471D01*
X17523145Y-27688286D01*
X18029051Y-28195076D01*
X18193566Y-28263389D01*
X17969738Y-28486827D01*
X17785693Y-28930058D01*
X16975000Y-28119366D01*
X16975000Y-25273000D01*
X16963810Y-25216746D01*
X16891268Y-24852049D01*
X16652818Y-24495183D01*
X13650408Y-21492774D01*
X13293543Y-21254324D01*
X12872591Y-21170591D01*
X10339404Y-21170591D01*
X10064285Y-20856879D01*
X9481632Y-20569545D01*
X8833372Y-20527057D01*
X8218198Y-20735880D01*
X7896802Y-20921438D01*
X7408369Y-21349782D01*
X7121035Y-21932436D01*
X7088238Y-22432838D01*
X6972680Y-22253256D01*
X6705342Y-22070591D01*
X6668000Y-22063029D01*
X6668000Y-20146438D01*
X6886744Y-20005680D01*
X7069409Y-19738342D01*
X7133672Y-19421000D01*
X7133672Y-18171000D01*
X7077889Y-17874538D01*
X6902680Y-17602256D01*
X6668000Y-17441905D01*
X6668000Y-16363000D01*
X6584267Y-15942048D01*
X6446838Y-15736371D01*
X6345817Y-15585182D01*
X5409962Y-14649328D01*
X5410277Y-14288137D01*
X5167205Y-13699857D01*
X4910000Y-13442202D01*
X4910000Y-11618916D01*
X4978744Y-11574680D01*
X5161409Y-11307342D01*
X5225672Y-10990000D01*
X5225672Y-10090000D01*
X5169889Y-9793538D01*
X4994680Y-9521256D01*
X4727342Y-9338591D01*
X4410000Y-9274328D01*
X3210000Y-9274328D01*
X2913538Y-9330111D01*
X2641256Y-9505320D01*
X2458591Y-9772658D01*
X2394328Y-10090000D01*
X2394328Y-10990000D01*
X2450111Y-11286462D01*
X2625320Y-11558744D01*
X2710000Y-11616604D01*
X2710000Y-13442312D01*
X2454377Y-13697489D01*
X2210278Y-14285344D01*
X2209723Y-14921863D01*
X2452795Y-15510143D01*
X2902489Y-15960623D01*
X3490344Y-16204722D01*
X3854405Y-16205039D01*
X4468000Y-16818635D01*
X4468000Y-17445562D01*
X4249256Y-17586320D01*
X4181302Y-17685774D01*
X4157872Y-17662344D01*
X3937347Y-17571000D01*
X3268000Y-17571000D01*
X3118000Y-17721000D01*
X3118000Y-18746000D01*
X3138000Y-18746000D01*
X3138000Y-18846000D01*
X3118000Y-18846000D01*
X3118000Y-19871000D01*
X3268000Y-20021000D01*
X3937347Y-20021000D01*
X4157872Y-19929656D01*
X4180253Y-19907275D01*
X4233320Y-19989744D01*
X4468000Y-20150095D01*
X4468000Y-22077257D01*
X4219256Y-22237320D01*
X4149535Y-22339360D01*
X3872404Y-22223191D01*
X3860546Y-22220833D01*
X3638000Y-22345551D01*
X3638000Y-23501287D01*
X3602141Y-23537146D01*
X3672854Y-23607859D01*
X3708713Y-23572000D01*
X3972328Y-23572000D01*
X3972328Y-23672000D01*
X3708713Y-23672000D01*
X3672854Y-23636141D01*
X3602141Y-23706854D01*
X3638000Y-23742713D01*
X3638000Y-24898449D01*
X3860546Y-25023167D01*
X4148382Y-24905367D01*
X4203320Y-24990744D01*
X4319315Y-25070000D01*
X4010000Y-25070000D01*
X3860000Y-25220000D01*
X3860000Y-26620000D01*
X5260000Y-26620000D01*
X5410000Y-26470000D01*
X5410000Y-25550652D01*
X5318655Y-25330127D01*
X5226200Y-25237672D01*
X5648037Y-25237672D01*
X5658477Y-25248112D01*
X5763345Y-25318182D01*
X6015343Y-25486562D01*
X6436295Y-25570295D01*
X8710596Y-25570295D01*
X8985714Y-25884007D01*
X9566448Y-26170394D01*
X9508040Y-26388377D01*
X9539195Y-26625030D01*
X9658542Y-26831746D01*
X9931369Y-27304295D01*
X10136273Y-27359199D01*
X11361699Y-26651699D01*
X11351699Y-26634378D01*
X11438301Y-26584378D01*
X11448301Y-26601699D01*
X12673727Y-25894199D01*
X12723354Y-25708988D01*
X13335000Y-26320635D01*
X13335000Y-26822795D01*
X13320805Y-26714970D01*
X13201458Y-26508254D01*
X12928631Y-26035705D01*
X12723727Y-25980801D01*
X11498301Y-26688301D01*
X12130801Y-27783823D01*
X12335705Y-27838727D01*
X13144873Y-27371554D01*
X13290182Y-27182185D01*
X13335000Y-27014920D01*
X13335000Y-30671084D01*
X13333257Y-30672206D01*
X13152342Y-30548591D01*
X12835000Y-30484328D01*
X11635000Y-30484328D01*
X11338538Y-30540111D01*
X11167766Y-30650000D01*
X8698916Y-30650000D01*
X8654680Y-30581256D01*
X8555226Y-30513302D01*
X8578656Y-30489872D01*
X8670000Y-30269347D01*
X8670000Y-29750000D01*
X8520000Y-29600000D01*
X7670000Y-29600000D01*
X7670000Y-29620000D01*
X7570000Y-29620000D01*
X7570000Y-29600000D01*
X6720000Y-29600000D01*
X6570000Y-29750000D01*
X6570000Y-30269347D01*
X6661344Y-30489872D01*
X6683725Y-30512253D01*
X6601256Y-30565320D01*
X6543396Y-30650000D01*
X5255284Y-30650000D01*
X4830949Y-30224924D01*
X4666434Y-30156611D01*
X4890262Y-29933173D01*
X5084778Y-29464726D01*
X5085221Y-28957499D01*
X5032810Y-28830653D01*
X6570000Y-28830653D01*
X6570000Y-29350000D01*
X6720000Y-29500000D01*
X7570000Y-29500000D01*
X7570000Y-28500000D01*
X7670000Y-28500000D01*
X7670000Y-29500000D01*
X8520000Y-29500000D01*
X8670000Y-29350000D01*
X8670000Y-28830653D01*
X8578656Y-28610128D01*
X8409873Y-28441345D01*
X8189348Y-28350000D01*
X7820000Y-28350000D01*
X7670000Y-28500000D01*
X7570000Y-28500000D01*
X7420000Y-28350000D01*
X7050652Y-28350000D01*
X6830127Y-28441345D01*
X6661344Y-28610128D01*
X6570000Y-28830653D01*
X5032810Y-28830653D01*
X4891523Y-28488714D01*
X4673190Y-28270000D01*
X4929347Y-28270000D01*
X5149872Y-28178656D01*
X5318655Y-28009873D01*
X5410000Y-27789348D01*
X5410000Y-27650705D01*
X10131369Y-27650705D01*
X10404195Y-28123254D01*
X10523543Y-28329970D01*
X10712913Y-28475278D01*
X10943474Y-28537057D01*
X11180127Y-28505901D01*
X11989295Y-28038727D01*
X12044199Y-27833823D01*
X11411699Y-26738301D01*
X10186273Y-27445801D01*
X10131369Y-27650705D01*
X5410000Y-27650705D01*
X5410000Y-26870000D01*
X5260000Y-26720000D01*
X3860000Y-26720000D01*
X3860000Y-26740000D01*
X3760000Y-26740000D01*
X3760000Y-26720000D01*
X2360000Y-26720000D01*
X2210000Y-26870000D01*
X2210000Y-27789348D01*
X2301345Y-28009873D01*
X2470128Y-28178656D01*
X2690653Y-28270000D01*
X2946944Y-28270000D01*
X2729738Y-28486827D01*
X2535222Y-28955274D01*
X2534779Y-29462501D01*
X2728477Y-29931286D01*
X2953213Y-30156415D01*
X2791714Y-30223145D01*
X2284924Y-30729051D01*
X2010313Y-31390387D01*
X2009688Y-32106471D01*
X2283145Y-32768286D01*
X2789051Y-33275076D01*
X3450387Y-33549687D01*
X4166471Y-33550312D01*
X4828286Y-33276855D01*
X5255887Y-32850000D01*
X6541084Y-32850000D01*
X6585320Y-32918744D01*
X6852658Y-33101409D01*
X7170000Y-33165672D01*
X8070000Y-33165672D01*
X8366462Y-33109889D01*
X8638744Y-32934680D01*
X8696604Y-32850000D01*
X11169242Y-32850000D01*
X11317658Y-32951409D01*
X11635000Y-33015672D01*
X12835000Y-33015672D01*
X13131462Y-32959889D01*
X13336743Y-32827794D01*
X13517658Y-32951409D01*
X13835000Y-33015672D01*
X15035000Y-33015672D01*
X15331462Y-32959889D01*
X15603744Y-32784680D01*
X15786409Y-32517342D01*
X15850672Y-32200000D01*
X15850672Y-31300000D01*
X15794889Y-31003538D01*
X15619680Y-30731256D01*
X15535000Y-30673396D01*
X15535000Y-29790634D01*
X17250212Y-31505847D01*
X17249688Y-32106471D01*
X17523145Y-32768286D01*
X18029051Y-33275076D01*
X18690387Y-33549687D01*
X19406471Y-33550312D01*
X20068286Y-33276855D01*
X20575076Y-32770949D01*
X20849687Y-32109613D01*
X20850312Y-31393529D01*
X20576855Y-30731714D01*
X20070949Y-30224924D01*
X19906434Y-30156611D01*
X20130262Y-29933173D01*
X20324778Y-29464726D01*
X20325221Y-28957499D01*
X20131523Y-28488714D01*
X19906787Y-28263585D01*
X20068286Y-28196855D01*
X20495887Y-27770000D01*
X20508000Y-27770000D01*
X20928952Y-27686267D01*
X21190251Y-27511672D01*
X21350000Y-27511672D01*
X21350000Y-32298821D01*
X21207422Y-33015607D01*
X20850211Y-33550211D01*
X20315607Y-33907422D01*
X19598821Y-34050000D01*
X3261179Y-34050000D01*
X2544393Y-33907422D01*
X2009789Y-33550211D01*
X1652578Y-33015607D01*
X1510000Y-32298821D01*
X1510000Y-25550652D01*
X2210000Y-25550652D01*
X2210000Y-26470000D01*
X2360000Y-26620000D01*
X3760000Y-26620000D01*
X3760000Y-25220000D01*
X3610000Y-25070000D01*
X2690653Y-25070000D01*
X2470128Y-25161344D01*
X2301345Y-25330127D01*
X2210000Y-25550652D01*
X1510000Y-25550652D01*
X1510000Y-23894546D01*
X2186833Y-23894546D01*
X2397789Y-24410003D01*
X2789944Y-24805494D01*
X3303596Y-25020809D01*
X3315454Y-25023167D01*
X3538000Y-24898449D01*
X3538000Y-23672000D01*
X2311551Y-23672000D01*
X2186833Y-23894546D01*
X1510000Y-23894546D01*
X1510000Y-23349454D01*
X2186833Y-23349454D01*
X2311551Y-23572000D01*
X3538000Y-23572000D01*
X3538000Y-22345551D01*
X3315454Y-22220833D01*
X2799997Y-22431789D01*
X2404506Y-22823944D01*
X2189191Y-23337596D01*
X2186833Y-23349454D01*
X1510000Y-23349454D01*
X1510000Y-18996000D01*
X1718000Y-18996000D01*
X1718000Y-19540348D01*
X1809345Y-19760873D01*
X1978128Y-19929656D01*
X2198653Y-20021000D01*
X2868000Y-20021000D01*
X3018000Y-19871000D01*
X3018000Y-18846000D01*
X1868000Y-18846000D01*
X1718000Y-18996000D01*
X1510000Y-18996000D01*
X1510000Y-18051652D01*
X1718000Y-18051652D01*
X1718000Y-18596000D01*
X1868000Y-18746000D01*
X3018000Y-18746000D01*
X3018000Y-17721000D01*
X2868000Y-17571000D01*
X2198653Y-17571000D01*
X1978128Y-17662344D01*
X1809345Y-17831127D01*
X1718000Y-18051652D01*
X1510000Y-18051652D01*
X1510000Y-4010000D01*
X4750000Y-4010000D01*
X4750000Y-4929348D01*
X4841345Y-5149873D01*
X5010128Y-5318656D01*
X5230653Y-5410000D01*
X6150000Y-5410000D01*
X6300000Y-5260000D01*
X6300000Y-3860000D01*
X6400000Y-3860000D01*
X6400000Y-5260000D01*
X6550000Y-5410000D01*
X7469347Y-5410000D01*
X7620000Y-5347598D01*
X7770653Y-5410000D01*
X8690000Y-5410000D01*
X8840000Y-5260000D01*
X8840000Y-3860000D01*
X6400000Y-3860000D01*
X6300000Y-3860000D01*
X4900000Y-3860000D01*
X4750000Y-4010000D01*
X1510000Y-4010000D01*
X1510000Y-3261179D01*
X1623485Y-2690652D01*
X4750000Y-2690652D01*
X4750000Y-3610000D01*
X4900000Y-3760000D01*
X6300000Y-3760000D01*
X6300000Y-2360000D01*
X6400000Y-2360000D01*
X6400000Y-3760000D01*
X8840000Y-3760000D01*
X8840000Y-2360000D01*
X8690000Y-2210000D01*
X7770653Y-2210000D01*
X7620000Y-2272402D01*
X7469347Y-2210000D01*
X6550000Y-2210000D01*
X6400000Y-2360000D01*
X6300000Y-2360000D01*
X6150000Y-2210000D01*
X5230653Y-2210000D01*
X5010128Y-2301344D01*
X4841345Y-2470127D01*
X4750000Y-2690652D01*
X1623485Y-2690652D01*
X1652578Y-2544393D01*
X2009789Y-2009789D01*
X2544393Y-1652578D01*
X3261179Y-1510000D01*
X10976000Y-1510000D01*
X10976000Y-2618037D01*
X10976000Y-2618037D01*
G37*
X10976000Y-2618037D02*
X10708714Y-2728477D01*
X10490000Y-2946810D01*
X10490000Y-2690652D01*
X10398655Y-2470127D01*
X10229872Y-2301344D01*
X10009347Y-2210000D01*
X9090000Y-2210000D01*
X8940000Y-2360000D01*
X8940000Y-3760000D01*
X8960000Y-3760000D01*
X8960000Y-3860000D01*
X8940000Y-3860000D01*
X8940000Y-5260000D01*
X8993236Y-5313236D01*
X8921345Y-5385127D01*
X8830000Y-5605652D01*
X8830000Y-6150000D01*
X8980000Y-6300000D01*
X10130000Y-6300000D01*
X10130000Y-6280000D01*
X10230000Y-6280000D01*
X10230000Y-6300000D01*
X10250000Y-6300000D01*
X10250000Y-6400000D01*
X10230000Y-6400000D01*
X10230000Y-7425000D01*
X10337892Y-7532892D01*
X10035582Y-7734889D01*
X10017183Y-7747183D01*
X9974366Y-7790000D01*
X8566000Y-7790000D01*
X8566000Y-7440000D01*
X8416000Y-7290000D01*
X7416000Y-7290000D01*
X7416000Y-7310000D01*
X7316000Y-7310000D01*
X7316000Y-7290000D01*
X6316000Y-7290000D01*
X6183817Y-7422183D01*
X5432287Y-6670653D01*
X6166000Y-6670653D01*
X6166000Y-7040000D01*
X6316000Y-7190000D01*
X7316000Y-7190000D01*
X7316000Y-6340000D01*
X7416000Y-6340000D01*
X7416000Y-7190000D01*
X8416000Y-7190000D01*
X8566000Y-7040000D01*
X8566000Y-6670653D01*
X8516025Y-6550000D01*
X8830000Y-6550000D01*
X8830000Y-7094348D01*
X8921345Y-7314873D01*
X9090128Y-7483656D01*
X9310653Y-7575000D01*
X9980000Y-7575000D01*
X10130000Y-7425000D01*
X10130000Y-6400000D01*
X8980000Y-6400000D01*
X8830000Y-6550000D01*
X8516025Y-6550000D01*
X8474656Y-6450128D01*
X8305873Y-6281345D01*
X8085348Y-6190000D01*
X7566000Y-6190000D01*
X7416000Y-6340000D01*
X7316000Y-6340000D01*
X7166000Y-6190000D01*
X6646652Y-6190000D01*
X6426127Y-6281345D01*
X6257344Y-6450128D01*
X6166000Y-6670653D01*
X5432287Y-6670653D01*
X5223817Y-6462183D01*
X5205775Y-6450128D01*
X5093818Y-6375320D01*
X4994680Y-6221256D01*
X4727342Y-6038591D01*
X4410000Y-5974328D01*
X3210000Y-5974328D01*
X2913538Y-6030111D01*
X2641256Y-6205320D01*
X2458591Y-6472658D01*
X2394328Y-6790000D01*
X2394328Y-7690000D01*
X2450111Y-7986462D01*
X2625320Y-8258744D01*
X2892658Y-8441409D01*
X3210000Y-8505672D01*
X4156038Y-8505672D01*
X5318182Y-9667817D01*
X5675048Y-9906267D01*
X5975435Y-9966018D01*
X5950328Y-10090000D01*
X5950328Y-10990000D01*
X6006111Y-11286462D01*
X6181320Y-11558744D01*
X6448658Y-11741409D01*
X6766000Y-11805672D01*
X7966000Y-11805672D01*
X8262462Y-11749889D01*
X8433234Y-11640000D01*
X12235000Y-11640000D01*
X12235000Y-13970000D01*
X12318733Y-14390952D01*
X12366894Y-14463030D01*
X12338654Y-14605000D01*
X12460447Y-15217293D01*
X12807283Y-15736371D01*
X13326361Y-16083207D01*
X13938654Y-16205000D01*
X14001346Y-16205000D01*
X14613639Y-16083207D01*
X15132717Y-15736371D01*
X15479553Y-15217293D01*
X15601346Y-14605000D01*
X15479553Y-13992707D01*
X15132717Y-13473629D01*
X14613639Y-13126793D01*
X14435000Y-13091259D01*
X14435000Y-11367581D01*
X14486409Y-11292342D01*
X14550672Y-10975000D01*
X14550672Y-10772307D01*
X15181183Y-11402818D01*
X15538049Y-11641268D01*
X15959000Y-11725000D01*
X16066084Y-11725000D01*
X16110320Y-11793744D01*
X16377658Y-11976409D01*
X16695000Y-12040672D01*
X17048666Y-12040672D01*
X17274048Y-12191267D01*
X17695000Y-12275000D01*
X18619242Y-12275000D01*
X18767658Y-12376409D01*
X19085000Y-12440672D01*
X20030037Y-12440672D01*
X20109000Y-12519635D01*
X20109000Y-23054137D01*
X19955591Y-23278658D01*
X19891328Y-23596000D01*
X19891328Y-24796000D01*
X19947111Y-25092462D01*
X19948024Y-25093881D01*
X19409613Y-24870313D01*
X18693529Y-24869688D01*
X18031714Y-25143145D01*
X17524924Y-25649051D01*
X17250313Y-26310387D01*
X17249688Y-27026471D01*
X17523145Y-27688286D01*
X18029051Y-28195076D01*
X18193566Y-28263389D01*
X17969738Y-28486827D01*
X17785693Y-28930058D01*
X16975000Y-28119366D01*
X16975000Y-25273000D01*
X16963810Y-25216746D01*
X16891268Y-24852049D01*
X16652818Y-24495183D01*
X13650408Y-21492774D01*
X13293543Y-21254324D01*
X12872591Y-21170591D01*
X10339404Y-21170591D01*
X10064285Y-20856879D01*
X9481632Y-20569545D01*
X8833372Y-20527057D01*
X8218198Y-20735880D01*
X7896802Y-20921438D01*
X7408369Y-21349782D01*
X7121035Y-21932436D01*
X7088238Y-22432838D01*
X6972680Y-22253256D01*
X6705342Y-22070591D01*
X6668000Y-22063029D01*
X6668000Y-20146438D01*
X6886744Y-20005680D01*
X7069409Y-19738342D01*
X7133672Y-19421000D01*
X7133672Y-18171000D01*
X7077889Y-17874538D01*
X6902680Y-17602256D01*
X6668000Y-17441905D01*
X6668000Y-16363000D01*
X6584267Y-15942048D01*
X6446838Y-15736371D01*
X6345817Y-15585182D01*
X5409962Y-14649328D01*
X5410277Y-14288137D01*
X5167205Y-13699857D01*
X4910000Y-13442202D01*
X4910000Y-11618916D01*
X4978744Y-11574680D01*
X5161409Y-11307342D01*
X5225672Y-10990000D01*
X5225672Y-10090000D01*
X5169889Y-9793538D01*
X4994680Y-9521256D01*
X4727342Y-9338591D01*
X4410000Y-9274328D01*
X3210000Y-9274328D01*
X2913538Y-9330111D01*
X2641256Y-9505320D01*
X2458591Y-9772658D01*
X2394328Y-10090000D01*
X2394328Y-10990000D01*
X2450111Y-11286462D01*
X2625320Y-11558744D01*
X2710000Y-11616604D01*
X2710000Y-13442312D01*
X2454377Y-13697489D01*
X2210278Y-14285344D01*
X2209723Y-14921863D01*
X2452795Y-15510143D01*
X2902489Y-15960623D01*
X3490344Y-16204722D01*
X3854405Y-16205039D01*
X4468000Y-16818635D01*
X4468000Y-17445562D01*
X4249256Y-17586320D01*
X4181302Y-17685774D01*
X4157872Y-17662344D01*
X3937347Y-17571000D01*
X3268000Y-17571000D01*
X3118000Y-17721000D01*
X3118000Y-18746000D01*
X3138000Y-18746000D01*
X3138000Y-18846000D01*
X3118000Y-18846000D01*
X3118000Y-19871000D01*
X3268000Y-20021000D01*
X3937347Y-20021000D01*
X4157872Y-19929656D01*
X4180253Y-19907275D01*
X4233320Y-19989744D01*
X4468000Y-20150095D01*
X4468000Y-22077257D01*
X4219256Y-22237320D01*
X4149535Y-22339360D01*
X3872404Y-22223191D01*
X3860546Y-22220833D01*
X3638000Y-22345551D01*
X3638000Y-23501287D01*
X3602141Y-23537146D01*
X3672854Y-23607859D01*
X3708713Y-23572000D01*
X3972328Y-23572000D01*
X3972328Y-23672000D01*
X3708713Y-23672000D01*
X3672854Y-23636141D01*
X3602141Y-23706854D01*
X3638000Y-23742713D01*
X3638000Y-24898449D01*
X3860546Y-25023167D01*
X4148382Y-24905367D01*
X4203320Y-24990744D01*
X4319315Y-25070000D01*
X4010000Y-25070000D01*
X3860000Y-25220000D01*
X3860000Y-26620000D01*
X5260000Y-26620000D01*
X5410000Y-26470000D01*
X5410000Y-25550652D01*
X5318655Y-25330127D01*
X5226200Y-25237672D01*
X5648037Y-25237672D01*
X5658477Y-25248112D01*
X5763345Y-25318182D01*
X6015343Y-25486562D01*
X6436295Y-25570295D01*
X8710596Y-25570295D01*
X8985714Y-25884007D01*
X9566448Y-26170394D01*
X9508040Y-26388377D01*
X9539195Y-26625030D01*
X9658542Y-26831746D01*
X9931369Y-27304295D01*
X10136273Y-27359199D01*
X11361699Y-26651699D01*
X11351699Y-26634378D01*
X11438301Y-26584378D01*
X11448301Y-26601699D01*
X12673727Y-25894199D01*
X12723354Y-25708988D01*
X13335000Y-26320635D01*
X13335000Y-26822795D01*
X13320805Y-26714970D01*
X13201458Y-26508254D01*
X12928631Y-26035705D01*
X12723727Y-25980801D01*
X11498301Y-26688301D01*
X12130801Y-27783823D01*
X12335705Y-27838727D01*
X13144873Y-27371554D01*
X13290182Y-27182185D01*
X13335000Y-27014920D01*
X13335000Y-30671084D01*
X13333257Y-30672206D01*
X13152342Y-30548591D01*
X12835000Y-30484328D01*
X11635000Y-30484328D01*
X11338538Y-30540111D01*
X11167766Y-30650000D01*
X8698916Y-30650000D01*
X8654680Y-30581256D01*
X8555226Y-30513302D01*
X8578656Y-30489872D01*
X8670000Y-30269347D01*
X8670000Y-29750000D01*
X8520000Y-29600000D01*
X7670000Y-29600000D01*
X7670000Y-29620000D01*
X7570000Y-29620000D01*
X7570000Y-29600000D01*
X6720000Y-29600000D01*
X6570000Y-29750000D01*
X6570000Y-30269347D01*
X6661344Y-30489872D01*
X6683725Y-30512253D01*
X6601256Y-30565320D01*
X6543396Y-30650000D01*
X5255284Y-30650000D01*
X4830949Y-30224924D01*
X4666434Y-30156611D01*
X4890262Y-29933173D01*
X5084778Y-29464726D01*
X5085221Y-28957499D01*
X5032810Y-28830653D01*
X6570000Y-28830653D01*
X6570000Y-29350000D01*
X6720000Y-29500000D01*
X7570000Y-29500000D01*
X7570000Y-28500000D01*
X7670000Y-28500000D01*
X7670000Y-29500000D01*
X8520000Y-29500000D01*
X8670000Y-29350000D01*
X8670000Y-28830653D01*
X8578656Y-28610128D01*
X8409873Y-28441345D01*
X8189348Y-28350000D01*
X7820000Y-28350000D01*
X7670000Y-28500000D01*
X7570000Y-28500000D01*
X7420000Y-28350000D01*
X7050652Y-28350000D01*
X6830127Y-28441345D01*
X6661344Y-28610128D01*
X6570000Y-28830653D01*
X5032810Y-28830653D01*
X4891523Y-28488714D01*
X4673190Y-28270000D01*
X4929347Y-28270000D01*
X5149872Y-28178656D01*
X5318655Y-28009873D01*
X5410000Y-27789348D01*
X5410000Y-27650705D01*
X10131369Y-27650705D01*
X10404195Y-28123254D01*
X10523543Y-28329970D01*
X10712913Y-28475278D01*
X10943474Y-28537057D01*
X11180127Y-28505901D01*
X11989295Y-28038727D01*
X12044199Y-27833823D01*
X11411699Y-26738301D01*
X10186273Y-27445801D01*
X10131369Y-27650705D01*
X5410000Y-27650705D01*
X5410000Y-26870000D01*
X5260000Y-26720000D01*
X3860000Y-26720000D01*
X3860000Y-26740000D01*
X3760000Y-26740000D01*
X3760000Y-26720000D01*
X2360000Y-26720000D01*
X2210000Y-26870000D01*
X2210000Y-27789348D01*
X2301345Y-28009873D01*
X2470128Y-28178656D01*
X2690653Y-28270000D01*
X2946944Y-28270000D01*
X2729738Y-28486827D01*
X2535222Y-28955274D01*
X2534779Y-29462501D01*
X2728477Y-29931286D01*
X2953213Y-30156415D01*
X2791714Y-30223145D01*
X2284924Y-30729051D01*
X2010313Y-31390387D01*
X2009688Y-32106471D01*
X2283145Y-32768286D01*
X2789051Y-33275076D01*
X3450387Y-33549687D01*
X4166471Y-33550312D01*
X4828286Y-33276855D01*
X5255887Y-32850000D01*
X6541084Y-32850000D01*
X6585320Y-32918744D01*
X6852658Y-33101409D01*
X7170000Y-33165672D01*
X8070000Y-33165672D01*
X8366462Y-33109889D01*
X8638744Y-32934680D01*
X8696604Y-32850000D01*
X11169242Y-32850000D01*
X11317658Y-32951409D01*
X11635000Y-33015672D01*
X12835000Y-33015672D01*
X13131462Y-32959889D01*
X13336743Y-32827794D01*
X13517658Y-32951409D01*
X13835000Y-33015672D01*
X15035000Y-33015672D01*
X15331462Y-32959889D01*
X15603744Y-32784680D01*
X15786409Y-32517342D01*
X15850672Y-32200000D01*
X15850672Y-31300000D01*
X15794889Y-31003538D01*
X15619680Y-30731256D01*
X15535000Y-30673396D01*
X15535000Y-29790634D01*
X17250212Y-31505847D01*
X17249688Y-32106471D01*
X17523145Y-32768286D01*
X18029051Y-33275076D01*
X18690387Y-33549687D01*
X19406471Y-33550312D01*
X20068286Y-33276855D01*
X20575076Y-32770949D01*
X20849687Y-32109613D01*
X20850312Y-31393529D01*
X20576855Y-30731714D01*
X20070949Y-30224924D01*
X19906434Y-30156611D01*
X20130262Y-29933173D01*
X20324778Y-29464726D01*
X20325221Y-28957499D01*
X20131523Y-28488714D01*
X19906787Y-28263585D01*
X20068286Y-28196855D01*
X20495887Y-27770000D01*
X20508000Y-27770000D01*
X20928952Y-27686267D01*
X21190251Y-27511672D01*
X21350000Y-27511672D01*
X21350000Y-32298821D01*
X21207422Y-33015607D01*
X20850211Y-33550211D01*
X20315607Y-33907422D01*
X19598821Y-34050000D01*
X3261179Y-34050000D01*
X2544393Y-33907422D01*
X2009789Y-33550211D01*
X1652578Y-33015607D01*
X1510000Y-32298821D01*
X1510000Y-25550652D01*
X2210000Y-25550652D01*
X2210000Y-26470000D01*
X2360000Y-26620000D01*
X3760000Y-26620000D01*
X3760000Y-25220000D01*
X3610000Y-25070000D01*
X2690653Y-25070000D01*
X2470128Y-25161344D01*
X2301345Y-25330127D01*
X2210000Y-25550652D01*
X1510000Y-25550652D01*
X1510000Y-23894546D01*
X2186833Y-23894546D01*
X2397789Y-24410003D01*
X2789944Y-24805494D01*
X3303596Y-25020809D01*
X3315454Y-25023167D01*
X3538000Y-24898449D01*
X3538000Y-23672000D01*
X2311551Y-23672000D01*
X2186833Y-23894546D01*
X1510000Y-23894546D01*
X1510000Y-23349454D01*
X2186833Y-23349454D01*
X2311551Y-23572000D01*
X3538000Y-23572000D01*
X3538000Y-22345551D01*
X3315454Y-22220833D01*
X2799997Y-22431789D01*
X2404506Y-22823944D01*
X2189191Y-23337596D01*
X2186833Y-23349454D01*
X1510000Y-23349454D01*
X1510000Y-18996000D01*
X1718000Y-18996000D01*
X1718000Y-19540348D01*
X1809345Y-19760873D01*
X1978128Y-19929656D01*
X2198653Y-20021000D01*
X2868000Y-20021000D01*
X3018000Y-19871000D01*
X3018000Y-18846000D01*
X1868000Y-18846000D01*
X1718000Y-18996000D01*
X1510000Y-18996000D01*
X1510000Y-18051652D01*
X1718000Y-18051652D01*
X1718000Y-18596000D01*
X1868000Y-18746000D01*
X3018000Y-18746000D01*
X3018000Y-17721000D01*
X2868000Y-17571000D01*
X2198653Y-17571000D01*
X1978128Y-17662344D01*
X1809345Y-17831127D01*
X1718000Y-18051652D01*
X1510000Y-18051652D01*
X1510000Y-4010000D01*
X4750000Y-4010000D01*
X4750000Y-4929348D01*
X4841345Y-5149873D01*
X5010128Y-5318656D01*
X5230653Y-5410000D01*
X6150000Y-5410000D01*
X6300000Y-5260000D01*
X6300000Y-3860000D01*
X6400000Y-3860000D01*
X6400000Y-5260000D01*
X6550000Y-5410000D01*
X7469347Y-5410000D01*
X7620000Y-5347598D01*
X7770653Y-5410000D01*
X8690000Y-5410000D01*
X8840000Y-5260000D01*
X8840000Y-3860000D01*
X6400000Y-3860000D01*
X6300000Y-3860000D01*
X4900000Y-3860000D01*
X4750000Y-4010000D01*
X1510000Y-4010000D01*
X1510000Y-3261179D01*
X1623485Y-2690652D01*
X4750000Y-2690652D01*
X4750000Y-3610000D01*
X4900000Y-3760000D01*
X6300000Y-3760000D01*
X6300000Y-2360000D01*
X6400000Y-2360000D01*
X6400000Y-3760000D01*
X8840000Y-3760000D01*
X8840000Y-2360000D01*
X8690000Y-2210000D01*
X7770653Y-2210000D01*
X7620000Y-2272402D01*
X7469347Y-2210000D01*
X6550000Y-2210000D01*
X6400000Y-2360000D01*
X6300000Y-2360000D01*
X6150000Y-2210000D01*
X5230653Y-2210000D01*
X5010128Y-2301344D01*
X4841345Y-2470127D01*
X4750000Y-2690652D01*
X1623485Y-2690652D01*
X1652578Y-2544393D01*
X2009789Y-2009789D01*
X2544393Y-1652578D01*
X3261179Y-1510000D01*
X10976000Y-1510000D01*
X10976000Y-2618037D01*
G36*
X10706827Y-4890262D02*
X10976000Y-5002032D01*
X10976000Y-5125000D01*
X10408958Y-5125000D01*
X10490000Y-4929348D01*
X10490000Y-4673056D01*
X10706827Y-4890262D01*
X10706827Y-4890262D01*
G37*
X10706827Y-4890262D02*
X10976000Y-5002032D01*
X10976000Y-5125000D01*
X10408958Y-5125000D01*
X10490000Y-4929348D01*
X10490000Y-4673056D01*
X10706827Y-4890262D01*
M02*
